%TF.GenerationSoftware,KiCad,Pcbnew,9.0.1*%
%TF.CreationDate,2025-11-11T13:16:59+01:00*%
%TF.ProjectId,542xISA,35343278-4953-4412-9e6b-696361645f70,0.3a*%
%TF.SameCoordinates,Original*%
%TF.FileFunction,Legend,Bot*%
%TF.FilePolarity,Positive*%
%FSLAX46Y46*%
G04 Gerber Fmt 4.6, Leading zero omitted, Abs format (unit mm)*
G04 Created by KiCad (PCBNEW 9.0.1) date 2025-11-11 13:16:59*
%MOMM*%
%LPD*%
G01*
G04 APERTURE LIST*
%ADD10C,0.100000*%
%ADD11C,0.150000*%
%ADD12C,0.300000*%
%ADD13C,0.400000*%
%ADD14C,0.120000*%
G04 APERTURE END LIST*
D10*
D11*
X177002200Y-166007200D02*
X285002200Y-166007200D01*
X285002200Y-198007200D01*
X177002200Y-198007200D01*
X177002200Y-166007200D01*
D10*
D11*
X10000000Y-10000000D02*
X287002200Y-10000000D01*
X287002200Y-200007200D01*
X10000000Y-200007200D01*
X10000000Y-10000000D01*
D10*
D11*
X12000000Y-12000000D02*
X285002200Y-12000000D01*
X285002200Y-198007200D01*
X12000000Y-198007200D01*
X12000000Y-12000000D01*
D10*
D11*
X60000000Y-12000000D02*
X60000000Y-10000000D01*
D10*
D11*
X110000000Y-12000000D02*
X110000000Y-10000000D01*
D10*
D11*
X160000000Y-12000000D02*
X160000000Y-10000000D01*
D10*
D11*
X210000000Y-12000000D02*
X210000000Y-10000000D01*
D10*
D11*
X260000000Y-12000000D02*
X260000000Y-10000000D01*
D10*
D11*
X36089160Y-11593604D02*
X35346303Y-11593604D01*
X35717731Y-11593604D02*
X35717731Y-10293604D01*
X35717731Y-10293604D02*
X35593922Y-10479319D01*
X35593922Y-10479319D02*
X35470112Y-10603128D01*
X35470112Y-10603128D02*
X35346303Y-10665033D01*
D10*
D11*
X85346303Y-10417414D02*
X85408207Y-10355509D01*
X85408207Y-10355509D02*
X85532017Y-10293604D01*
X85532017Y-10293604D02*
X85841541Y-10293604D01*
X85841541Y-10293604D02*
X85965350Y-10355509D01*
X85965350Y-10355509D02*
X86027255Y-10417414D01*
X86027255Y-10417414D02*
X86089160Y-10541223D01*
X86089160Y-10541223D02*
X86089160Y-10665033D01*
X86089160Y-10665033D02*
X86027255Y-10850747D01*
X86027255Y-10850747D02*
X85284398Y-11593604D01*
X85284398Y-11593604D02*
X86089160Y-11593604D01*
D10*
D11*
X135284398Y-10293604D02*
X136089160Y-10293604D01*
X136089160Y-10293604D02*
X135655826Y-10788842D01*
X135655826Y-10788842D02*
X135841541Y-10788842D01*
X135841541Y-10788842D02*
X135965350Y-10850747D01*
X135965350Y-10850747D02*
X136027255Y-10912652D01*
X136027255Y-10912652D02*
X136089160Y-11036461D01*
X136089160Y-11036461D02*
X136089160Y-11345985D01*
X136089160Y-11345985D02*
X136027255Y-11469795D01*
X136027255Y-11469795D02*
X135965350Y-11531700D01*
X135965350Y-11531700D02*
X135841541Y-11593604D01*
X135841541Y-11593604D02*
X135470112Y-11593604D01*
X135470112Y-11593604D02*
X135346303Y-11531700D01*
X135346303Y-11531700D02*
X135284398Y-11469795D01*
D10*
D11*
X185965350Y-10726938D02*
X185965350Y-11593604D01*
X185655826Y-10231700D02*
X185346303Y-11160271D01*
X185346303Y-11160271D02*
X186151064Y-11160271D01*
D10*
D11*
X236027255Y-10293604D02*
X235408207Y-10293604D01*
X235408207Y-10293604D02*
X235346303Y-10912652D01*
X235346303Y-10912652D02*
X235408207Y-10850747D01*
X235408207Y-10850747D02*
X235532017Y-10788842D01*
X235532017Y-10788842D02*
X235841541Y-10788842D01*
X235841541Y-10788842D02*
X235965350Y-10850747D01*
X235965350Y-10850747D02*
X236027255Y-10912652D01*
X236027255Y-10912652D02*
X236089160Y-11036461D01*
X236089160Y-11036461D02*
X236089160Y-11345985D01*
X236089160Y-11345985D02*
X236027255Y-11469795D01*
X236027255Y-11469795D02*
X235965350Y-11531700D01*
X235965350Y-11531700D02*
X235841541Y-11593604D01*
X235841541Y-11593604D02*
X235532017Y-11593604D01*
X235532017Y-11593604D02*
X235408207Y-11531700D01*
X235408207Y-11531700D02*
X235346303Y-11469795D01*
D10*
D11*
X285965350Y-10293604D02*
X285717731Y-10293604D01*
X285717731Y-10293604D02*
X285593922Y-10355509D01*
X285593922Y-10355509D02*
X285532017Y-10417414D01*
X285532017Y-10417414D02*
X285408207Y-10603128D01*
X285408207Y-10603128D02*
X285346303Y-10850747D01*
X285346303Y-10850747D02*
X285346303Y-11345985D01*
X285346303Y-11345985D02*
X285408207Y-11469795D01*
X285408207Y-11469795D02*
X285470112Y-11531700D01*
X285470112Y-11531700D02*
X285593922Y-11593604D01*
X285593922Y-11593604D02*
X285841541Y-11593604D01*
X285841541Y-11593604D02*
X285965350Y-11531700D01*
X285965350Y-11531700D02*
X286027255Y-11469795D01*
X286027255Y-11469795D02*
X286089160Y-11345985D01*
X286089160Y-11345985D02*
X286089160Y-11036461D01*
X286089160Y-11036461D02*
X286027255Y-10912652D01*
X286027255Y-10912652D02*
X285965350Y-10850747D01*
X285965350Y-10850747D02*
X285841541Y-10788842D01*
X285841541Y-10788842D02*
X285593922Y-10788842D01*
X285593922Y-10788842D02*
X285470112Y-10850747D01*
X285470112Y-10850747D02*
X285408207Y-10912652D01*
X285408207Y-10912652D02*
X285346303Y-11036461D01*
D10*
D11*
X60000000Y-198007200D02*
X60000000Y-200007200D01*
D10*
D11*
X110000000Y-198007200D02*
X110000000Y-200007200D01*
D10*
D11*
X160000000Y-198007200D02*
X160000000Y-200007200D01*
D10*
D11*
X210000000Y-198007200D02*
X210000000Y-200007200D01*
D10*
D11*
X260000000Y-198007200D02*
X260000000Y-200007200D01*
D10*
D11*
X36089160Y-199600804D02*
X35346303Y-199600804D01*
X35717731Y-199600804D02*
X35717731Y-198300804D01*
X35717731Y-198300804D02*
X35593922Y-198486519D01*
X35593922Y-198486519D02*
X35470112Y-198610328D01*
X35470112Y-198610328D02*
X35346303Y-198672233D01*
D10*
D11*
X85346303Y-198424614D02*
X85408207Y-198362709D01*
X85408207Y-198362709D02*
X85532017Y-198300804D01*
X85532017Y-198300804D02*
X85841541Y-198300804D01*
X85841541Y-198300804D02*
X85965350Y-198362709D01*
X85965350Y-198362709D02*
X86027255Y-198424614D01*
X86027255Y-198424614D02*
X86089160Y-198548423D01*
X86089160Y-198548423D02*
X86089160Y-198672233D01*
X86089160Y-198672233D02*
X86027255Y-198857947D01*
X86027255Y-198857947D02*
X85284398Y-199600804D01*
X85284398Y-199600804D02*
X86089160Y-199600804D01*
D10*
D11*
X135284398Y-198300804D02*
X136089160Y-198300804D01*
X136089160Y-198300804D02*
X135655826Y-198796042D01*
X135655826Y-198796042D02*
X135841541Y-198796042D01*
X135841541Y-198796042D02*
X135965350Y-198857947D01*
X135965350Y-198857947D02*
X136027255Y-198919852D01*
X136027255Y-198919852D02*
X136089160Y-199043661D01*
X136089160Y-199043661D02*
X136089160Y-199353185D01*
X136089160Y-199353185D02*
X136027255Y-199476995D01*
X136027255Y-199476995D02*
X135965350Y-199538900D01*
X135965350Y-199538900D02*
X135841541Y-199600804D01*
X135841541Y-199600804D02*
X135470112Y-199600804D01*
X135470112Y-199600804D02*
X135346303Y-199538900D01*
X135346303Y-199538900D02*
X135284398Y-199476995D01*
D10*
D11*
X185965350Y-198734138D02*
X185965350Y-199600804D01*
X185655826Y-198238900D02*
X185346303Y-199167471D01*
X185346303Y-199167471D02*
X186151064Y-199167471D01*
D10*
D11*
X236027255Y-198300804D02*
X235408207Y-198300804D01*
X235408207Y-198300804D02*
X235346303Y-198919852D01*
X235346303Y-198919852D02*
X235408207Y-198857947D01*
X235408207Y-198857947D02*
X235532017Y-198796042D01*
X235532017Y-198796042D02*
X235841541Y-198796042D01*
X235841541Y-198796042D02*
X235965350Y-198857947D01*
X235965350Y-198857947D02*
X236027255Y-198919852D01*
X236027255Y-198919852D02*
X236089160Y-199043661D01*
X236089160Y-199043661D02*
X236089160Y-199353185D01*
X236089160Y-199353185D02*
X236027255Y-199476995D01*
X236027255Y-199476995D02*
X235965350Y-199538900D01*
X235965350Y-199538900D02*
X235841541Y-199600804D01*
X235841541Y-199600804D02*
X235532017Y-199600804D01*
X235532017Y-199600804D02*
X235408207Y-199538900D01*
X235408207Y-199538900D02*
X235346303Y-199476995D01*
D10*
D11*
X285965350Y-198300804D02*
X285717731Y-198300804D01*
X285717731Y-198300804D02*
X285593922Y-198362709D01*
X285593922Y-198362709D02*
X285532017Y-198424614D01*
X285532017Y-198424614D02*
X285408207Y-198610328D01*
X285408207Y-198610328D02*
X285346303Y-198857947D01*
X285346303Y-198857947D02*
X285346303Y-199353185D01*
X285346303Y-199353185D02*
X285408207Y-199476995D01*
X285408207Y-199476995D02*
X285470112Y-199538900D01*
X285470112Y-199538900D02*
X285593922Y-199600804D01*
X285593922Y-199600804D02*
X285841541Y-199600804D01*
X285841541Y-199600804D02*
X285965350Y-199538900D01*
X285965350Y-199538900D02*
X286027255Y-199476995D01*
X286027255Y-199476995D02*
X286089160Y-199353185D01*
X286089160Y-199353185D02*
X286089160Y-199043661D01*
X286089160Y-199043661D02*
X286027255Y-198919852D01*
X286027255Y-198919852D02*
X285965350Y-198857947D01*
X285965350Y-198857947D02*
X285841541Y-198796042D01*
X285841541Y-198796042D02*
X285593922Y-198796042D01*
X285593922Y-198796042D02*
X285470112Y-198857947D01*
X285470112Y-198857947D02*
X285408207Y-198919852D01*
X285408207Y-198919852D02*
X285346303Y-199043661D01*
D10*
D11*
X10000000Y-60000000D02*
X12000000Y-60000000D01*
D10*
D11*
X10000000Y-110000000D02*
X12000000Y-110000000D01*
D10*
D11*
X10000000Y-160000000D02*
X12000000Y-160000000D01*
D10*
D11*
X10690476Y-35222176D02*
X11309523Y-35222176D01*
X10566666Y-35593604D02*
X10999999Y-34293604D01*
X10999999Y-34293604D02*
X11433333Y-35593604D01*
D10*
D11*
X11092857Y-84912652D02*
X11278571Y-84974557D01*
X11278571Y-84974557D02*
X11340476Y-85036461D01*
X11340476Y-85036461D02*
X11402380Y-85160271D01*
X11402380Y-85160271D02*
X11402380Y-85345985D01*
X11402380Y-85345985D02*
X11340476Y-85469795D01*
X11340476Y-85469795D02*
X11278571Y-85531700D01*
X11278571Y-85531700D02*
X11154761Y-85593604D01*
X11154761Y-85593604D02*
X10659523Y-85593604D01*
X10659523Y-85593604D02*
X10659523Y-84293604D01*
X10659523Y-84293604D02*
X11092857Y-84293604D01*
X11092857Y-84293604D02*
X11216666Y-84355509D01*
X11216666Y-84355509D02*
X11278571Y-84417414D01*
X11278571Y-84417414D02*
X11340476Y-84541223D01*
X11340476Y-84541223D02*
X11340476Y-84665033D01*
X11340476Y-84665033D02*
X11278571Y-84788842D01*
X11278571Y-84788842D02*
X11216666Y-84850747D01*
X11216666Y-84850747D02*
X11092857Y-84912652D01*
X11092857Y-84912652D02*
X10659523Y-84912652D01*
D10*
D11*
X11402380Y-135469795D02*
X11340476Y-135531700D01*
X11340476Y-135531700D02*
X11154761Y-135593604D01*
X11154761Y-135593604D02*
X11030952Y-135593604D01*
X11030952Y-135593604D02*
X10845238Y-135531700D01*
X10845238Y-135531700D02*
X10721428Y-135407890D01*
X10721428Y-135407890D02*
X10659523Y-135284080D01*
X10659523Y-135284080D02*
X10597619Y-135036461D01*
X10597619Y-135036461D02*
X10597619Y-134850747D01*
X10597619Y-134850747D02*
X10659523Y-134603128D01*
X10659523Y-134603128D02*
X10721428Y-134479319D01*
X10721428Y-134479319D02*
X10845238Y-134355509D01*
X10845238Y-134355509D02*
X11030952Y-134293604D01*
X11030952Y-134293604D02*
X11154761Y-134293604D01*
X11154761Y-134293604D02*
X11340476Y-134355509D01*
X11340476Y-134355509D02*
X11402380Y-134417414D01*
D10*
D11*
X10659523Y-185593604D02*
X10659523Y-184293604D01*
X10659523Y-184293604D02*
X10969047Y-184293604D01*
X10969047Y-184293604D02*
X11154761Y-184355509D01*
X11154761Y-184355509D02*
X11278571Y-184479319D01*
X11278571Y-184479319D02*
X11340476Y-184603128D01*
X11340476Y-184603128D02*
X11402380Y-184850747D01*
X11402380Y-184850747D02*
X11402380Y-185036461D01*
X11402380Y-185036461D02*
X11340476Y-185284080D01*
X11340476Y-185284080D02*
X11278571Y-185407890D01*
X11278571Y-185407890D02*
X11154761Y-185531700D01*
X11154761Y-185531700D02*
X10969047Y-185593604D01*
X10969047Y-185593604D02*
X10659523Y-185593604D01*
D10*
D11*
X287002200Y-60000000D02*
X285002200Y-60000000D01*
D10*
D11*
X287002200Y-110000000D02*
X285002200Y-110000000D01*
D10*
D11*
X287002200Y-160000000D02*
X285002200Y-160000000D01*
D10*
D11*
X285692676Y-35222176D02*
X286311723Y-35222176D01*
X285568866Y-35593604D02*
X286002199Y-34293604D01*
X286002199Y-34293604D02*
X286435533Y-35593604D01*
D10*
D11*
X286095057Y-84912652D02*
X286280771Y-84974557D01*
X286280771Y-84974557D02*
X286342676Y-85036461D01*
X286342676Y-85036461D02*
X286404580Y-85160271D01*
X286404580Y-85160271D02*
X286404580Y-85345985D01*
X286404580Y-85345985D02*
X286342676Y-85469795D01*
X286342676Y-85469795D02*
X286280771Y-85531700D01*
X286280771Y-85531700D02*
X286156961Y-85593604D01*
X286156961Y-85593604D02*
X285661723Y-85593604D01*
X285661723Y-85593604D02*
X285661723Y-84293604D01*
X285661723Y-84293604D02*
X286095057Y-84293604D01*
X286095057Y-84293604D02*
X286218866Y-84355509D01*
X286218866Y-84355509D02*
X286280771Y-84417414D01*
X286280771Y-84417414D02*
X286342676Y-84541223D01*
X286342676Y-84541223D02*
X286342676Y-84665033D01*
X286342676Y-84665033D02*
X286280771Y-84788842D01*
X286280771Y-84788842D02*
X286218866Y-84850747D01*
X286218866Y-84850747D02*
X286095057Y-84912652D01*
X286095057Y-84912652D02*
X285661723Y-84912652D01*
D10*
D11*
X286404580Y-135469795D02*
X286342676Y-135531700D01*
X286342676Y-135531700D02*
X286156961Y-135593604D01*
X286156961Y-135593604D02*
X286033152Y-135593604D01*
X286033152Y-135593604D02*
X285847438Y-135531700D01*
X285847438Y-135531700D02*
X285723628Y-135407890D01*
X285723628Y-135407890D02*
X285661723Y-135284080D01*
X285661723Y-135284080D02*
X285599819Y-135036461D01*
X285599819Y-135036461D02*
X285599819Y-134850747D01*
X285599819Y-134850747D02*
X285661723Y-134603128D01*
X285661723Y-134603128D02*
X285723628Y-134479319D01*
X285723628Y-134479319D02*
X285847438Y-134355509D01*
X285847438Y-134355509D02*
X286033152Y-134293604D01*
X286033152Y-134293604D02*
X286156961Y-134293604D01*
X286156961Y-134293604D02*
X286342676Y-134355509D01*
X286342676Y-134355509D02*
X286404580Y-134417414D01*
D10*
D11*
X285661723Y-185593604D02*
X285661723Y-184293604D01*
X285661723Y-184293604D02*
X285971247Y-184293604D01*
X285971247Y-184293604D02*
X286156961Y-184355509D01*
X286156961Y-184355509D02*
X286280771Y-184479319D01*
X286280771Y-184479319D02*
X286342676Y-184603128D01*
X286342676Y-184603128D02*
X286404580Y-184850747D01*
X286404580Y-184850747D02*
X286404580Y-185036461D01*
X286404580Y-185036461D02*
X286342676Y-185284080D01*
X286342676Y-185284080D02*
X286280771Y-185407890D01*
X286280771Y-185407890D02*
X286156961Y-185531700D01*
X286156961Y-185531700D02*
X285971247Y-185593604D01*
X285971247Y-185593604D02*
X285661723Y-185593604D01*
D10*
D11*
X200458026Y-193793328D02*
X200458026Y-192293328D01*
X200458026Y-192293328D02*
X200815169Y-192293328D01*
X200815169Y-192293328D02*
X201029455Y-192364757D01*
X201029455Y-192364757D02*
X201172312Y-192507614D01*
X201172312Y-192507614D02*
X201243741Y-192650471D01*
X201243741Y-192650471D02*
X201315169Y-192936185D01*
X201315169Y-192936185D02*
X201315169Y-193150471D01*
X201315169Y-193150471D02*
X201243741Y-193436185D01*
X201243741Y-193436185D02*
X201172312Y-193579042D01*
X201172312Y-193579042D02*
X201029455Y-193721900D01*
X201029455Y-193721900D02*
X200815169Y-193793328D01*
X200815169Y-193793328D02*
X200458026Y-193793328D01*
X202600884Y-193793328D02*
X202600884Y-193007614D01*
X202600884Y-193007614D02*
X202529455Y-192864757D01*
X202529455Y-192864757D02*
X202386598Y-192793328D01*
X202386598Y-192793328D02*
X202100884Y-192793328D01*
X202100884Y-192793328D02*
X201958026Y-192864757D01*
X202600884Y-193721900D02*
X202458026Y-193793328D01*
X202458026Y-193793328D02*
X202100884Y-193793328D01*
X202100884Y-193793328D02*
X201958026Y-193721900D01*
X201958026Y-193721900D02*
X201886598Y-193579042D01*
X201886598Y-193579042D02*
X201886598Y-193436185D01*
X201886598Y-193436185D02*
X201958026Y-193293328D01*
X201958026Y-193293328D02*
X202100884Y-193221900D01*
X202100884Y-193221900D02*
X202458026Y-193221900D01*
X202458026Y-193221900D02*
X202600884Y-193150471D01*
X203100884Y-192793328D02*
X203672312Y-192793328D01*
X203315169Y-192293328D02*
X203315169Y-193579042D01*
X203315169Y-193579042D02*
X203386598Y-193721900D01*
X203386598Y-193721900D02*
X203529455Y-193793328D01*
X203529455Y-193793328D02*
X203672312Y-193793328D01*
X204743741Y-193721900D02*
X204600884Y-193793328D01*
X204600884Y-193793328D02*
X204315170Y-193793328D01*
X204315170Y-193793328D02*
X204172312Y-193721900D01*
X204172312Y-193721900D02*
X204100884Y-193579042D01*
X204100884Y-193579042D02*
X204100884Y-193007614D01*
X204100884Y-193007614D02*
X204172312Y-192864757D01*
X204172312Y-192864757D02*
X204315170Y-192793328D01*
X204315170Y-192793328D02*
X204600884Y-192793328D01*
X204600884Y-192793328D02*
X204743741Y-192864757D01*
X204743741Y-192864757D02*
X204815170Y-193007614D01*
X204815170Y-193007614D02*
X204815170Y-193150471D01*
X204815170Y-193150471D02*
X204100884Y-193293328D01*
X205458026Y-193650471D02*
X205529455Y-193721900D01*
X205529455Y-193721900D02*
X205458026Y-193793328D01*
X205458026Y-193793328D02*
X205386598Y-193721900D01*
X205386598Y-193721900D02*
X205458026Y-193650471D01*
X205458026Y-193650471D02*
X205458026Y-193793328D01*
X205458026Y-192864757D02*
X205529455Y-192936185D01*
X205529455Y-192936185D02*
X205458026Y-193007614D01*
X205458026Y-193007614D02*
X205386598Y-192936185D01*
X205386598Y-192936185D02*
X205458026Y-192864757D01*
X205458026Y-192864757D02*
X205458026Y-193007614D01*
X207243741Y-192436185D02*
X207315169Y-192364757D01*
X207315169Y-192364757D02*
X207458027Y-192293328D01*
X207458027Y-192293328D02*
X207815169Y-192293328D01*
X207815169Y-192293328D02*
X207958027Y-192364757D01*
X207958027Y-192364757D02*
X208029455Y-192436185D01*
X208029455Y-192436185D02*
X208100884Y-192579042D01*
X208100884Y-192579042D02*
X208100884Y-192721900D01*
X208100884Y-192721900D02*
X208029455Y-192936185D01*
X208029455Y-192936185D02*
X207172312Y-193793328D01*
X207172312Y-193793328D02*
X208100884Y-193793328D01*
X209029455Y-192293328D02*
X209172312Y-192293328D01*
X209172312Y-192293328D02*
X209315169Y-192364757D01*
X209315169Y-192364757D02*
X209386598Y-192436185D01*
X209386598Y-192436185D02*
X209458026Y-192579042D01*
X209458026Y-192579042D02*
X209529455Y-192864757D01*
X209529455Y-192864757D02*
X209529455Y-193221900D01*
X209529455Y-193221900D02*
X209458026Y-193507614D01*
X209458026Y-193507614D02*
X209386598Y-193650471D01*
X209386598Y-193650471D02*
X209315169Y-193721900D01*
X209315169Y-193721900D02*
X209172312Y-193793328D01*
X209172312Y-193793328D02*
X209029455Y-193793328D01*
X209029455Y-193793328D02*
X208886598Y-193721900D01*
X208886598Y-193721900D02*
X208815169Y-193650471D01*
X208815169Y-193650471D02*
X208743740Y-193507614D01*
X208743740Y-193507614D02*
X208672312Y-193221900D01*
X208672312Y-193221900D02*
X208672312Y-192864757D01*
X208672312Y-192864757D02*
X208743740Y-192579042D01*
X208743740Y-192579042D02*
X208815169Y-192436185D01*
X208815169Y-192436185D02*
X208886598Y-192364757D01*
X208886598Y-192364757D02*
X209029455Y-192293328D01*
X210100883Y-192436185D02*
X210172311Y-192364757D01*
X210172311Y-192364757D02*
X210315169Y-192293328D01*
X210315169Y-192293328D02*
X210672311Y-192293328D01*
X210672311Y-192293328D02*
X210815169Y-192364757D01*
X210815169Y-192364757D02*
X210886597Y-192436185D01*
X210886597Y-192436185D02*
X210958026Y-192579042D01*
X210958026Y-192579042D02*
X210958026Y-192721900D01*
X210958026Y-192721900D02*
X210886597Y-192936185D01*
X210886597Y-192936185D02*
X210029454Y-193793328D01*
X210029454Y-193793328D02*
X210958026Y-193793328D01*
X212315168Y-192293328D02*
X211600882Y-192293328D01*
X211600882Y-192293328D02*
X211529454Y-193007614D01*
X211529454Y-193007614D02*
X211600882Y-192936185D01*
X211600882Y-192936185D02*
X211743740Y-192864757D01*
X211743740Y-192864757D02*
X212100882Y-192864757D01*
X212100882Y-192864757D02*
X212243740Y-192936185D01*
X212243740Y-192936185D02*
X212315168Y-193007614D01*
X212315168Y-193007614D02*
X212386597Y-193150471D01*
X212386597Y-193150471D02*
X212386597Y-193507614D01*
X212386597Y-193507614D02*
X212315168Y-193650471D01*
X212315168Y-193650471D02*
X212243740Y-193721900D01*
X212243740Y-193721900D02*
X212100882Y-193793328D01*
X212100882Y-193793328D02*
X211743740Y-193793328D01*
X211743740Y-193793328D02*
X211600882Y-193721900D01*
X211600882Y-193721900D02*
X211529454Y-193650471D01*
X213029453Y-193221900D02*
X214172311Y-193221900D01*
X215672311Y-193793328D02*
X214815168Y-193793328D01*
X215243739Y-193793328D02*
X215243739Y-192293328D01*
X215243739Y-192293328D02*
X215100882Y-192507614D01*
X215100882Y-192507614D02*
X214958025Y-192650471D01*
X214958025Y-192650471D02*
X214815168Y-192721900D01*
X217100882Y-193793328D02*
X216243739Y-193793328D01*
X216672310Y-193793328D02*
X216672310Y-192293328D01*
X216672310Y-192293328D02*
X216529453Y-192507614D01*
X216529453Y-192507614D02*
X216386596Y-192650471D01*
X216386596Y-192650471D02*
X216243739Y-192721900D01*
X217743738Y-193221900D02*
X218886596Y-193221900D01*
X220386596Y-193793328D02*
X219529453Y-193793328D01*
X219958024Y-193793328D02*
X219958024Y-192293328D01*
X219958024Y-192293328D02*
X219815167Y-192507614D01*
X219815167Y-192507614D02*
X219672310Y-192650471D01*
X219672310Y-192650471D02*
X219529453Y-192721900D01*
X221815167Y-193793328D02*
X220958024Y-193793328D01*
X221386595Y-193793328D02*
X221386595Y-192293328D01*
X221386595Y-192293328D02*
X221243738Y-192507614D01*
X221243738Y-192507614D02*
X221100881Y-192650471D01*
X221100881Y-192650471D02*
X220958024Y-192721900D01*
D10*
D11*
X177002200Y-194507200D02*
X285002200Y-194507200D01*
D10*
D11*
X178458026Y-196593328D02*
X178458026Y-195093328D01*
X179315169Y-196593328D02*
X178672312Y-195736185D01*
X179315169Y-195093328D02*
X178458026Y-195950471D01*
X179958026Y-196593328D02*
X179958026Y-195593328D01*
X179958026Y-195093328D02*
X179886598Y-195164757D01*
X179886598Y-195164757D02*
X179958026Y-195236185D01*
X179958026Y-195236185D02*
X180029455Y-195164757D01*
X180029455Y-195164757D02*
X179958026Y-195093328D01*
X179958026Y-195093328D02*
X179958026Y-195236185D01*
X181529455Y-196450471D02*
X181458027Y-196521900D01*
X181458027Y-196521900D02*
X181243741Y-196593328D01*
X181243741Y-196593328D02*
X181100884Y-196593328D01*
X181100884Y-196593328D02*
X180886598Y-196521900D01*
X180886598Y-196521900D02*
X180743741Y-196379042D01*
X180743741Y-196379042D02*
X180672312Y-196236185D01*
X180672312Y-196236185D02*
X180600884Y-195950471D01*
X180600884Y-195950471D02*
X180600884Y-195736185D01*
X180600884Y-195736185D02*
X180672312Y-195450471D01*
X180672312Y-195450471D02*
X180743741Y-195307614D01*
X180743741Y-195307614D02*
X180886598Y-195164757D01*
X180886598Y-195164757D02*
X181100884Y-195093328D01*
X181100884Y-195093328D02*
X181243741Y-195093328D01*
X181243741Y-195093328D02*
X181458027Y-195164757D01*
X181458027Y-195164757D02*
X181529455Y-195236185D01*
X182815170Y-196593328D02*
X182815170Y-195807614D01*
X182815170Y-195807614D02*
X182743741Y-195664757D01*
X182743741Y-195664757D02*
X182600884Y-195593328D01*
X182600884Y-195593328D02*
X182315170Y-195593328D01*
X182315170Y-195593328D02*
X182172312Y-195664757D01*
X182815170Y-196521900D02*
X182672312Y-196593328D01*
X182672312Y-196593328D02*
X182315170Y-196593328D01*
X182315170Y-196593328D02*
X182172312Y-196521900D01*
X182172312Y-196521900D02*
X182100884Y-196379042D01*
X182100884Y-196379042D02*
X182100884Y-196236185D01*
X182100884Y-196236185D02*
X182172312Y-196093328D01*
X182172312Y-196093328D02*
X182315170Y-196021900D01*
X182315170Y-196021900D02*
X182672312Y-196021900D01*
X182672312Y-196021900D02*
X182815170Y-195950471D01*
X184172313Y-196593328D02*
X184172313Y-195093328D01*
X184172313Y-196521900D02*
X184029455Y-196593328D01*
X184029455Y-196593328D02*
X183743741Y-196593328D01*
X183743741Y-196593328D02*
X183600884Y-196521900D01*
X183600884Y-196521900D02*
X183529455Y-196450471D01*
X183529455Y-196450471D02*
X183458027Y-196307614D01*
X183458027Y-196307614D02*
X183458027Y-195879042D01*
X183458027Y-195879042D02*
X183529455Y-195736185D01*
X183529455Y-195736185D02*
X183600884Y-195664757D01*
X183600884Y-195664757D02*
X183743741Y-195593328D01*
X183743741Y-195593328D02*
X184029455Y-195593328D01*
X184029455Y-195593328D02*
X184172313Y-195664757D01*
X186029455Y-195807614D02*
X186529455Y-195807614D01*
X186743741Y-196593328D02*
X186029455Y-196593328D01*
X186029455Y-196593328D02*
X186029455Y-195093328D01*
X186029455Y-195093328D02*
X186743741Y-195093328D01*
X187386598Y-196450471D02*
X187458027Y-196521900D01*
X187458027Y-196521900D02*
X187386598Y-196593328D01*
X187386598Y-196593328D02*
X187315170Y-196521900D01*
X187315170Y-196521900D02*
X187386598Y-196450471D01*
X187386598Y-196450471D02*
X187386598Y-196593328D01*
X188100884Y-196593328D02*
X188100884Y-195093328D01*
X188100884Y-195093328D02*
X188458027Y-195093328D01*
X188458027Y-195093328D02*
X188672313Y-195164757D01*
X188672313Y-195164757D02*
X188815170Y-195307614D01*
X188815170Y-195307614D02*
X188886599Y-195450471D01*
X188886599Y-195450471D02*
X188958027Y-195736185D01*
X188958027Y-195736185D02*
X188958027Y-195950471D01*
X188958027Y-195950471D02*
X188886599Y-196236185D01*
X188886599Y-196236185D02*
X188815170Y-196379042D01*
X188815170Y-196379042D02*
X188672313Y-196521900D01*
X188672313Y-196521900D02*
X188458027Y-196593328D01*
X188458027Y-196593328D02*
X188100884Y-196593328D01*
X189600884Y-196450471D02*
X189672313Y-196521900D01*
X189672313Y-196521900D02*
X189600884Y-196593328D01*
X189600884Y-196593328D02*
X189529456Y-196521900D01*
X189529456Y-196521900D02*
X189600884Y-196450471D01*
X189600884Y-196450471D02*
X189600884Y-196593328D01*
X190243742Y-196164757D02*
X190958028Y-196164757D01*
X190100885Y-196593328D02*
X190600885Y-195093328D01*
X190600885Y-195093328D02*
X191100885Y-196593328D01*
X191600884Y-196450471D02*
X191672313Y-196521900D01*
X191672313Y-196521900D02*
X191600884Y-196593328D01*
X191600884Y-196593328D02*
X191529456Y-196521900D01*
X191529456Y-196521900D02*
X191600884Y-196450471D01*
X191600884Y-196450471D02*
X191600884Y-196593328D01*
X193529456Y-196593328D02*
X193815170Y-196593328D01*
X193815170Y-196593328D02*
X193958027Y-196521900D01*
X193958027Y-196521900D02*
X194029456Y-196450471D01*
X194029456Y-196450471D02*
X194172313Y-196236185D01*
X194172313Y-196236185D02*
X194243742Y-195950471D01*
X194243742Y-195950471D02*
X194243742Y-195379042D01*
X194243742Y-195379042D02*
X194172313Y-195236185D01*
X194172313Y-195236185D02*
X194100885Y-195164757D01*
X194100885Y-195164757D02*
X193958027Y-195093328D01*
X193958027Y-195093328D02*
X193672313Y-195093328D01*
X193672313Y-195093328D02*
X193529456Y-195164757D01*
X193529456Y-195164757D02*
X193458027Y-195236185D01*
X193458027Y-195236185D02*
X193386599Y-195379042D01*
X193386599Y-195379042D02*
X193386599Y-195736185D01*
X193386599Y-195736185D02*
X193458027Y-195879042D01*
X193458027Y-195879042D02*
X193529456Y-195950471D01*
X193529456Y-195950471D02*
X193672313Y-196021900D01*
X193672313Y-196021900D02*
X193958027Y-196021900D01*
X193958027Y-196021900D02*
X194100885Y-195950471D01*
X194100885Y-195950471D02*
X194172313Y-195879042D01*
X194172313Y-195879042D02*
X194243742Y-195736185D01*
X194886598Y-196450471D02*
X194958027Y-196521900D01*
X194958027Y-196521900D02*
X194886598Y-196593328D01*
X194886598Y-196593328D02*
X194815170Y-196521900D01*
X194815170Y-196521900D02*
X194886598Y-196450471D01*
X194886598Y-196450471D02*
X194886598Y-196593328D01*
X195886599Y-195093328D02*
X196029456Y-195093328D01*
X196029456Y-195093328D02*
X196172313Y-195164757D01*
X196172313Y-195164757D02*
X196243742Y-195236185D01*
X196243742Y-195236185D02*
X196315170Y-195379042D01*
X196315170Y-195379042D02*
X196386599Y-195664757D01*
X196386599Y-195664757D02*
X196386599Y-196021900D01*
X196386599Y-196021900D02*
X196315170Y-196307614D01*
X196315170Y-196307614D02*
X196243742Y-196450471D01*
X196243742Y-196450471D02*
X196172313Y-196521900D01*
X196172313Y-196521900D02*
X196029456Y-196593328D01*
X196029456Y-196593328D02*
X195886599Y-196593328D01*
X195886599Y-196593328D02*
X195743742Y-196521900D01*
X195743742Y-196521900D02*
X195672313Y-196450471D01*
X195672313Y-196450471D02*
X195600884Y-196307614D01*
X195600884Y-196307614D02*
X195529456Y-196021900D01*
X195529456Y-196021900D02*
X195529456Y-195664757D01*
X195529456Y-195664757D02*
X195600884Y-195379042D01*
X195600884Y-195379042D02*
X195672313Y-195236185D01*
X195672313Y-195236185D02*
X195743742Y-195164757D01*
X195743742Y-195164757D02*
X195886599Y-195093328D01*
X197029455Y-196450471D02*
X197100884Y-196521900D01*
X197100884Y-196521900D02*
X197029455Y-196593328D01*
X197029455Y-196593328D02*
X196958027Y-196521900D01*
X196958027Y-196521900D02*
X197029455Y-196450471D01*
X197029455Y-196450471D02*
X197029455Y-196593328D01*
X198529456Y-196593328D02*
X197672313Y-196593328D01*
X198100884Y-196593328D02*
X198100884Y-195093328D01*
X198100884Y-195093328D02*
X197958027Y-195307614D01*
X197958027Y-195307614D02*
X197815170Y-195450471D01*
X197815170Y-195450471D02*
X197672313Y-195521900D01*
D10*
D11*
X177002200Y-191507200D02*
X285002200Y-191507200D01*
D10*
D12*
X264413853Y-193785528D02*
X263913853Y-193071242D01*
X263556710Y-193785528D02*
X263556710Y-192285528D01*
X263556710Y-192285528D02*
X264128139Y-192285528D01*
X264128139Y-192285528D02*
X264270996Y-192356957D01*
X264270996Y-192356957D02*
X264342425Y-192428385D01*
X264342425Y-192428385D02*
X264413853Y-192571242D01*
X264413853Y-192571242D02*
X264413853Y-192785528D01*
X264413853Y-192785528D02*
X264342425Y-192928385D01*
X264342425Y-192928385D02*
X264270996Y-192999814D01*
X264270996Y-192999814D02*
X264128139Y-193071242D01*
X264128139Y-193071242D02*
X263556710Y-193071242D01*
X265628139Y-193714100D02*
X265485282Y-193785528D01*
X265485282Y-193785528D02*
X265199568Y-193785528D01*
X265199568Y-193785528D02*
X265056710Y-193714100D01*
X265056710Y-193714100D02*
X264985282Y-193571242D01*
X264985282Y-193571242D02*
X264985282Y-192999814D01*
X264985282Y-192999814D02*
X265056710Y-192856957D01*
X265056710Y-192856957D02*
X265199568Y-192785528D01*
X265199568Y-192785528D02*
X265485282Y-192785528D01*
X265485282Y-192785528D02*
X265628139Y-192856957D01*
X265628139Y-192856957D02*
X265699568Y-192999814D01*
X265699568Y-192999814D02*
X265699568Y-193142671D01*
X265699568Y-193142671D02*
X264985282Y-193285528D01*
X266199567Y-192785528D02*
X266556710Y-193785528D01*
X266556710Y-193785528D02*
X266913853Y-192785528D01*
X267485281Y-193642671D02*
X267556710Y-193714100D01*
X267556710Y-193714100D02*
X267485281Y-193785528D01*
X267485281Y-193785528D02*
X267413853Y-193714100D01*
X267413853Y-193714100D02*
X267485281Y-193642671D01*
X267485281Y-193642671D02*
X267485281Y-193785528D01*
X267485281Y-192856957D02*
X267556710Y-192928385D01*
X267556710Y-192928385D02*
X267485281Y-192999814D01*
X267485281Y-192999814D02*
X267413853Y-192928385D01*
X267413853Y-192928385D02*
X267485281Y-192856957D01*
X267485281Y-192856957D02*
X267485281Y-192999814D01*
X269628139Y-192285528D02*
X269770996Y-192285528D01*
X269770996Y-192285528D02*
X269913853Y-192356957D01*
X269913853Y-192356957D02*
X269985282Y-192428385D01*
X269985282Y-192428385D02*
X270056710Y-192571242D01*
X270056710Y-192571242D02*
X270128139Y-192856957D01*
X270128139Y-192856957D02*
X270128139Y-193214100D01*
X270128139Y-193214100D02*
X270056710Y-193499814D01*
X270056710Y-193499814D02*
X269985282Y-193642671D01*
X269985282Y-193642671D02*
X269913853Y-193714100D01*
X269913853Y-193714100D02*
X269770996Y-193785528D01*
X269770996Y-193785528D02*
X269628139Y-193785528D01*
X269628139Y-193785528D02*
X269485282Y-193714100D01*
X269485282Y-193714100D02*
X269413853Y-193642671D01*
X269413853Y-193642671D02*
X269342424Y-193499814D01*
X269342424Y-193499814D02*
X269270996Y-193214100D01*
X269270996Y-193214100D02*
X269270996Y-192856957D01*
X269270996Y-192856957D02*
X269342424Y-192571242D01*
X269342424Y-192571242D02*
X269413853Y-192428385D01*
X269413853Y-192428385D02*
X269485282Y-192356957D01*
X269485282Y-192356957D02*
X269628139Y-192285528D01*
X270770995Y-193642671D02*
X270842424Y-193714100D01*
X270842424Y-193714100D02*
X270770995Y-193785528D01*
X270770995Y-193785528D02*
X270699567Y-193714100D01*
X270699567Y-193714100D02*
X270770995Y-193642671D01*
X270770995Y-193642671D02*
X270770995Y-193785528D01*
X271342424Y-192285528D02*
X272270996Y-192285528D01*
X272270996Y-192285528D02*
X271770996Y-192856957D01*
X271770996Y-192856957D02*
X271985281Y-192856957D01*
X271985281Y-192856957D02*
X272128139Y-192928385D01*
X272128139Y-192928385D02*
X272199567Y-192999814D01*
X272199567Y-192999814D02*
X272270996Y-193142671D01*
X272270996Y-193142671D02*
X272270996Y-193499814D01*
X272270996Y-193499814D02*
X272199567Y-193642671D01*
X272199567Y-193642671D02*
X272128139Y-193714100D01*
X272128139Y-193714100D02*
X271985281Y-193785528D01*
X271985281Y-193785528D02*
X271556710Y-193785528D01*
X271556710Y-193785528D02*
X271413853Y-193714100D01*
X271413853Y-193714100D02*
X271342424Y-193642671D01*
X273556710Y-193785528D02*
X273556710Y-192999814D01*
X273556710Y-192999814D02*
X273485281Y-192856957D01*
X273485281Y-192856957D02*
X273342424Y-192785528D01*
X273342424Y-192785528D02*
X273056710Y-192785528D01*
X273056710Y-192785528D02*
X272913852Y-192856957D01*
X273556710Y-193714100D02*
X273413852Y-193785528D01*
X273413852Y-193785528D02*
X273056710Y-193785528D01*
X273056710Y-193785528D02*
X272913852Y-193714100D01*
X272913852Y-193714100D02*
X272842424Y-193571242D01*
X272842424Y-193571242D02*
X272842424Y-193428385D01*
X272842424Y-193428385D02*
X272913852Y-193285528D01*
X272913852Y-193285528D02*
X273056710Y-193214100D01*
X273056710Y-193214100D02*
X273413852Y-193214100D01*
X273413852Y-193214100D02*
X273556710Y-193142671D01*
D10*
D11*
X178386598Y-193721900D02*
X178600884Y-193793328D01*
X178600884Y-193793328D02*
X178958026Y-193793328D01*
X178958026Y-193793328D02*
X179100884Y-193721900D01*
X179100884Y-193721900D02*
X179172312Y-193650471D01*
X179172312Y-193650471D02*
X179243741Y-193507614D01*
X179243741Y-193507614D02*
X179243741Y-193364757D01*
X179243741Y-193364757D02*
X179172312Y-193221900D01*
X179172312Y-193221900D02*
X179100884Y-193150471D01*
X179100884Y-193150471D02*
X178958026Y-193079042D01*
X178958026Y-193079042D02*
X178672312Y-193007614D01*
X178672312Y-193007614D02*
X178529455Y-192936185D01*
X178529455Y-192936185D02*
X178458026Y-192864757D01*
X178458026Y-192864757D02*
X178386598Y-192721900D01*
X178386598Y-192721900D02*
X178386598Y-192579042D01*
X178386598Y-192579042D02*
X178458026Y-192436185D01*
X178458026Y-192436185D02*
X178529455Y-192364757D01*
X178529455Y-192364757D02*
X178672312Y-192293328D01*
X178672312Y-192293328D02*
X179029455Y-192293328D01*
X179029455Y-192293328D02*
X179243741Y-192364757D01*
X179886597Y-193793328D02*
X179886597Y-192793328D01*
X179886597Y-192293328D02*
X179815169Y-192364757D01*
X179815169Y-192364757D02*
X179886597Y-192436185D01*
X179886597Y-192436185D02*
X179958026Y-192364757D01*
X179958026Y-192364757D02*
X179886597Y-192293328D01*
X179886597Y-192293328D02*
X179886597Y-192436185D01*
X180458026Y-192793328D02*
X181243741Y-192793328D01*
X181243741Y-192793328D02*
X180458026Y-193793328D01*
X180458026Y-193793328D02*
X181243741Y-193793328D01*
X182386598Y-193721900D02*
X182243741Y-193793328D01*
X182243741Y-193793328D02*
X181958027Y-193793328D01*
X181958027Y-193793328D02*
X181815169Y-193721900D01*
X181815169Y-193721900D02*
X181743741Y-193579042D01*
X181743741Y-193579042D02*
X181743741Y-193007614D01*
X181743741Y-193007614D02*
X181815169Y-192864757D01*
X181815169Y-192864757D02*
X181958027Y-192793328D01*
X181958027Y-192793328D02*
X182243741Y-192793328D01*
X182243741Y-192793328D02*
X182386598Y-192864757D01*
X182386598Y-192864757D02*
X182458027Y-193007614D01*
X182458027Y-193007614D02*
X182458027Y-193150471D01*
X182458027Y-193150471D02*
X181743741Y-193293328D01*
X183100883Y-193650471D02*
X183172312Y-193721900D01*
X183172312Y-193721900D02*
X183100883Y-193793328D01*
X183100883Y-193793328D02*
X183029455Y-193721900D01*
X183029455Y-193721900D02*
X183100883Y-193650471D01*
X183100883Y-193650471D02*
X183100883Y-193793328D01*
X183100883Y-192864757D02*
X183172312Y-192936185D01*
X183172312Y-192936185D02*
X183100883Y-193007614D01*
X183100883Y-193007614D02*
X183029455Y-192936185D01*
X183029455Y-192936185D02*
X183100883Y-192864757D01*
X183100883Y-192864757D02*
X183100883Y-193007614D01*
X184886598Y-193364757D02*
X185600884Y-193364757D01*
X184743741Y-193793328D02*
X185243741Y-192293328D01*
X185243741Y-192293328D02*
X185743741Y-193793328D01*
X186886598Y-192793328D02*
X186886598Y-193793328D01*
X186529455Y-192221900D02*
X186172312Y-193293328D01*
X186172312Y-193293328D02*
X187100883Y-193293328D01*
D10*
D11*
X263458026Y-196593328D02*
X263458026Y-195093328D01*
X264815170Y-196593328D02*
X264815170Y-195093328D01*
X264815170Y-196521900D02*
X264672312Y-196593328D01*
X264672312Y-196593328D02*
X264386598Y-196593328D01*
X264386598Y-196593328D02*
X264243741Y-196521900D01*
X264243741Y-196521900D02*
X264172312Y-196450471D01*
X264172312Y-196450471D02*
X264100884Y-196307614D01*
X264100884Y-196307614D02*
X264100884Y-195879042D01*
X264100884Y-195879042D02*
X264172312Y-195736185D01*
X264172312Y-195736185D02*
X264243741Y-195664757D01*
X264243741Y-195664757D02*
X264386598Y-195593328D01*
X264386598Y-195593328D02*
X264672312Y-195593328D01*
X264672312Y-195593328D02*
X264815170Y-195664757D01*
X265529455Y-196450471D02*
X265600884Y-196521900D01*
X265600884Y-196521900D02*
X265529455Y-196593328D01*
X265529455Y-196593328D02*
X265458027Y-196521900D01*
X265458027Y-196521900D02*
X265529455Y-196450471D01*
X265529455Y-196450471D02*
X265529455Y-196593328D01*
X265529455Y-195664757D02*
X265600884Y-195736185D01*
X265600884Y-195736185D02*
X265529455Y-195807614D01*
X265529455Y-195807614D02*
X265458027Y-195736185D01*
X265458027Y-195736185D02*
X265529455Y-195664757D01*
X265529455Y-195664757D02*
X265529455Y-195807614D01*
X268029456Y-195093328D02*
X267743741Y-195093328D01*
X267743741Y-195093328D02*
X267600884Y-195164757D01*
X267600884Y-195164757D02*
X267529456Y-195236185D01*
X267529456Y-195236185D02*
X267386598Y-195450471D01*
X267386598Y-195450471D02*
X267315170Y-195736185D01*
X267315170Y-195736185D02*
X267315170Y-196307614D01*
X267315170Y-196307614D02*
X267386598Y-196450471D01*
X267386598Y-196450471D02*
X267458027Y-196521900D01*
X267458027Y-196521900D02*
X267600884Y-196593328D01*
X267600884Y-196593328D02*
X267886598Y-196593328D01*
X267886598Y-196593328D02*
X268029456Y-196521900D01*
X268029456Y-196521900D02*
X268100884Y-196450471D01*
X268100884Y-196450471D02*
X268172313Y-196307614D01*
X268172313Y-196307614D02*
X268172313Y-195950471D01*
X268172313Y-195950471D02*
X268100884Y-195807614D01*
X268100884Y-195807614D02*
X268029456Y-195736185D01*
X268029456Y-195736185D02*
X267886598Y-195664757D01*
X267886598Y-195664757D02*
X267600884Y-195664757D01*
X267600884Y-195664757D02*
X267458027Y-195736185D01*
X267458027Y-195736185D02*
X267386598Y-195807614D01*
X267386598Y-195807614D02*
X267315170Y-195950471D01*
X269886598Y-195021900D02*
X268600884Y-196950471D01*
X270458027Y-196593328D02*
X270743741Y-196593328D01*
X270743741Y-196593328D02*
X270886598Y-196521900D01*
X270886598Y-196521900D02*
X270958027Y-196450471D01*
X270958027Y-196450471D02*
X271100884Y-196236185D01*
X271100884Y-196236185D02*
X271172313Y-195950471D01*
X271172313Y-195950471D02*
X271172313Y-195379042D01*
X271172313Y-195379042D02*
X271100884Y-195236185D01*
X271100884Y-195236185D02*
X271029456Y-195164757D01*
X271029456Y-195164757D02*
X270886598Y-195093328D01*
X270886598Y-195093328D02*
X270600884Y-195093328D01*
X270600884Y-195093328D02*
X270458027Y-195164757D01*
X270458027Y-195164757D02*
X270386598Y-195236185D01*
X270386598Y-195236185D02*
X270315170Y-195379042D01*
X270315170Y-195379042D02*
X270315170Y-195736185D01*
X270315170Y-195736185D02*
X270386598Y-195879042D01*
X270386598Y-195879042D02*
X270458027Y-195950471D01*
X270458027Y-195950471D02*
X270600884Y-196021900D01*
X270600884Y-196021900D02*
X270886598Y-196021900D01*
X270886598Y-196021900D02*
X271029456Y-195950471D01*
X271029456Y-195950471D02*
X271100884Y-195879042D01*
X271100884Y-195879042D02*
X271172313Y-195736185D01*
D10*
D11*
X177002200Y-187507200D02*
X285002200Y-187507200D01*
D10*
D13*
X178693928Y-188211638D02*
X179836785Y-188211638D01*
X179015357Y-190211638D02*
X179265357Y-188211638D01*
X180253452Y-190211638D02*
X180420119Y-188878304D01*
X180503452Y-188211638D02*
X180396309Y-188306876D01*
X180396309Y-188306876D02*
X180479643Y-188402114D01*
X180479643Y-188402114D02*
X180586786Y-188306876D01*
X180586786Y-188306876D02*
X180503452Y-188211638D01*
X180503452Y-188211638D02*
X180479643Y-188402114D01*
X181086786Y-188878304D02*
X181848690Y-188878304D01*
X181455833Y-188211638D02*
X181241548Y-189925923D01*
X181241548Y-189925923D02*
X181312976Y-190116400D01*
X181312976Y-190116400D02*
X181491548Y-190211638D01*
X181491548Y-190211638D02*
X181682024Y-190211638D01*
X182634405Y-190211638D02*
X182455833Y-190116400D01*
X182455833Y-190116400D02*
X182384405Y-189925923D01*
X182384405Y-189925923D02*
X182598690Y-188211638D01*
X184170119Y-190116400D02*
X183967738Y-190211638D01*
X183967738Y-190211638D02*
X183586785Y-190211638D01*
X183586785Y-190211638D02*
X183408214Y-190116400D01*
X183408214Y-190116400D02*
X183336785Y-189925923D01*
X183336785Y-189925923D02*
X183432024Y-189164019D01*
X183432024Y-189164019D02*
X183551071Y-188973542D01*
X183551071Y-188973542D02*
X183753452Y-188878304D01*
X183753452Y-188878304D02*
X184134404Y-188878304D01*
X184134404Y-188878304D02*
X184312976Y-188973542D01*
X184312976Y-188973542D02*
X184384404Y-189164019D01*
X184384404Y-189164019D02*
X184360595Y-189354495D01*
X184360595Y-189354495D02*
X183384404Y-189544971D01*
X185134405Y-190021161D02*
X185217738Y-190116400D01*
X185217738Y-190116400D02*
X185110595Y-190211638D01*
X185110595Y-190211638D02*
X185027262Y-190116400D01*
X185027262Y-190116400D02*
X185134405Y-190021161D01*
X185134405Y-190021161D02*
X185110595Y-190211638D01*
X185265357Y-188973542D02*
X185348690Y-189068780D01*
X185348690Y-189068780D02*
X185241548Y-189164019D01*
X185241548Y-189164019D02*
X185158214Y-189068780D01*
X185158214Y-189068780D02*
X185265357Y-188973542D01*
X185265357Y-188973542D02*
X185241548Y-189164019D01*
X188753453Y-190021161D02*
X188646310Y-190116400D01*
X188646310Y-190116400D02*
X188348691Y-190211638D01*
X188348691Y-190211638D02*
X188158215Y-190211638D01*
X188158215Y-190211638D02*
X187884405Y-190116400D01*
X187884405Y-190116400D02*
X187717739Y-189925923D01*
X187717739Y-189925923D02*
X187646310Y-189735447D01*
X187646310Y-189735447D02*
X187598691Y-189354495D01*
X187598691Y-189354495D02*
X187634405Y-189068780D01*
X187634405Y-189068780D02*
X187777262Y-188687828D01*
X187777262Y-188687828D02*
X187896310Y-188497352D01*
X187896310Y-188497352D02*
X188110596Y-188306876D01*
X188110596Y-188306876D02*
X188408215Y-188211638D01*
X188408215Y-188211638D02*
X188598691Y-188211638D01*
X188598691Y-188211638D02*
X188872501Y-188306876D01*
X188872501Y-188306876D02*
X188955834Y-188402114D01*
X190539167Y-190211638D02*
X189586786Y-190211638D01*
X189586786Y-190211638D02*
X189836786Y-188211638D01*
X191301072Y-189449733D02*
X192824882Y-189449733D01*
X194967739Y-188306876D02*
X194789167Y-188211638D01*
X194789167Y-188211638D02*
X194503453Y-188211638D01*
X194503453Y-188211638D02*
X194205834Y-188306876D01*
X194205834Y-188306876D02*
X193991548Y-188497352D01*
X193991548Y-188497352D02*
X193872500Y-188687828D01*
X193872500Y-188687828D02*
X193729643Y-189068780D01*
X193729643Y-189068780D02*
X193693929Y-189354495D01*
X193693929Y-189354495D02*
X193741548Y-189735447D01*
X193741548Y-189735447D02*
X193812977Y-189925923D01*
X193812977Y-189925923D02*
X193979643Y-190116400D01*
X193979643Y-190116400D02*
X194253453Y-190211638D01*
X194253453Y-190211638D02*
X194443929Y-190211638D01*
X194443929Y-190211638D02*
X194741548Y-190116400D01*
X194741548Y-190116400D02*
X194848691Y-190021161D01*
X194848691Y-190021161D02*
X194932024Y-189354495D01*
X194932024Y-189354495D02*
X194551072Y-189354495D01*
X195682024Y-190211638D02*
X195932024Y-188211638D01*
X195932024Y-188211638D02*
X196408215Y-188211638D01*
X196408215Y-188211638D02*
X196682024Y-188306876D01*
X196682024Y-188306876D02*
X196848691Y-188497352D01*
X196848691Y-188497352D02*
X196920119Y-188687828D01*
X196920119Y-188687828D02*
X196967739Y-189068780D01*
X196967739Y-189068780D02*
X196932024Y-189354495D01*
X196932024Y-189354495D02*
X196789167Y-189735447D01*
X196789167Y-189735447D02*
X196670119Y-189925923D01*
X196670119Y-189925923D02*
X196455834Y-190116400D01*
X196455834Y-190116400D02*
X196158215Y-190211638D01*
X196158215Y-190211638D02*
X195682024Y-190211638D01*
X198884405Y-188211638D02*
X197932024Y-188211638D01*
X197932024Y-188211638D02*
X197717739Y-189164019D01*
X197717739Y-189164019D02*
X197824881Y-189068780D01*
X197824881Y-189068780D02*
X198027262Y-188973542D01*
X198027262Y-188973542D02*
X198503453Y-188973542D01*
X198503453Y-188973542D02*
X198682024Y-189068780D01*
X198682024Y-189068780D02*
X198765358Y-189164019D01*
X198765358Y-189164019D02*
X198836786Y-189354495D01*
X198836786Y-189354495D02*
X198777262Y-189830685D01*
X198777262Y-189830685D02*
X198658215Y-190021161D01*
X198658215Y-190021161D02*
X198551072Y-190116400D01*
X198551072Y-190116400D02*
X198348691Y-190211638D01*
X198348691Y-190211638D02*
X197872500Y-190211638D01*
X197872500Y-190211638D02*
X197693929Y-190116400D01*
X197693929Y-190116400D02*
X197610596Y-190021161D01*
X200610596Y-188878304D02*
X200443929Y-190211638D01*
X200229643Y-188116400D02*
X199574881Y-189544971D01*
X199574881Y-189544971D02*
X200812977Y-189544971D01*
X201622501Y-188402114D02*
X201729643Y-188306876D01*
X201729643Y-188306876D02*
X201932024Y-188211638D01*
X201932024Y-188211638D02*
X202408215Y-188211638D01*
X202408215Y-188211638D02*
X202586786Y-188306876D01*
X202586786Y-188306876D02*
X202670120Y-188402114D01*
X202670120Y-188402114D02*
X202741548Y-188592590D01*
X202741548Y-188592590D02*
X202717739Y-188783066D01*
X202717739Y-188783066D02*
X202586786Y-189068780D01*
X202586786Y-189068780D02*
X201301072Y-190211638D01*
X201301072Y-190211638D02*
X202539167Y-190211638D01*
X203455834Y-188211638D02*
X204539167Y-190211638D01*
X204789167Y-188211638D02*
X203205834Y-190211638D01*
X206824882Y-190211638D02*
X207074882Y-188211638D01*
X207693930Y-190116400D02*
X207967739Y-190211638D01*
X207967739Y-190211638D02*
X208443930Y-190211638D01*
X208443930Y-190211638D02*
X208646311Y-190116400D01*
X208646311Y-190116400D02*
X208753454Y-190021161D01*
X208753454Y-190021161D02*
X208872501Y-189830685D01*
X208872501Y-189830685D02*
X208896311Y-189640209D01*
X208896311Y-189640209D02*
X208824882Y-189449733D01*
X208824882Y-189449733D02*
X208741549Y-189354495D01*
X208741549Y-189354495D02*
X208562978Y-189259257D01*
X208562978Y-189259257D02*
X208193930Y-189164019D01*
X208193930Y-189164019D02*
X208015358Y-189068780D01*
X208015358Y-189068780D02*
X207932025Y-188973542D01*
X207932025Y-188973542D02*
X207860597Y-188783066D01*
X207860597Y-188783066D02*
X207884406Y-188592590D01*
X207884406Y-188592590D02*
X208003454Y-188402114D01*
X208003454Y-188402114D02*
X208110597Y-188306876D01*
X208110597Y-188306876D02*
X208312978Y-188211638D01*
X208312978Y-188211638D02*
X208789168Y-188211638D01*
X208789168Y-188211638D02*
X209062978Y-188306876D01*
X209658216Y-189640209D02*
X210610597Y-189640209D01*
X209396311Y-190211638D02*
X210312978Y-188211638D01*
X210312978Y-188211638D02*
X210729644Y-190211638D01*
D10*
D11*
X178958026Y-185607614D02*
X178458026Y-185607614D01*
X178458026Y-186393328D02*
X178458026Y-184893328D01*
X178458026Y-184893328D02*
X179172312Y-184893328D01*
X179743740Y-186393328D02*
X179743740Y-185393328D01*
X179743740Y-184893328D02*
X179672312Y-184964757D01*
X179672312Y-184964757D02*
X179743740Y-185036185D01*
X179743740Y-185036185D02*
X179815169Y-184964757D01*
X179815169Y-184964757D02*
X179743740Y-184893328D01*
X179743740Y-184893328D02*
X179743740Y-185036185D01*
X180672312Y-186393328D02*
X180529455Y-186321900D01*
X180529455Y-186321900D02*
X180458026Y-186179042D01*
X180458026Y-186179042D02*
X180458026Y-184893328D01*
X181815169Y-186321900D02*
X181672312Y-186393328D01*
X181672312Y-186393328D02*
X181386598Y-186393328D01*
X181386598Y-186393328D02*
X181243740Y-186321900D01*
X181243740Y-186321900D02*
X181172312Y-186179042D01*
X181172312Y-186179042D02*
X181172312Y-185607614D01*
X181172312Y-185607614D02*
X181243740Y-185464757D01*
X181243740Y-185464757D02*
X181386598Y-185393328D01*
X181386598Y-185393328D02*
X181672312Y-185393328D01*
X181672312Y-185393328D02*
X181815169Y-185464757D01*
X181815169Y-185464757D02*
X181886598Y-185607614D01*
X181886598Y-185607614D02*
X181886598Y-185750471D01*
X181886598Y-185750471D02*
X181172312Y-185893328D01*
X182529454Y-186250471D02*
X182600883Y-186321900D01*
X182600883Y-186321900D02*
X182529454Y-186393328D01*
X182529454Y-186393328D02*
X182458026Y-186321900D01*
X182458026Y-186321900D02*
X182529454Y-186250471D01*
X182529454Y-186250471D02*
X182529454Y-186393328D01*
X182529454Y-185464757D02*
X182600883Y-185536185D01*
X182600883Y-185536185D02*
X182529454Y-185607614D01*
X182529454Y-185607614D02*
X182458026Y-185536185D01*
X182458026Y-185536185D02*
X182529454Y-185464757D01*
X182529454Y-185464757D02*
X182529454Y-185607614D01*
X185100883Y-184893328D02*
X184386597Y-184893328D01*
X184386597Y-184893328D02*
X184315169Y-185607614D01*
X184315169Y-185607614D02*
X184386597Y-185536185D01*
X184386597Y-185536185D02*
X184529455Y-185464757D01*
X184529455Y-185464757D02*
X184886597Y-185464757D01*
X184886597Y-185464757D02*
X185029455Y-185536185D01*
X185029455Y-185536185D02*
X185100883Y-185607614D01*
X185100883Y-185607614D02*
X185172312Y-185750471D01*
X185172312Y-185750471D02*
X185172312Y-186107614D01*
X185172312Y-186107614D02*
X185100883Y-186250471D01*
X185100883Y-186250471D02*
X185029455Y-186321900D01*
X185029455Y-186321900D02*
X184886597Y-186393328D01*
X184886597Y-186393328D02*
X184529455Y-186393328D01*
X184529455Y-186393328D02*
X184386597Y-186321900D01*
X184386597Y-186321900D02*
X184315169Y-186250471D01*
X186458026Y-185393328D02*
X186458026Y-186393328D01*
X186100883Y-184821900D02*
X185743740Y-185893328D01*
X185743740Y-185893328D02*
X186672311Y-185893328D01*
X187172311Y-185036185D02*
X187243739Y-184964757D01*
X187243739Y-184964757D02*
X187386597Y-184893328D01*
X187386597Y-184893328D02*
X187743739Y-184893328D01*
X187743739Y-184893328D02*
X187886597Y-184964757D01*
X187886597Y-184964757D02*
X187958025Y-185036185D01*
X187958025Y-185036185D02*
X188029454Y-185179042D01*
X188029454Y-185179042D02*
X188029454Y-185321900D01*
X188029454Y-185321900D02*
X187958025Y-185536185D01*
X187958025Y-185536185D02*
X187100882Y-186393328D01*
X187100882Y-186393328D02*
X188029454Y-186393328D01*
X188529453Y-186393328D02*
X189315168Y-185393328D01*
X188529453Y-185393328D02*
X189315168Y-186393328D01*
X189886596Y-186393328D02*
X189886596Y-184893328D01*
X190529454Y-186321900D02*
X190743740Y-186393328D01*
X190743740Y-186393328D02*
X191100882Y-186393328D01*
X191100882Y-186393328D02*
X191243740Y-186321900D01*
X191243740Y-186321900D02*
X191315168Y-186250471D01*
X191315168Y-186250471D02*
X191386597Y-186107614D01*
X191386597Y-186107614D02*
X191386597Y-185964757D01*
X191386597Y-185964757D02*
X191315168Y-185821900D01*
X191315168Y-185821900D02*
X191243740Y-185750471D01*
X191243740Y-185750471D02*
X191100882Y-185679042D01*
X191100882Y-185679042D02*
X190815168Y-185607614D01*
X190815168Y-185607614D02*
X190672311Y-185536185D01*
X190672311Y-185536185D02*
X190600882Y-185464757D01*
X190600882Y-185464757D02*
X190529454Y-185321900D01*
X190529454Y-185321900D02*
X190529454Y-185179042D01*
X190529454Y-185179042D02*
X190600882Y-185036185D01*
X190600882Y-185036185D02*
X190672311Y-184964757D01*
X190672311Y-184964757D02*
X190815168Y-184893328D01*
X190815168Y-184893328D02*
X191172311Y-184893328D01*
X191172311Y-184893328D02*
X191386597Y-184964757D01*
X191958025Y-185964757D02*
X192672311Y-185964757D01*
X191815168Y-186393328D02*
X192315168Y-184893328D01*
X192315168Y-184893328D02*
X192815168Y-186393328D01*
X193315167Y-186250471D02*
X193386596Y-186321900D01*
X193386596Y-186321900D02*
X193315167Y-186393328D01*
X193315167Y-186393328D02*
X193243739Y-186321900D01*
X193243739Y-186321900D02*
X193315167Y-186250471D01*
X193315167Y-186250471D02*
X193315167Y-186393328D01*
X194029453Y-186393328D02*
X194029453Y-184893328D01*
X194172311Y-185821900D02*
X194600882Y-186393328D01*
X194600882Y-185393328D02*
X194029453Y-185964757D01*
X195243739Y-186393328D02*
X195243739Y-185393328D01*
X195243739Y-184893328D02*
X195172311Y-184964757D01*
X195172311Y-184964757D02*
X195243739Y-185036185D01*
X195243739Y-185036185D02*
X195315168Y-184964757D01*
X195315168Y-184964757D02*
X195243739Y-184893328D01*
X195243739Y-184893328D02*
X195243739Y-185036185D01*
X196600883Y-186321900D02*
X196458025Y-186393328D01*
X196458025Y-186393328D02*
X196172311Y-186393328D01*
X196172311Y-186393328D02*
X196029454Y-186321900D01*
X196029454Y-186321900D02*
X195958025Y-186250471D01*
X195958025Y-186250471D02*
X195886597Y-186107614D01*
X195886597Y-186107614D02*
X195886597Y-185679042D01*
X195886597Y-185679042D02*
X195958025Y-185536185D01*
X195958025Y-185536185D02*
X196029454Y-185464757D01*
X196029454Y-185464757D02*
X196172311Y-185393328D01*
X196172311Y-185393328D02*
X196458025Y-185393328D01*
X196458025Y-185393328D02*
X196600883Y-185464757D01*
X197886597Y-186393328D02*
X197886597Y-185607614D01*
X197886597Y-185607614D02*
X197815168Y-185464757D01*
X197815168Y-185464757D02*
X197672311Y-185393328D01*
X197672311Y-185393328D02*
X197386597Y-185393328D01*
X197386597Y-185393328D02*
X197243739Y-185464757D01*
X197886597Y-186321900D02*
X197743739Y-186393328D01*
X197743739Y-186393328D02*
X197386597Y-186393328D01*
X197386597Y-186393328D02*
X197243739Y-186321900D01*
X197243739Y-186321900D02*
X197172311Y-186179042D01*
X197172311Y-186179042D02*
X197172311Y-186036185D01*
X197172311Y-186036185D02*
X197243739Y-185893328D01*
X197243739Y-185893328D02*
X197386597Y-185821900D01*
X197386597Y-185821900D02*
X197743739Y-185821900D01*
X197743739Y-185821900D02*
X197886597Y-185750471D01*
X199243740Y-186393328D02*
X199243740Y-184893328D01*
X199243740Y-186321900D02*
X199100882Y-186393328D01*
X199100882Y-186393328D02*
X198815168Y-186393328D01*
X198815168Y-186393328D02*
X198672311Y-186321900D01*
X198672311Y-186321900D02*
X198600882Y-186250471D01*
X198600882Y-186250471D02*
X198529454Y-186107614D01*
X198529454Y-186107614D02*
X198529454Y-185679042D01*
X198529454Y-185679042D02*
X198600882Y-185536185D01*
X198600882Y-185536185D02*
X198672311Y-185464757D01*
X198672311Y-185464757D02*
X198815168Y-185393328D01*
X198815168Y-185393328D02*
X199100882Y-185393328D01*
X199100882Y-185393328D02*
X199243740Y-185464757D01*
X199600883Y-186536185D02*
X200743740Y-186536185D01*
X201100882Y-185393328D02*
X201100882Y-186893328D01*
X201100882Y-185464757D02*
X201243740Y-185393328D01*
X201243740Y-185393328D02*
X201529454Y-185393328D01*
X201529454Y-185393328D02*
X201672311Y-185464757D01*
X201672311Y-185464757D02*
X201743740Y-185536185D01*
X201743740Y-185536185D02*
X201815168Y-185679042D01*
X201815168Y-185679042D02*
X201815168Y-186107614D01*
X201815168Y-186107614D02*
X201743740Y-186250471D01*
X201743740Y-186250471D02*
X201672311Y-186321900D01*
X201672311Y-186321900D02*
X201529454Y-186393328D01*
X201529454Y-186393328D02*
X201243740Y-186393328D01*
X201243740Y-186393328D02*
X201100882Y-186321900D01*
X203100883Y-186321900D02*
X202958025Y-186393328D01*
X202958025Y-186393328D02*
X202672311Y-186393328D01*
X202672311Y-186393328D02*
X202529454Y-186321900D01*
X202529454Y-186321900D02*
X202458025Y-186250471D01*
X202458025Y-186250471D02*
X202386597Y-186107614D01*
X202386597Y-186107614D02*
X202386597Y-185679042D01*
X202386597Y-185679042D02*
X202458025Y-185536185D01*
X202458025Y-185536185D02*
X202529454Y-185464757D01*
X202529454Y-185464757D02*
X202672311Y-185393328D01*
X202672311Y-185393328D02*
X202958025Y-185393328D01*
X202958025Y-185393328D02*
X203100883Y-185464757D01*
X203743739Y-186393328D02*
X203743739Y-184893328D01*
X203743739Y-185464757D02*
X203886597Y-185393328D01*
X203886597Y-185393328D02*
X204172311Y-185393328D01*
X204172311Y-185393328D02*
X204315168Y-185464757D01*
X204315168Y-185464757D02*
X204386597Y-185536185D01*
X204386597Y-185536185D02*
X204458025Y-185679042D01*
X204458025Y-185679042D02*
X204458025Y-186107614D01*
X204458025Y-186107614D02*
X204386597Y-186250471D01*
X204386597Y-186250471D02*
X204315168Y-186321900D01*
X204315168Y-186321900D02*
X204172311Y-186393328D01*
X204172311Y-186393328D02*
X203886597Y-186393328D01*
X203886597Y-186393328D02*
X203743739Y-186321900D01*
D10*
D11*
X177002200Y-181507200D02*
X285002200Y-181507200D01*
D10*
D11*
X178386598Y-183621900D02*
X178600884Y-183693328D01*
X178600884Y-183693328D02*
X178958026Y-183693328D01*
X178958026Y-183693328D02*
X179100884Y-183621900D01*
X179100884Y-183621900D02*
X179172312Y-183550471D01*
X179172312Y-183550471D02*
X179243741Y-183407614D01*
X179243741Y-183407614D02*
X179243741Y-183264757D01*
X179243741Y-183264757D02*
X179172312Y-183121900D01*
X179172312Y-183121900D02*
X179100884Y-183050471D01*
X179100884Y-183050471D02*
X178958026Y-182979042D01*
X178958026Y-182979042D02*
X178672312Y-182907614D01*
X178672312Y-182907614D02*
X178529455Y-182836185D01*
X178529455Y-182836185D02*
X178458026Y-182764757D01*
X178458026Y-182764757D02*
X178386598Y-182621900D01*
X178386598Y-182621900D02*
X178386598Y-182479042D01*
X178386598Y-182479042D02*
X178458026Y-182336185D01*
X178458026Y-182336185D02*
X178529455Y-182264757D01*
X178529455Y-182264757D02*
X178672312Y-182193328D01*
X178672312Y-182193328D02*
X179029455Y-182193328D01*
X179029455Y-182193328D02*
X179243741Y-182264757D01*
X179886597Y-183693328D02*
X179886597Y-182193328D01*
X180529455Y-183693328D02*
X180529455Y-182907614D01*
X180529455Y-182907614D02*
X180458026Y-182764757D01*
X180458026Y-182764757D02*
X180315169Y-182693328D01*
X180315169Y-182693328D02*
X180100883Y-182693328D01*
X180100883Y-182693328D02*
X179958026Y-182764757D01*
X179958026Y-182764757D02*
X179886597Y-182836185D01*
X181815169Y-183621900D02*
X181672312Y-183693328D01*
X181672312Y-183693328D02*
X181386598Y-183693328D01*
X181386598Y-183693328D02*
X181243740Y-183621900D01*
X181243740Y-183621900D02*
X181172312Y-183479042D01*
X181172312Y-183479042D02*
X181172312Y-182907614D01*
X181172312Y-182907614D02*
X181243740Y-182764757D01*
X181243740Y-182764757D02*
X181386598Y-182693328D01*
X181386598Y-182693328D02*
X181672312Y-182693328D01*
X181672312Y-182693328D02*
X181815169Y-182764757D01*
X181815169Y-182764757D02*
X181886598Y-182907614D01*
X181886598Y-182907614D02*
X181886598Y-183050471D01*
X181886598Y-183050471D02*
X181172312Y-183193328D01*
X183100883Y-183621900D02*
X182958026Y-183693328D01*
X182958026Y-183693328D02*
X182672312Y-183693328D01*
X182672312Y-183693328D02*
X182529454Y-183621900D01*
X182529454Y-183621900D02*
X182458026Y-183479042D01*
X182458026Y-183479042D02*
X182458026Y-182907614D01*
X182458026Y-182907614D02*
X182529454Y-182764757D01*
X182529454Y-182764757D02*
X182672312Y-182693328D01*
X182672312Y-182693328D02*
X182958026Y-182693328D01*
X182958026Y-182693328D02*
X183100883Y-182764757D01*
X183100883Y-182764757D02*
X183172312Y-182907614D01*
X183172312Y-182907614D02*
X183172312Y-183050471D01*
X183172312Y-183050471D02*
X182458026Y-183193328D01*
X183600883Y-182693328D02*
X184172311Y-182693328D01*
X183815168Y-182193328D02*
X183815168Y-183479042D01*
X183815168Y-183479042D02*
X183886597Y-183621900D01*
X183886597Y-183621900D02*
X184029454Y-183693328D01*
X184029454Y-183693328D02*
X184172311Y-183693328D01*
X184672311Y-183550471D02*
X184743740Y-183621900D01*
X184743740Y-183621900D02*
X184672311Y-183693328D01*
X184672311Y-183693328D02*
X184600883Y-183621900D01*
X184600883Y-183621900D02*
X184672311Y-183550471D01*
X184672311Y-183550471D02*
X184672311Y-183693328D01*
X184672311Y-182764757D02*
X184743740Y-182836185D01*
X184743740Y-182836185D02*
X184672311Y-182907614D01*
X184672311Y-182907614D02*
X184600883Y-182836185D01*
X184600883Y-182836185D02*
X184672311Y-182764757D01*
X184672311Y-182764757D02*
X184672311Y-182907614D01*
D10*
D12*
X179199568Y-180685528D02*
X179199568Y-179185528D01*
X179199568Y-180614100D02*
X179056710Y-180685528D01*
X179056710Y-180685528D02*
X178770996Y-180685528D01*
X178770996Y-180685528D02*
X178628139Y-180614100D01*
X178628139Y-180614100D02*
X178556710Y-180542671D01*
X178556710Y-180542671D02*
X178485282Y-180399814D01*
X178485282Y-180399814D02*
X178485282Y-179971242D01*
X178485282Y-179971242D02*
X178556710Y-179828385D01*
X178556710Y-179828385D02*
X178628139Y-179756957D01*
X178628139Y-179756957D02*
X178770996Y-179685528D01*
X178770996Y-179685528D02*
X179056710Y-179685528D01*
X179056710Y-179685528D02*
X179199568Y-179756957D01*
X180485282Y-180614100D02*
X180342425Y-180685528D01*
X180342425Y-180685528D02*
X180056711Y-180685528D01*
X180056711Y-180685528D02*
X179913853Y-180614100D01*
X179913853Y-180614100D02*
X179842425Y-180471242D01*
X179842425Y-180471242D02*
X179842425Y-179899814D01*
X179842425Y-179899814D02*
X179913853Y-179756957D01*
X179913853Y-179756957D02*
X180056711Y-179685528D01*
X180056711Y-179685528D02*
X180342425Y-179685528D01*
X180342425Y-179685528D02*
X180485282Y-179756957D01*
X180485282Y-179756957D02*
X180556711Y-179899814D01*
X180556711Y-179899814D02*
X180556711Y-180042671D01*
X180556711Y-180042671D02*
X179842425Y-180185528D01*
X181128139Y-180614100D02*
X181270996Y-180685528D01*
X181270996Y-180685528D02*
X181556710Y-180685528D01*
X181556710Y-180685528D02*
X181699567Y-180614100D01*
X181699567Y-180614100D02*
X181770996Y-180471242D01*
X181770996Y-180471242D02*
X181770996Y-180399814D01*
X181770996Y-180399814D02*
X181699567Y-180256957D01*
X181699567Y-180256957D02*
X181556710Y-180185528D01*
X181556710Y-180185528D02*
X181342425Y-180185528D01*
X181342425Y-180185528D02*
X181199567Y-180114100D01*
X181199567Y-180114100D02*
X181128139Y-179971242D01*
X181128139Y-179971242D02*
X181128139Y-179899814D01*
X181128139Y-179899814D02*
X181199567Y-179756957D01*
X181199567Y-179756957D02*
X181342425Y-179685528D01*
X181342425Y-179685528D02*
X181556710Y-179685528D01*
X181556710Y-179685528D02*
X181699567Y-179756957D01*
X182413853Y-180685528D02*
X182413853Y-179685528D01*
X182413853Y-179185528D02*
X182342425Y-179256957D01*
X182342425Y-179256957D02*
X182413853Y-179328385D01*
X182413853Y-179328385D02*
X182485282Y-179256957D01*
X182485282Y-179256957D02*
X182413853Y-179185528D01*
X182413853Y-179185528D02*
X182413853Y-179328385D01*
X183770997Y-179685528D02*
X183770997Y-180899814D01*
X183770997Y-180899814D02*
X183699568Y-181042671D01*
X183699568Y-181042671D02*
X183628139Y-181114100D01*
X183628139Y-181114100D02*
X183485282Y-181185528D01*
X183485282Y-181185528D02*
X183270997Y-181185528D01*
X183270997Y-181185528D02*
X183128139Y-181114100D01*
X183770997Y-180614100D02*
X183628139Y-180685528D01*
X183628139Y-180685528D02*
X183342425Y-180685528D01*
X183342425Y-180685528D02*
X183199568Y-180614100D01*
X183199568Y-180614100D02*
X183128139Y-180542671D01*
X183128139Y-180542671D02*
X183056711Y-180399814D01*
X183056711Y-180399814D02*
X183056711Y-179971242D01*
X183056711Y-179971242D02*
X183128139Y-179828385D01*
X183128139Y-179828385D02*
X183199568Y-179756957D01*
X183199568Y-179756957D02*
X183342425Y-179685528D01*
X183342425Y-179685528D02*
X183628139Y-179685528D01*
X183628139Y-179685528D02*
X183770997Y-179756957D01*
X184485282Y-179685528D02*
X184485282Y-180685528D01*
X184485282Y-179828385D02*
X184556711Y-179756957D01*
X184556711Y-179756957D02*
X184699568Y-179685528D01*
X184699568Y-179685528D02*
X184913854Y-179685528D01*
X184913854Y-179685528D02*
X185056711Y-179756957D01*
X185056711Y-179756957D02*
X185128140Y-179899814D01*
X185128140Y-179899814D02*
X185128140Y-180685528D01*
X186413854Y-180614100D02*
X186270997Y-180685528D01*
X186270997Y-180685528D02*
X185985283Y-180685528D01*
X185985283Y-180685528D02*
X185842425Y-180614100D01*
X185842425Y-180614100D02*
X185770997Y-180471242D01*
X185770997Y-180471242D02*
X185770997Y-179899814D01*
X185770997Y-179899814D02*
X185842425Y-179756957D01*
X185842425Y-179756957D02*
X185985283Y-179685528D01*
X185985283Y-179685528D02*
X186270997Y-179685528D01*
X186270997Y-179685528D02*
X186413854Y-179756957D01*
X186413854Y-179756957D02*
X186485283Y-179899814D01*
X186485283Y-179899814D02*
X186485283Y-180042671D01*
X186485283Y-180042671D02*
X185770997Y-180185528D01*
X187770997Y-180685528D02*
X187770997Y-179185528D01*
X187770997Y-180614100D02*
X187628139Y-180685528D01*
X187628139Y-180685528D02*
X187342425Y-180685528D01*
X187342425Y-180685528D02*
X187199568Y-180614100D01*
X187199568Y-180614100D02*
X187128139Y-180542671D01*
X187128139Y-180542671D02*
X187056711Y-180399814D01*
X187056711Y-180399814D02*
X187056711Y-179971242D01*
X187056711Y-179971242D02*
X187128139Y-179828385D01*
X187128139Y-179828385D02*
X187199568Y-179756957D01*
X187199568Y-179756957D02*
X187342425Y-179685528D01*
X187342425Y-179685528D02*
X187628139Y-179685528D01*
X187628139Y-179685528D02*
X187770997Y-179756957D01*
X189628139Y-180685528D02*
X189628139Y-179185528D01*
X189628139Y-179756957D02*
X189770997Y-179685528D01*
X189770997Y-179685528D02*
X190056711Y-179685528D01*
X190056711Y-179685528D02*
X190199568Y-179756957D01*
X190199568Y-179756957D02*
X190270997Y-179828385D01*
X190270997Y-179828385D02*
X190342425Y-179971242D01*
X190342425Y-179971242D02*
X190342425Y-180399814D01*
X190342425Y-180399814D02*
X190270997Y-180542671D01*
X190270997Y-180542671D02*
X190199568Y-180614100D01*
X190199568Y-180614100D02*
X190056711Y-180685528D01*
X190056711Y-180685528D02*
X189770997Y-180685528D01*
X189770997Y-180685528D02*
X189628139Y-180614100D01*
X190842425Y-179685528D02*
X191199568Y-180685528D01*
X191556711Y-179685528D02*
X191199568Y-180685528D01*
X191199568Y-180685528D02*
X191056711Y-181042671D01*
X191056711Y-181042671D02*
X190985282Y-181114100D01*
X190985282Y-181114100D02*
X190842425Y-181185528D01*
X193270996Y-180685528D02*
X193270996Y-179185528D01*
X193270996Y-179185528D02*
X193770996Y-180256957D01*
X193770996Y-180256957D02*
X194270996Y-179185528D01*
X194270996Y-179185528D02*
X194270996Y-180685528D01*
X194985282Y-180685528D02*
X194985282Y-179185528D01*
X195842425Y-180685528D02*
X195199568Y-179828385D01*
X195842425Y-179185528D02*
X194985282Y-180042671D01*
X197556711Y-179328385D02*
X197628139Y-179256957D01*
X197628139Y-179256957D02*
X197770997Y-179185528D01*
X197770997Y-179185528D02*
X198128139Y-179185528D01*
X198128139Y-179185528D02*
X198270997Y-179256957D01*
X198270997Y-179256957D02*
X198342425Y-179328385D01*
X198342425Y-179328385D02*
X198413854Y-179471242D01*
X198413854Y-179471242D02*
X198413854Y-179614100D01*
X198413854Y-179614100D02*
X198342425Y-179828385D01*
X198342425Y-179828385D02*
X197485282Y-180685528D01*
X197485282Y-180685528D02*
X198413854Y-180685528D01*
X199342425Y-179185528D02*
X199485282Y-179185528D01*
X199485282Y-179185528D02*
X199628139Y-179256957D01*
X199628139Y-179256957D02*
X199699568Y-179328385D01*
X199699568Y-179328385D02*
X199770996Y-179471242D01*
X199770996Y-179471242D02*
X199842425Y-179756957D01*
X199842425Y-179756957D02*
X199842425Y-180114100D01*
X199842425Y-180114100D02*
X199770996Y-180399814D01*
X199770996Y-180399814D02*
X199699568Y-180542671D01*
X199699568Y-180542671D02*
X199628139Y-180614100D01*
X199628139Y-180614100D02*
X199485282Y-180685528D01*
X199485282Y-180685528D02*
X199342425Y-180685528D01*
X199342425Y-180685528D02*
X199199568Y-180614100D01*
X199199568Y-180614100D02*
X199128139Y-180542671D01*
X199128139Y-180542671D02*
X199056710Y-180399814D01*
X199056710Y-180399814D02*
X198985282Y-180114100D01*
X198985282Y-180114100D02*
X198985282Y-179756957D01*
X198985282Y-179756957D02*
X199056710Y-179471242D01*
X199056710Y-179471242D02*
X199128139Y-179328385D01*
X199128139Y-179328385D02*
X199199568Y-179256957D01*
X199199568Y-179256957D02*
X199342425Y-179185528D01*
X200413853Y-179328385D02*
X200485281Y-179256957D01*
X200485281Y-179256957D02*
X200628139Y-179185528D01*
X200628139Y-179185528D02*
X200985281Y-179185528D01*
X200985281Y-179185528D02*
X201128139Y-179256957D01*
X201128139Y-179256957D02*
X201199567Y-179328385D01*
X201199567Y-179328385D02*
X201270996Y-179471242D01*
X201270996Y-179471242D02*
X201270996Y-179614100D01*
X201270996Y-179614100D02*
X201199567Y-179828385D01*
X201199567Y-179828385D02*
X200342424Y-180685528D01*
X200342424Y-180685528D02*
X201270996Y-180685528D01*
X202556710Y-179685528D02*
X202556710Y-180685528D01*
X202199567Y-179114100D02*
X201842424Y-180185528D01*
X201842424Y-180185528D02*
X202770995Y-180185528D01*
X204913852Y-181256957D02*
X204842423Y-181185528D01*
X204842423Y-181185528D02*
X204699566Y-180971242D01*
X204699566Y-180971242D02*
X204628138Y-180828385D01*
X204628138Y-180828385D02*
X204556709Y-180614100D01*
X204556709Y-180614100D02*
X204485280Y-180256957D01*
X204485280Y-180256957D02*
X204485280Y-179971242D01*
X204485280Y-179971242D02*
X204556709Y-179614100D01*
X204556709Y-179614100D02*
X204628138Y-179399814D01*
X204628138Y-179399814D02*
X204699566Y-179256957D01*
X204699566Y-179256957D02*
X204842423Y-179042671D01*
X204842423Y-179042671D02*
X204913852Y-178971242D01*
X206342423Y-180685528D02*
X205842423Y-179971242D01*
X205485280Y-180685528D02*
X205485280Y-179185528D01*
X205485280Y-179185528D02*
X206056709Y-179185528D01*
X206056709Y-179185528D02*
X206199566Y-179256957D01*
X206199566Y-179256957D02*
X206270995Y-179328385D01*
X206270995Y-179328385D02*
X206342423Y-179471242D01*
X206342423Y-179471242D02*
X206342423Y-179685528D01*
X206342423Y-179685528D02*
X206270995Y-179828385D01*
X206270995Y-179828385D02*
X206199566Y-179899814D01*
X206199566Y-179899814D02*
X206056709Y-179971242D01*
X206056709Y-179971242D02*
X205485280Y-179971242D01*
X206842423Y-181256957D02*
X206913852Y-181185528D01*
X206913852Y-181185528D02*
X207056709Y-180971242D01*
X207056709Y-180971242D02*
X207128138Y-180828385D01*
X207128138Y-180828385D02*
X207199566Y-180614100D01*
X207199566Y-180614100D02*
X207270995Y-180256957D01*
X207270995Y-180256957D02*
X207270995Y-179971242D01*
X207270995Y-179971242D02*
X207199566Y-179614100D01*
X207199566Y-179614100D02*
X207128138Y-179399814D01*
X207128138Y-179399814D02*
X207056709Y-179256957D01*
X207056709Y-179256957D02*
X206913852Y-179042671D01*
X206913852Y-179042671D02*
X206842423Y-178971242D01*
D10*
D11*
X178458026Y-177693328D02*
X178458026Y-176693328D01*
X178458026Y-176836185D02*
X178529455Y-176764757D01*
X178529455Y-176764757D02*
X178672312Y-176693328D01*
X178672312Y-176693328D02*
X178886598Y-176693328D01*
X178886598Y-176693328D02*
X179029455Y-176764757D01*
X179029455Y-176764757D02*
X179100884Y-176907614D01*
X179100884Y-176907614D02*
X179100884Y-177693328D01*
X179100884Y-176907614D02*
X179172312Y-176764757D01*
X179172312Y-176764757D02*
X179315169Y-176693328D01*
X179315169Y-176693328D02*
X179529455Y-176693328D01*
X179529455Y-176693328D02*
X179672312Y-176764757D01*
X179672312Y-176764757D02*
X179743741Y-176907614D01*
X179743741Y-176907614D02*
X179743741Y-177693328D01*
X180672312Y-177693328D02*
X180529455Y-177621900D01*
X180529455Y-177621900D02*
X180458026Y-177550471D01*
X180458026Y-177550471D02*
X180386598Y-177407614D01*
X180386598Y-177407614D02*
X180386598Y-176979042D01*
X180386598Y-176979042D02*
X180458026Y-176836185D01*
X180458026Y-176836185D02*
X180529455Y-176764757D01*
X180529455Y-176764757D02*
X180672312Y-176693328D01*
X180672312Y-176693328D02*
X180886598Y-176693328D01*
X180886598Y-176693328D02*
X181029455Y-176764757D01*
X181029455Y-176764757D02*
X181100884Y-176836185D01*
X181100884Y-176836185D02*
X181172312Y-176979042D01*
X181172312Y-176979042D02*
X181172312Y-177407614D01*
X181172312Y-177407614D02*
X181100884Y-177550471D01*
X181100884Y-177550471D02*
X181029455Y-177621900D01*
X181029455Y-177621900D02*
X180886598Y-177693328D01*
X180886598Y-177693328D02*
X180672312Y-177693328D01*
X182458027Y-177693328D02*
X182458027Y-176193328D01*
X182458027Y-177621900D02*
X182315169Y-177693328D01*
X182315169Y-177693328D02*
X182029455Y-177693328D01*
X182029455Y-177693328D02*
X181886598Y-177621900D01*
X181886598Y-177621900D02*
X181815169Y-177550471D01*
X181815169Y-177550471D02*
X181743741Y-177407614D01*
X181743741Y-177407614D02*
X181743741Y-176979042D01*
X181743741Y-176979042D02*
X181815169Y-176836185D01*
X181815169Y-176836185D02*
X181886598Y-176764757D01*
X181886598Y-176764757D02*
X182029455Y-176693328D01*
X182029455Y-176693328D02*
X182315169Y-176693328D01*
X182315169Y-176693328D02*
X182458027Y-176764757D01*
X183100884Y-177621900D02*
X183243741Y-177693328D01*
X183243741Y-177693328D02*
X183529455Y-177693328D01*
X183529455Y-177693328D02*
X183672312Y-177621900D01*
X183672312Y-177621900D02*
X183743741Y-177479042D01*
X183743741Y-177479042D02*
X183743741Y-177407614D01*
X183743741Y-177407614D02*
X183672312Y-177264757D01*
X183672312Y-177264757D02*
X183529455Y-177193328D01*
X183529455Y-177193328D02*
X183315170Y-177193328D01*
X183315170Y-177193328D02*
X183172312Y-177121900D01*
X183172312Y-177121900D02*
X183100884Y-176979042D01*
X183100884Y-176979042D02*
X183100884Y-176907614D01*
X183100884Y-176907614D02*
X183172312Y-176764757D01*
X183172312Y-176764757D02*
X183315170Y-176693328D01*
X183315170Y-176693328D02*
X183529455Y-176693328D01*
X183529455Y-176693328D02*
X183672312Y-176764757D01*
X185529455Y-177693328D02*
X185529455Y-176193328D01*
X185529455Y-176764757D02*
X185672313Y-176693328D01*
X185672313Y-176693328D02*
X185958027Y-176693328D01*
X185958027Y-176693328D02*
X186100884Y-176764757D01*
X186100884Y-176764757D02*
X186172313Y-176836185D01*
X186172313Y-176836185D02*
X186243741Y-176979042D01*
X186243741Y-176979042D02*
X186243741Y-177407614D01*
X186243741Y-177407614D02*
X186172313Y-177550471D01*
X186172313Y-177550471D02*
X186100884Y-177621900D01*
X186100884Y-177621900D02*
X185958027Y-177693328D01*
X185958027Y-177693328D02*
X185672313Y-177693328D01*
X185672313Y-177693328D02*
X185529455Y-177621900D01*
X186743741Y-176693328D02*
X187100884Y-177693328D01*
X187458027Y-176693328D02*
X187100884Y-177693328D01*
X187100884Y-177693328D02*
X186958027Y-178050471D01*
X186958027Y-178050471D02*
X186886598Y-178121900D01*
X186886598Y-178121900D02*
X186743741Y-178193328D01*
X189172312Y-177693328D02*
X189172312Y-176193328D01*
X189172312Y-176907614D02*
X190029455Y-176907614D01*
X190029455Y-177693328D02*
X190029455Y-176193328D01*
X190743741Y-177550471D02*
X190815170Y-177621900D01*
X190815170Y-177621900D02*
X190743741Y-177693328D01*
X190743741Y-177693328D02*
X190672313Y-177621900D01*
X190672313Y-177621900D02*
X190743741Y-177550471D01*
X190743741Y-177550471D02*
X190743741Y-177693328D01*
X193458027Y-177693328D02*
X192958027Y-176979042D01*
X192600884Y-177693328D02*
X192600884Y-176193328D01*
X192600884Y-176193328D02*
X193172313Y-176193328D01*
X193172313Y-176193328D02*
X193315170Y-176264757D01*
X193315170Y-176264757D02*
X193386599Y-176336185D01*
X193386599Y-176336185D02*
X193458027Y-176479042D01*
X193458027Y-176479042D02*
X193458027Y-176693328D01*
X193458027Y-176693328D02*
X193386599Y-176836185D01*
X193386599Y-176836185D02*
X193315170Y-176907614D01*
X193315170Y-176907614D02*
X193172313Y-176979042D01*
X193172313Y-176979042D02*
X192600884Y-176979042D01*
X194100884Y-177693328D02*
X194100884Y-176693328D01*
X194100884Y-176193328D02*
X194029456Y-176264757D01*
X194029456Y-176264757D02*
X194100884Y-176336185D01*
X194100884Y-176336185D02*
X194172313Y-176264757D01*
X194172313Y-176264757D02*
X194100884Y-176193328D01*
X194100884Y-176193328D02*
X194100884Y-176336185D01*
X195458028Y-177621900D02*
X195315170Y-177693328D01*
X195315170Y-177693328D02*
X195029456Y-177693328D01*
X195029456Y-177693328D02*
X194886599Y-177621900D01*
X194886599Y-177621900D02*
X194815170Y-177550471D01*
X194815170Y-177550471D02*
X194743742Y-177407614D01*
X194743742Y-177407614D02*
X194743742Y-176979042D01*
X194743742Y-176979042D02*
X194815170Y-176836185D01*
X194815170Y-176836185D02*
X194886599Y-176764757D01*
X194886599Y-176764757D02*
X195029456Y-176693328D01*
X195029456Y-176693328D02*
X195315170Y-176693328D01*
X195315170Y-176693328D02*
X195458028Y-176764757D01*
X196100884Y-177693328D02*
X196100884Y-176193328D01*
X196743742Y-177693328D02*
X196743742Y-176907614D01*
X196743742Y-176907614D02*
X196672313Y-176764757D01*
X196672313Y-176764757D02*
X196529456Y-176693328D01*
X196529456Y-176693328D02*
X196315170Y-176693328D01*
X196315170Y-176693328D02*
X196172313Y-176764757D01*
X196172313Y-176764757D02*
X196100884Y-176836185D01*
X197243742Y-176693328D02*
X197815170Y-176693328D01*
X197458027Y-176193328D02*
X197458027Y-177479042D01*
X197458027Y-177479042D02*
X197529456Y-177621900D01*
X197529456Y-177621900D02*
X197672313Y-177693328D01*
X197672313Y-177693328D02*
X197815170Y-177693328D01*
X198886599Y-177621900D02*
X198743742Y-177693328D01*
X198743742Y-177693328D02*
X198458028Y-177693328D01*
X198458028Y-177693328D02*
X198315170Y-177621900D01*
X198315170Y-177621900D02*
X198243742Y-177479042D01*
X198243742Y-177479042D02*
X198243742Y-176907614D01*
X198243742Y-176907614D02*
X198315170Y-176764757D01*
X198315170Y-176764757D02*
X198458028Y-176693328D01*
X198458028Y-176693328D02*
X198743742Y-176693328D01*
X198743742Y-176693328D02*
X198886599Y-176764757D01*
X198886599Y-176764757D02*
X198958028Y-176907614D01*
X198958028Y-176907614D02*
X198958028Y-177050471D01*
X198958028Y-177050471D02*
X198243742Y-177193328D01*
X199600884Y-177693328D02*
X199600884Y-176693328D01*
X199600884Y-176979042D02*
X199672313Y-176836185D01*
X199672313Y-176836185D02*
X199743742Y-176764757D01*
X199743742Y-176764757D02*
X199886599Y-176693328D01*
X199886599Y-176693328D02*
X200029456Y-176693328D01*
X202100884Y-178264757D02*
X202029455Y-178193328D01*
X202029455Y-178193328D02*
X201886598Y-177979042D01*
X201886598Y-177979042D02*
X201815170Y-177836185D01*
X201815170Y-177836185D02*
X201743741Y-177621900D01*
X201743741Y-177621900D02*
X201672312Y-177264757D01*
X201672312Y-177264757D02*
X201672312Y-176979042D01*
X201672312Y-176979042D02*
X201743741Y-176621900D01*
X201743741Y-176621900D02*
X201815170Y-176407614D01*
X201815170Y-176407614D02*
X201886598Y-176264757D01*
X201886598Y-176264757D02*
X202029455Y-176050471D01*
X202029455Y-176050471D02*
X202100884Y-175979042D01*
X203529455Y-177693328D02*
X203029455Y-176979042D01*
X202672312Y-177693328D02*
X202672312Y-176193328D01*
X202672312Y-176193328D02*
X203243741Y-176193328D01*
X203243741Y-176193328D02*
X203386598Y-176264757D01*
X203386598Y-176264757D02*
X203458027Y-176336185D01*
X203458027Y-176336185D02*
X203529455Y-176479042D01*
X203529455Y-176479042D02*
X203529455Y-176693328D01*
X203529455Y-176693328D02*
X203458027Y-176836185D01*
X203458027Y-176836185D02*
X203386598Y-176907614D01*
X203386598Y-176907614D02*
X203243741Y-176979042D01*
X203243741Y-176979042D02*
X202672312Y-176979042D01*
X204100884Y-177264757D02*
X204815170Y-177264757D01*
X203958027Y-177693328D02*
X204458027Y-176193328D01*
X204458027Y-176193328D02*
X204958027Y-177693328D01*
X205458026Y-177693328D02*
X205458026Y-176193328D01*
X205458026Y-176193328D02*
X205958026Y-177264757D01*
X205958026Y-177264757D02*
X206458026Y-176193328D01*
X206458026Y-176193328D02*
X206458026Y-177693328D01*
X208243741Y-177621900D02*
X208458027Y-177693328D01*
X208458027Y-177693328D02*
X208815169Y-177693328D01*
X208815169Y-177693328D02*
X208958027Y-177621900D01*
X208958027Y-177621900D02*
X209029455Y-177550471D01*
X209029455Y-177550471D02*
X209100884Y-177407614D01*
X209100884Y-177407614D02*
X209100884Y-177264757D01*
X209100884Y-177264757D02*
X209029455Y-177121900D01*
X209029455Y-177121900D02*
X208958027Y-177050471D01*
X208958027Y-177050471D02*
X208815169Y-176979042D01*
X208815169Y-176979042D02*
X208529455Y-176907614D01*
X208529455Y-176907614D02*
X208386598Y-176836185D01*
X208386598Y-176836185D02*
X208315169Y-176764757D01*
X208315169Y-176764757D02*
X208243741Y-176621900D01*
X208243741Y-176621900D02*
X208243741Y-176479042D01*
X208243741Y-176479042D02*
X208315169Y-176336185D01*
X208315169Y-176336185D02*
X208386598Y-176264757D01*
X208386598Y-176264757D02*
X208529455Y-176193328D01*
X208529455Y-176193328D02*
X208886598Y-176193328D01*
X208886598Y-176193328D02*
X209100884Y-176264757D01*
X209743740Y-176693328D02*
X209743740Y-178193328D01*
X209743740Y-176764757D02*
X209886598Y-176693328D01*
X209886598Y-176693328D02*
X210172312Y-176693328D01*
X210172312Y-176693328D02*
X210315169Y-176764757D01*
X210315169Y-176764757D02*
X210386598Y-176836185D01*
X210386598Y-176836185D02*
X210458026Y-176979042D01*
X210458026Y-176979042D02*
X210458026Y-177407614D01*
X210458026Y-177407614D02*
X210386598Y-177550471D01*
X210386598Y-177550471D02*
X210315169Y-177621900D01*
X210315169Y-177621900D02*
X210172312Y-177693328D01*
X210172312Y-177693328D02*
X209886598Y-177693328D01*
X209886598Y-177693328D02*
X209743740Y-177621900D01*
X211743741Y-177693328D02*
X211743741Y-176907614D01*
X211743741Y-176907614D02*
X211672312Y-176764757D01*
X211672312Y-176764757D02*
X211529455Y-176693328D01*
X211529455Y-176693328D02*
X211243741Y-176693328D01*
X211243741Y-176693328D02*
X211100883Y-176764757D01*
X211743741Y-177621900D02*
X211600883Y-177693328D01*
X211600883Y-177693328D02*
X211243741Y-177693328D01*
X211243741Y-177693328D02*
X211100883Y-177621900D01*
X211100883Y-177621900D02*
X211029455Y-177479042D01*
X211029455Y-177479042D02*
X211029455Y-177336185D01*
X211029455Y-177336185D02*
X211100883Y-177193328D01*
X211100883Y-177193328D02*
X211243741Y-177121900D01*
X211243741Y-177121900D02*
X211600883Y-177121900D01*
X211600883Y-177121900D02*
X211743741Y-177050471D01*
X213100884Y-177621900D02*
X212958026Y-177693328D01*
X212958026Y-177693328D02*
X212672312Y-177693328D01*
X212672312Y-177693328D02*
X212529455Y-177621900D01*
X212529455Y-177621900D02*
X212458026Y-177550471D01*
X212458026Y-177550471D02*
X212386598Y-177407614D01*
X212386598Y-177407614D02*
X212386598Y-176979042D01*
X212386598Y-176979042D02*
X212458026Y-176836185D01*
X212458026Y-176836185D02*
X212529455Y-176764757D01*
X212529455Y-176764757D02*
X212672312Y-176693328D01*
X212672312Y-176693328D02*
X212958026Y-176693328D01*
X212958026Y-176693328D02*
X213100884Y-176764757D01*
X213743740Y-177693328D02*
X213743740Y-176693328D01*
X213743740Y-176193328D02*
X213672312Y-176264757D01*
X213672312Y-176264757D02*
X213743740Y-176336185D01*
X213743740Y-176336185D02*
X213815169Y-176264757D01*
X213815169Y-176264757D02*
X213743740Y-176193328D01*
X213743740Y-176193328D02*
X213743740Y-176336185D01*
X214458026Y-176693328D02*
X214458026Y-177693328D01*
X214458026Y-176836185D02*
X214529455Y-176764757D01*
X214529455Y-176764757D02*
X214672312Y-176693328D01*
X214672312Y-176693328D02*
X214886598Y-176693328D01*
X214886598Y-176693328D02*
X215029455Y-176764757D01*
X215029455Y-176764757D02*
X215100884Y-176907614D01*
X215100884Y-176907614D02*
X215100884Y-177693328D01*
X216458027Y-176693328D02*
X216458027Y-177907614D01*
X216458027Y-177907614D02*
X216386598Y-178050471D01*
X216386598Y-178050471D02*
X216315169Y-178121900D01*
X216315169Y-178121900D02*
X216172312Y-178193328D01*
X216172312Y-178193328D02*
X215958027Y-178193328D01*
X215958027Y-178193328D02*
X215815169Y-178121900D01*
X216458027Y-177621900D02*
X216315169Y-177693328D01*
X216315169Y-177693328D02*
X216029455Y-177693328D01*
X216029455Y-177693328D02*
X215886598Y-177621900D01*
X215886598Y-177621900D02*
X215815169Y-177550471D01*
X215815169Y-177550471D02*
X215743741Y-177407614D01*
X215743741Y-177407614D02*
X215743741Y-176979042D01*
X215743741Y-176979042D02*
X215815169Y-176836185D01*
X215815169Y-176836185D02*
X215886598Y-176764757D01*
X215886598Y-176764757D02*
X216029455Y-176693328D01*
X216029455Y-176693328D02*
X216315169Y-176693328D01*
X216315169Y-176693328D02*
X216458027Y-176764757D01*
X217243741Y-177621900D02*
X217243741Y-177693328D01*
X217243741Y-177693328D02*
X217172312Y-177836185D01*
X217172312Y-177836185D02*
X217100884Y-177907614D01*
X219029455Y-177693328D02*
X219029455Y-176193328D01*
X219029455Y-176193328D02*
X219529455Y-177264757D01*
X219529455Y-177264757D02*
X220029455Y-176193328D01*
X220029455Y-176193328D02*
X220029455Y-177693328D01*
X220958027Y-177693328D02*
X220815170Y-177621900D01*
X220815170Y-177621900D02*
X220743741Y-177550471D01*
X220743741Y-177550471D02*
X220672313Y-177407614D01*
X220672313Y-177407614D02*
X220672313Y-176979042D01*
X220672313Y-176979042D02*
X220743741Y-176836185D01*
X220743741Y-176836185D02*
X220815170Y-176764757D01*
X220815170Y-176764757D02*
X220958027Y-176693328D01*
X220958027Y-176693328D02*
X221172313Y-176693328D01*
X221172313Y-176693328D02*
X221315170Y-176764757D01*
X221315170Y-176764757D02*
X221386599Y-176836185D01*
X221386599Y-176836185D02*
X221458027Y-176979042D01*
X221458027Y-176979042D02*
X221458027Y-177407614D01*
X221458027Y-177407614D02*
X221386599Y-177550471D01*
X221386599Y-177550471D02*
X221315170Y-177621900D01*
X221315170Y-177621900D02*
X221172313Y-177693328D01*
X221172313Y-177693328D02*
X220958027Y-177693328D01*
X222100884Y-176693328D02*
X222100884Y-177693328D01*
X222100884Y-176836185D02*
X222172313Y-176764757D01*
X222172313Y-176764757D02*
X222315170Y-176693328D01*
X222315170Y-176693328D02*
X222529456Y-176693328D01*
X222529456Y-176693328D02*
X222672313Y-176764757D01*
X222672313Y-176764757D02*
X222743742Y-176907614D01*
X222743742Y-176907614D02*
X222743742Y-177693328D01*
X223458027Y-177693328D02*
X223458027Y-176693328D01*
X223458027Y-176193328D02*
X223386599Y-176264757D01*
X223386599Y-176264757D02*
X223458027Y-176336185D01*
X223458027Y-176336185D02*
X223529456Y-176264757D01*
X223529456Y-176264757D02*
X223458027Y-176193328D01*
X223458027Y-176193328D02*
X223458027Y-176336185D01*
X223958028Y-176693328D02*
X224529456Y-176693328D01*
X224172313Y-176193328D02*
X224172313Y-177479042D01*
X224172313Y-177479042D02*
X224243742Y-177621900D01*
X224243742Y-177621900D02*
X224386599Y-177693328D01*
X224386599Y-177693328D02*
X224529456Y-177693328D01*
X225243742Y-177693328D02*
X225100885Y-177621900D01*
X225100885Y-177621900D02*
X225029456Y-177550471D01*
X225029456Y-177550471D02*
X224958028Y-177407614D01*
X224958028Y-177407614D02*
X224958028Y-176979042D01*
X224958028Y-176979042D02*
X225029456Y-176836185D01*
X225029456Y-176836185D02*
X225100885Y-176764757D01*
X225100885Y-176764757D02*
X225243742Y-176693328D01*
X225243742Y-176693328D02*
X225458028Y-176693328D01*
X225458028Y-176693328D02*
X225600885Y-176764757D01*
X225600885Y-176764757D02*
X225672314Y-176836185D01*
X225672314Y-176836185D02*
X225743742Y-176979042D01*
X225743742Y-176979042D02*
X225743742Y-177407614D01*
X225743742Y-177407614D02*
X225672314Y-177550471D01*
X225672314Y-177550471D02*
X225600885Y-177621900D01*
X225600885Y-177621900D02*
X225458028Y-177693328D01*
X225458028Y-177693328D02*
X225243742Y-177693328D01*
X226386599Y-177693328D02*
X226386599Y-176693328D01*
X226386599Y-176979042D02*
X226458028Y-176836185D01*
X226458028Y-176836185D02*
X226529457Y-176764757D01*
X226529457Y-176764757D02*
X226672314Y-176693328D01*
X226672314Y-176693328D02*
X226815171Y-176693328D01*
X228458027Y-177693328D02*
X228458027Y-176193328D01*
X229172313Y-177693328D02*
X229172313Y-176193328D01*
X229172313Y-176193328D02*
X229529456Y-176193328D01*
X229529456Y-176193328D02*
X229743742Y-176264757D01*
X229743742Y-176264757D02*
X229886599Y-176407614D01*
X229886599Y-176407614D02*
X229958028Y-176550471D01*
X229958028Y-176550471D02*
X230029456Y-176836185D01*
X230029456Y-176836185D02*
X230029456Y-177050471D01*
X230029456Y-177050471D02*
X229958028Y-177336185D01*
X229958028Y-177336185D02*
X229886599Y-177479042D01*
X229886599Y-177479042D02*
X229743742Y-177621900D01*
X229743742Y-177621900D02*
X229529456Y-177693328D01*
X229529456Y-177693328D02*
X229172313Y-177693328D01*
X230529456Y-178264757D02*
X230600885Y-178193328D01*
X230600885Y-178193328D02*
X230743742Y-177979042D01*
X230743742Y-177979042D02*
X230815171Y-177836185D01*
X230815171Y-177836185D02*
X230886599Y-177621900D01*
X230886599Y-177621900D02*
X230958028Y-177264757D01*
X230958028Y-177264757D02*
X230958028Y-176979042D01*
X230958028Y-176979042D02*
X230886599Y-176621900D01*
X230886599Y-176621900D02*
X230815171Y-176407614D01*
X230815171Y-176407614D02*
X230743742Y-176264757D01*
X230743742Y-176264757D02*
X230600885Y-176050471D01*
X230600885Y-176050471D02*
X230529456Y-175979042D01*
D10*
D11*
X197002200Y-191507200D02*
X197002200Y-194507200D01*
D10*
D11*
X261002200Y-191507200D02*
X261002200Y-198007200D01*
X236173809Y-140414819D02*
X236173809Y-139748152D01*
X236173809Y-139843390D02*
X236126190Y-139795771D01*
X236126190Y-139795771D02*
X236030952Y-139748152D01*
X236030952Y-139748152D02*
X235888095Y-139748152D01*
X235888095Y-139748152D02*
X235792857Y-139795771D01*
X235792857Y-139795771D02*
X235745238Y-139891009D01*
X235745238Y-139891009D02*
X235745238Y-140414819D01*
X235745238Y-139891009D02*
X235697619Y-139795771D01*
X235697619Y-139795771D02*
X235602381Y-139748152D01*
X235602381Y-139748152D02*
X235459524Y-139748152D01*
X235459524Y-139748152D02*
X235364285Y-139795771D01*
X235364285Y-139795771D02*
X235316666Y-139891009D01*
X235316666Y-139891009D02*
X235316666Y-140414819D01*
X234697619Y-140414819D02*
X234792857Y-140367200D01*
X234792857Y-140367200D02*
X234840476Y-140319580D01*
X234840476Y-140319580D02*
X234888095Y-140224342D01*
X234888095Y-140224342D02*
X234888095Y-139938628D01*
X234888095Y-139938628D02*
X234840476Y-139843390D01*
X234840476Y-139843390D02*
X234792857Y-139795771D01*
X234792857Y-139795771D02*
X234697619Y-139748152D01*
X234697619Y-139748152D02*
X234554762Y-139748152D01*
X234554762Y-139748152D02*
X234459524Y-139795771D01*
X234459524Y-139795771D02*
X234411905Y-139843390D01*
X234411905Y-139843390D02*
X234364286Y-139938628D01*
X234364286Y-139938628D02*
X234364286Y-140224342D01*
X234364286Y-140224342D02*
X234411905Y-140319580D01*
X234411905Y-140319580D02*
X234459524Y-140367200D01*
X234459524Y-140367200D02*
X234554762Y-140414819D01*
X234554762Y-140414819D02*
X234697619Y-140414819D01*
X233507143Y-140414819D02*
X233507143Y-139414819D01*
X233507143Y-140367200D02*
X233602381Y-140414819D01*
X233602381Y-140414819D02*
X233792857Y-140414819D01*
X233792857Y-140414819D02*
X233888095Y-140367200D01*
X233888095Y-140367200D02*
X233935714Y-140319580D01*
X233935714Y-140319580D02*
X233983333Y-140224342D01*
X233983333Y-140224342D02*
X233983333Y-139938628D01*
X233983333Y-139938628D02*
X233935714Y-139843390D01*
X233935714Y-139843390D02*
X233888095Y-139795771D01*
X233888095Y-139795771D02*
X233792857Y-139748152D01*
X233792857Y-139748152D02*
X233602381Y-139748152D01*
X233602381Y-139748152D02*
X233507143Y-139795771D01*
X233078571Y-140367200D02*
X232983333Y-140414819D01*
X232983333Y-140414819D02*
X232792857Y-140414819D01*
X232792857Y-140414819D02*
X232697619Y-140367200D01*
X232697619Y-140367200D02*
X232650000Y-140271961D01*
X232650000Y-140271961D02*
X232650000Y-140224342D01*
X232650000Y-140224342D02*
X232697619Y-140129104D01*
X232697619Y-140129104D02*
X232792857Y-140081485D01*
X232792857Y-140081485D02*
X232935714Y-140081485D01*
X232935714Y-140081485D02*
X233030952Y-140033866D01*
X233030952Y-140033866D02*
X233078571Y-139938628D01*
X233078571Y-139938628D02*
X233078571Y-139891009D01*
X233078571Y-139891009D02*
X233030952Y-139795771D01*
X233030952Y-139795771D02*
X232935714Y-139748152D01*
X232935714Y-139748152D02*
X232792857Y-139748152D01*
X232792857Y-139748152D02*
X232697619Y-139795771D01*
X231459523Y-140414819D02*
X231459523Y-139414819D01*
X231459523Y-139795771D02*
X231364285Y-139748152D01*
X231364285Y-139748152D02*
X231173809Y-139748152D01*
X231173809Y-139748152D02*
X231078571Y-139795771D01*
X231078571Y-139795771D02*
X231030952Y-139843390D01*
X231030952Y-139843390D02*
X230983333Y-139938628D01*
X230983333Y-139938628D02*
X230983333Y-140224342D01*
X230983333Y-140224342D02*
X231030952Y-140319580D01*
X231030952Y-140319580D02*
X231078571Y-140367200D01*
X231078571Y-140367200D02*
X231173809Y-140414819D01*
X231173809Y-140414819D02*
X231364285Y-140414819D01*
X231364285Y-140414819D02*
X231459523Y-140367200D01*
X230649999Y-139748152D02*
X230411904Y-140414819D01*
X230173809Y-139748152D02*
X230411904Y-140414819D01*
X230411904Y-140414819D02*
X230507142Y-140652914D01*
X230507142Y-140652914D02*
X230554761Y-140700533D01*
X230554761Y-140700533D02*
X230649999Y-140748152D01*
X229030951Y-140414819D02*
X229030951Y-139414819D01*
X229030951Y-139891009D02*
X228459523Y-139891009D01*
X228459523Y-140414819D02*
X228459523Y-139414819D01*
X227983332Y-140319580D02*
X227935713Y-140367200D01*
X227935713Y-140367200D02*
X227983332Y-140414819D01*
X227983332Y-140414819D02*
X228030951Y-140367200D01*
X228030951Y-140367200D02*
X227983332Y-140319580D01*
X227983332Y-140319580D02*
X227983332Y-140414819D01*
X226935714Y-140414819D02*
X227269047Y-139938628D01*
X227507142Y-140414819D02*
X227507142Y-139414819D01*
X227507142Y-139414819D02*
X227126190Y-139414819D01*
X227126190Y-139414819D02*
X227030952Y-139462438D01*
X227030952Y-139462438D02*
X226983333Y-139510057D01*
X226983333Y-139510057D02*
X226935714Y-139605295D01*
X226935714Y-139605295D02*
X226935714Y-139748152D01*
X226935714Y-139748152D02*
X226983333Y-139843390D01*
X226983333Y-139843390D02*
X227030952Y-139891009D01*
X227030952Y-139891009D02*
X227126190Y-139938628D01*
X227126190Y-139938628D02*
X227507142Y-139938628D01*
X226507142Y-140414819D02*
X226507142Y-139748152D01*
X226507142Y-139414819D02*
X226554761Y-139462438D01*
X226554761Y-139462438D02*
X226507142Y-139510057D01*
X226507142Y-139510057D02*
X226459523Y-139462438D01*
X226459523Y-139462438D02*
X226507142Y-139414819D01*
X226507142Y-139414819D02*
X226507142Y-139510057D01*
X225602381Y-140367200D02*
X225697619Y-140414819D01*
X225697619Y-140414819D02*
X225888095Y-140414819D01*
X225888095Y-140414819D02*
X225983333Y-140367200D01*
X225983333Y-140367200D02*
X226030952Y-140319580D01*
X226030952Y-140319580D02*
X226078571Y-140224342D01*
X226078571Y-140224342D02*
X226078571Y-139938628D01*
X226078571Y-139938628D02*
X226030952Y-139843390D01*
X226030952Y-139843390D02*
X225983333Y-139795771D01*
X225983333Y-139795771D02*
X225888095Y-139748152D01*
X225888095Y-139748152D02*
X225697619Y-139748152D01*
X225697619Y-139748152D02*
X225602381Y-139795771D01*
X225173809Y-140414819D02*
X225173809Y-139414819D01*
X224745238Y-140414819D02*
X224745238Y-139891009D01*
X224745238Y-139891009D02*
X224792857Y-139795771D01*
X224792857Y-139795771D02*
X224888095Y-139748152D01*
X224888095Y-139748152D02*
X225030952Y-139748152D01*
X225030952Y-139748152D02*
X225126190Y-139795771D01*
X225126190Y-139795771D02*
X225173809Y-139843390D01*
X224411904Y-139748152D02*
X224030952Y-139748152D01*
X224269047Y-139414819D02*
X224269047Y-140271961D01*
X224269047Y-140271961D02*
X224221428Y-140367200D01*
X224221428Y-140367200D02*
X224126190Y-140414819D01*
X224126190Y-140414819D02*
X224030952Y-140414819D01*
X223316666Y-140367200D02*
X223411904Y-140414819D01*
X223411904Y-140414819D02*
X223602380Y-140414819D01*
X223602380Y-140414819D02*
X223697618Y-140367200D01*
X223697618Y-140367200D02*
X223745237Y-140271961D01*
X223745237Y-140271961D02*
X223745237Y-139891009D01*
X223745237Y-139891009D02*
X223697618Y-139795771D01*
X223697618Y-139795771D02*
X223602380Y-139748152D01*
X223602380Y-139748152D02*
X223411904Y-139748152D01*
X223411904Y-139748152D02*
X223316666Y-139795771D01*
X223316666Y-139795771D02*
X223269047Y-139891009D01*
X223269047Y-139891009D02*
X223269047Y-139986247D01*
X223269047Y-139986247D02*
X223745237Y-140081485D01*
X222840475Y-140414819D02*
X222840475Y-139748152D01*
X222840475Y-139938628D02*
X222792856Y-139843390D01*
X222792856Y-139843390D02*
X222745237Y-139795771D01*
X222745237Y-139795771D02*
X222649999Y-139748152D01*
X222649999Y-139748152D02*
X222554761Y-139748152D01*
X221507141Y-139510057D02*
X221459522Y-139462438D01*
X221459522Y-139462438D02*
X221364284Y-139414819D01*
X221364284Y-139414819D02*
X221126189Y-139414819D01*
X221126189Y-139414819D02*
X221030951Y-139462438D01*
X221030951Y-139462438D02*
X220983332Y-139510057D01*
X220983332Y-139510057D02*
X220935713Y-139605295D01*
X220935713Y-139605295D02*
X220935713Y-139700533D01*
X220935713Y-139700533D02*
X220983332Y-139843390D01*
X220983332Y-139843390D02*
X221554760Y-140414819D01*
X221554760Y-140414819D02*
X220935713Y-140414819D01*
X220316665Y-139414819D02*
X220221427Y-139414819D01*
X220221427Y-139414819D02*
X220126189Y-139462438D01*
X220126189Y-139462438D02*
X220078570Y-139510057D01*
X220078570Y-139510057D02*
X220030951Y-139605295D01*
X220030951Y-139605295D02*
X219983332Y-139795771D01*
X219983332Y-139795771D02*
X219983332Y-140033866D01*
X219983332Y-140033866D02*
X220030951Y-140224342D01*
X220030951Y-140224342D02*
X220078570Y-140319580D01*
X220078570Y-140319580D02*
X220126189Y-140367200D01*
X220126189Y-140367200D02*
X220221427Y-140414819D01*
X220221427Y-140414819D02*
X220316665Y-140414819D01*
X220316665Y-140414819D02*
X220411903Y-140367200D01*
X220411903Y-140367200D02*
X220459522Y-140319580D01*
X220459522Y-140319580D02*
X220507141Y-140224342D01*
X220507141Y-140224342D02*
X220554760Y-140033866D01*
X220554760Y-140033866D02*
X220554760Y-139795771D01*
X220554760Y-139795771D02*
X220507141Y-139605295D01*
X220507141Y-139605295D02*
X220459522Y-139510057D01*
X220459522Y-139510057D02*
X220411903Y-139462438D01*
X220411903Y-139462438D02*
X220316665Y-139414819D01*
X219602379Y-139510057D02*
X219554760Y-139462438D01*
X219554760Y-139462438D02*
X219459522Y-139414819D01*
X219459522Y-139414819D02*
X219221427Y-139414819D01*
X219221427Y-139414819D02*
X219126189Y-139462438D01*
X219126189Y-139462438D02*
X219078570Y-139510057D01*
X219078570Y-139510057D02*
X219030951Y-139605295D01*
X219030951Y-139605295D02*
X219030951Y-139700533D01*
X219030951Y-139700533D02*
X219078570Y-139843390D01*
X219078570Y-139843390D02*
X219649998Y-140414819D01*
X219649998Y-140414819D02*
X219030951Y-140414819D01*
X218126189Y-139414819D02*
X218602379Y-139414819D01*
X218602379Y-139414819D02*
X218649998Y-139891009D01*
X218649998Y-139891009D02*
X218602379Y-139843390D01*
X218602379Y-139843390D02*
X218507141Y-139795771D01*
X218507141Y-139795771D02*
X218269046Y-139795771D01*
X218269046Y-139795771D02*
X218173808Y-139843390D01*
X218173808Y-139843390D02*
X218126189Y-139891009D01*
X218126189Y-139891009D02*
X218078570Y-139986247D01*
X218078570Y-139986247D02*
X218078570Y-140224342D01*
X218078570Y-140224342D02*
X218126189Y-140319580D01*
X218126189Y-140319580D02*
X218173808Y-140367200D01*
X218173808Y-140367200D02*
X218269046Y-140414819D01*
X218269046Y-140414819D02*
X218507141Y-140414819D01*
X218507141Y-140414819D02*
X218602379Y-140367200D01*
X218602379Y-140367200D02*
X218649998Y-140319580D01*
X235622858Y-138844819D02*
X235622858Y-137844819D01*
X235622858Y-138797200D02*
X235718096Y-138844819D01*
X235718096Y-138844819D02*
X235908572Y-138844819D01*
X235908572Y-138844819D02*
X236003810Y-138797200D01*
X236003810Y-138797200D02*
X236051429Y-138749580D01*
X236051429Y-138749580D02*
X236099048Y-138654342D01*
X236099048Y-138654342D02*
X236099048Y-138368628D01*
X236099048Y-138368628D02*
X236051429Y-138273390D01*
X236051429Y-138273390D02*
X236003810Y-138225771D01*
X236003810Y-138225771D02*
X235908572Y-138178152D01*
X235908572Y-138178152D02*
X235718096Y-138178152D01*
X235718096Y-138178152D02*
X235622858Y-138225771D01*
X234765715Y-138797200D02*
X234860953Y-138844819D01*
X234860953Y-138844819D02*
X235051429Y-138844819D01*
X235051429Y-138844819D02*
X235146667Y-138797200D01*
X235146667Y-138797200D02*
X235194286Y-138701961D01*
X235194286Y-138701961D02*
X235194286Y-138321009D01*
X235194286Y-138321009D02*
X235146667Y-138225771D01*
X235146667Y-138225771D02*
X235051429Y-138178152D01*
X235051429Y-138178152D02*
X234860953Y-138178152D01*
X234860953Y-138178152D02*
X234765715Y-138225771D01*
X234765715Y-138225771D02*
X234718096Y-138321009D01*
X234718096Y-138321009D02*
X234718096Y-138416247D01*
X234718096Y-138416247D02*
X235194286Y-138511485D01*
X234337143Y-138797200D02*
X234241905Y-138844819D01*
X234241905Y-138844819D02*
X234051429Y-138844819D01*
X234051429Y-138844819D02*
X233956191Y-138797200D01*
X233956191Y-138797200D02*
X233908572Y-138701961D01*
X233908572Y-138701961D02*
X233908572Y-138654342D01*
X233908572Y-138654342D02*
X233956191Y-138559104D01*
X233956191Y-138559104D02*
X234051429Y-138511485D01*
X234051429Y-138511485D02*
X234194286Y-138511485D01*
X234194286Y-138511485D02*
X234289524Y-138463866D01*
X234289524Y-138463866D02*
X234337143Y-138368628D01*
X234337143Y-138368628D02*
X234337143Y-138321009D01*
X234337143Y-138321009D02*
X234289524Y-138225771D01*
X234289524Y-138225771D02*
X234194286Y-138178152D01*
X234194286Y-138178152D02*
X234051429Y-138178152D01*
X234051429Y-138178152D02*
X233956191Y-138225771D01*
X233480000Y-138844819D02*
X233480000Y-138178152D01*
X233480000Y-137844819D02*
X233527619Y-137892438D01*
X233527619Y-137892438D02*
X233480000Y-137940057D01*
X233480000Y-137940057D02*
X233432381Y-137892438D01*
X233432381Y-137892438D02*
X233480000Y-137844819D01*
X233480000Y-137844819D02*
X233480000Y-137940057D01*
X232575239Y-138178152D02*
X232575239Y-138987676D01*
X232575239Y-138987676D02*
X232622858Y-139082914D01*
X232622858Y-139082914D02*
X232670477Y-139130533D01*
X232670477Y-139130533D02*
X232765715Y-139178152D01*
X232765715Y-139178152D02*
X232908572Y-139178152D01*
X232908572Y-139178152D02*
X233003810Y-139130533D01*
X232575239Y-138797200D02*
X232670477Y-138844819D01*
X232670477Y-138844819D02*
X232860953Y-138844819D01*
X232860953Y-138844819D02*
X232956191Y-138797200D01*
X232956191Y-138797200D02*
X233003810Y-138749580D01*
X233003810Y-138749580D02*
X233051429Y-138654342D01*
X233051429Y-138654342D02*
X233051429Y-138368628D01*
X233051429Y-138368628D02*
X233003810Y-138273390D01*
X233003810Y-138273390D02*
X232956191Y-138225771D01*
X232956191Y-138225771D02*
X232860953Y-138178152D01*
X232860953Y-138178152D02*
X232670477Y-138178152D01*
X232670477Y-138178152D02*
X232575239Y-138225771D01*
X232099048Y-138178152D02*
X232099048Y-138844819D01*
X232099048Y-138273390D02*
X232051429Y-138225771D01*
X232051429Y-138225771D02*
X231956191Y-138178152D01*
X231956191Y-138178152D02*
X231813334Y-138178152D01*
X231813334Y-138178152D02*
X231718096Y-138225771D01*
X231718096Y-138225771D02*
X231670477Y-138321009D01*
X231670477Y-138321009D02*
X231670477Y-138844819D01*
X230813334Y-138797200D02*
X230908572Y-138844819D01*
X230908572Y-138844819D02*
X231099048Y-138844819D01*
X231099048Y-138844819D02*
X231194286Y-138797200D01*
X231194286Y-138797200D02*
X231241905Y-138701961D01*
X231241905Y-138701961D02*
X231241905Y-138321009D01*
X231241905Y-138321009D02*
X231194286Y-138225771D01*
X231194286Y-138225771D02*
X231099048Y-138178152D01*
X231099048Y-138178152D02*
X230908572Y-138178152D01*
X230908572Y-138178152D02*
X230813334Y-138225771D01*
X230813334Y-138225771D02*
X230765715Y-138321009D01*
X230765715Y-138321009D02*
X230765715Y-138416247D01*
X230765715Y-138416247D02*
X231241905Y-138511485D01*
X229908572Y-138844819D02*
X229908572Y-137844819D01*
X229908572Y-138797200D02*
X230003810Y-138844819D01*
X230003810Y-138844819D02*
X230194286Y-138844819D01*
X230194286Y-138844819D02*
X230289524Y-138797200D01*
X230289524Y-138797200D02*
X230337143Y-138749580D01*
X230337143Y-138749580D02*
X230384762Y-138654342D01*
X230384762Y-138654342D02*
X230384762Y-138368628D01*
X230384762Y-138368628D02*
X230337143Y-138273390D01*
X230337143Y-138273390D02*
X230289524Y-138225771D01*
X230289524Y-138225771D02*
X230194286Y-138178152D01*
X230194286Y-138178152D02*
X230003810Y-138178152D01*
X230003810Y-138178152D02*
X229908572Y-138225771D01*
X228670476Y-138844819D02*
X228670476Y-137844819D01*
X228670476Y-138225771D02*
X228575238Y-138178152D01*
X228575238Y-138178152D02*
X228384762Y-138178152D01*
X228384762Y-138178152D02*
X228289524Y-138225771D01*
X228289524Y-138225771D02*
X228241905Y-138273390D01*
X228241905Y-138273390D02*
X228194286Y-138368628D01*
X228194286Y-138368628D02*
X228194286Y-138654342D01*
X228194286Y-138654342D02*
X228241905Y-138749580D01*
X228241905Y-138749580D02*
X228289524Y-138797200D01*
X228289524Y-138797200D02*
X228384762Y-138844819D01*
X228384762Y-138844819D02*
X228575238Y-138844819D01*
X228575238Y-138844819D02*
X228670476Y-138797200D01*
X227860952Y-138178152D02*
X227622857Y-138844819D01*
X227384762Y-138178152D02*
X227622857Y-138844819D01*
X227622857Y-138844819D02*
X227718095Y-139082914D01*
X227718095Y-139082914D02*
X227765714Y-139130533D01*
X227765714Y-139130533D02*
X227860952Y-139178152D01*
X226241904Y-138844819D02*
X226241904Y-137844819D01*
X226241904Y-137844819D02*
X225908571Y-138559104D01*
X225908571Y-138559104D02*
X225575238Y-137844819D01*
X225575238Y-137844819D02*
X225575238Y-138844819D01*
X225099047Y-138844819D02*
X225099047Y-137844819D01*
X224527619Y-138844819D02*
X224956190Y-138273390D01*
X224527619Y-137844819D02*
X225099047Y-138416247D01*
X223384761Y-137940057D02*
X223337142Y-137892438D01*
X223337142Y-137892438D02*
X223241904Y-137844819D01*
X223241904Y-137844819D02*
X223003809Y-137844819D01*
X223003809Y-137844819D02*
X222908571Y-137892438D01*
X222908571Y-137892438D02*
X222860952Y-137940057D01*
X222860952Y-137940057D02*
X222813333Y-138035295D01*
X222813333Y-138035295D02*
X222813333Y-138130533D01*
X222813333Y-138130533D02*
X222860952Y-138273390D01*
X222860952Y-138273390D02*
X223432380Y-138844819D01*
X223432380Y-138844819D02*
X222813333Y-138844819D01*
X222194285Y-137844819D02*
X222099047Y-137844819D01*
X222099047Y-137844819D02*
X222003809Y-137892438D01*
X222003809Y-137892438D02*
X221956190Y-137940057D01*
X221956190Y-137940057D02*
X221908571Y-138035295D01*
X221908571Y-138035295D02*
X221860952Y-138225771D01*
X221860952Y-138225771D02*
X221860952Y-138463866D01*
X221860952Y-138463866D02*
X221908571Y-138654342D01*
X221908571Y-138654342D02*
X221956190Y-138749580D01*
X221956190Y-138749580D02*
X222003809Y-138797200D01*
X222003809Y-138797200D02*
X222099047Y-138844819D01*
X222099047Y-138844819D02*
X222194285Y-138844819D01*
X222194285Y-138844819D02*
X222289523Y-138797200D01*
X222289523Y-138797200D02*
X222337142Y-138749580D01*
X222337142Y-138749580D02*
X222384761Y-138654342D01*
X222384761Y-138654342D02*
X222432380Y-138463866D01*
X222432380Y-138463866D02*
X222432380Y-138225771D01*
X222432380Y-138225771D02*
X222384761Y-138035295D01*
X222384761Y-138035295D02*
X222337142Y-137940057D01*
X222337142Y-137940057D02*
X222289523Y-137892438D01*
X222289523Y-137892438D02*
X222194285Y-137844819D01*
X221479999Y-137940057D02*
X221432380Y-137892438D01*
X221432380Y-137892438D02*
X221337142Y-137844819D01*
X221337142Y-137844819D02*
X221099047Y-137844819D01*
X221099047Y-137844819D02*
X221003809Y-137892438D01*
X221003809Y-137892438D02*
X220956190Y-137940057D01*
X220956190Y-137940057D02*
X220908571Y-138035295D01*
X220908571Y-138035295D02*
X220908571Y-138130533D01*
X220908571Y-138130533D02*
X220956190Y-138273390D01*
X220956190Y-138273390D02*
X221527618Y-138844819D01*
X221527618Y-138844819D02*
X220908571Y-138844819D01*
X220051428Y-138178152D02*
X220051428Y-138844819D01*
X220289523Y-137797200D02*
X220527618Y-138511485D01*
X220527618Y-138511485D02*
X219908571Y-138511485D01*
X218479999Y-139225771D02*
X218527618Y-139178152D01*
X218527618Y-139178152D02*
X218622856Y-139035295D01*
X218622856Y-139035295D02*
X218670475Y-138940057D01*
X218670475Y-138940057D02*
X218718094Y-138797200D01*
X218718094Y-138797200D02*
X218765713Y-138559104D01*
X218765713Y-138559104D02*
X218765713Y-138368628D01*
X218765713Y-138368628D02*
X218718094Y-138130533D01*
X218718094Y-138130533D02*
X218670475Y-137987676D01*
X218670475Y-137987676D02*
X218622856Y-137892438D01*
X218622856Y-137892438D02*
X218527618Y-137749580D01*
X218527618Y-137749580D02*
X218479999Y-137701961D01*
X217527618Y-138844819D02*
X217860951Y-138368628D01*
X218099046Y-138844819D02*
X218099046Y-137844819D01*
X218099046Y-137844819D02*
X217718094Y-137844819D01*
X217718094Y-137844819D02*
X217622856Y-137892438D01*
X217622856Y-137892438D02*
X217575237Y-137940057D01*
X217575237Y-137940057D02*
X217527618Y-138035295D01*
X217527618Y-138035295D02*
X217527618Y-138178152D01*
X217527618Y-138178152D02*
X217575237Y-138273390D01*
X217575237Y-138273390D02*
X217622856Y-138321009D01*
X217622856Y-138321009D02*
X217718094Y-138368628D01*
X217718094Y-138368628D02*
X218099046Y-138368628D01*
X217194284Y-139225771D02*
X217146665Y-139178152D01*
X217146665Y-139178152D02*
X217051427Y-139035295D01*
X217051427Y-139035295D02*
X217003808Y-138940057D01*
X217003808Y-138940057D02*
X216956189Y-138797200D01*
X216956189Y-138797200D02*
X216908570Y-138559104D01*
X216908570Y-138559104D02*
X216908570Y-138368628D01*
X216908570Y-138368628D02*
X216956189Y-138130533D01*
X216956189Y-138130533D02*
X217003808Y-137987676D01*
X217003808Y-137987676D02*
X217051427Y-137892438D01*
X217051427Y-137892438D02*
X217146665Y-137749580D01*
X217146665Y-137749580D02*
X217194284Y-137701961D01*
D10*
X224743258Y-73410371D02*
X224838496Y-73367514D01*
X224838496Y-73367514D02*
X224886115Y-73324657D01*
X224886115Y-73324657D02*
X224933734Y-73238942D01*
X224933734Y-73238942D02*
X224933734Y-73196085D01*
X224933734Y-73196085D02*
X224886115Y-73110371D01*
X224886115Y-73110371D02*
X224838496Y-73067514D01*
X224838496Y-73067514D02*
X224743258Y-73024657D01*
X224743258Y-73024657D02*
X224552782Y-73024657D01*
X224552782Y-73024657D02*
X224457544Y-73067514D01*
X224457544Y-73067514D02*
X224409925Y-73110371D01*
X224409925Y-73110371D02*
X224362306Y-73196085D01*
X224362306Y-73196085D02*
X224362306Y-73238942D01*
X224362306Y-73238942D02*
X224409925Y-73324657D01*
X224409925Y-73324657D02*
X224457544Y-73367514D01*
X224457544Y-73367514D02*
X224552782Y-73410371D01*
X224552782Y-73410371D02*
X224743258Y-73410371D01*
X224743258Y-73410371D02*
X224838496Y-73453228D01*
X224838496Y-73453228D02*
X224886115Y-73496085D01*
X224886115Y-73496085D02*
X224933734Y-73581800D01*
X224933734Y-73581800D02*
X224933734Y-73753228D01*
X224933734Y-73753228D02*
X224886115Y-73838942D01*
X224886115Y-73838942D02*
X224838496Y-73881800D01*
X224838496Y-73881800D02*
X224743258Y-73924657D01*
X224743258Y-73924657D02*
X224552782Y-73924657D01*
X224552782Y-73924657D02*
X224457544Y-73881800D01*
X224457544Y-73881800D02*
X224409925Y-73838942D01*
X224409925Y-73838942D02*
X224362306Y-73753228D01*
X224362306Y-73753228D02*
X224362306Y-73581800D01*
X224362306Y-73581800D02*
X224409925Y-73496085D01*
X224409925Y-73496085D02*
X224457544Y-73453228D01*
X224457544Y-73453228D02*
X224552782Y-73410371D01*
X224028972Y-73924657D02*
X223505163Y-73324657D01*
X224028972Y-73324657D02*
X223505163Y-73924657D01*
X221933734Y-73024657D02*
X222124210Y-73024657D01*
X222124210Y-73024657D02*
X222219448Y-73067514D01*
X222219448Y-73067514D02*
X222267067Y-73110371D01*
X222267067Y-73110371D02*
X222362305Y-73238942D01*
X222362305Y-73238942D02*
X222409924Y-73410371D01*
X222409924Y-73410371D02*
X222409924Y-73753228D01*
X222409924Y-73753228D02*
X222362305Y-73838942D01*
X222362305Y-73838942D02*
X222314686Y-73881800D01*
X222314686Y-73881800D02*
X222219448Y-73924657D01*
X222219448Y-73924657D02*
X222028972Y-73924657D01*
X222028972Y-73924657D02*
X221933734Y-73881800D01*
X221933734Y-73881800D02*
X221886115Y-73838942D01*
X221886115Y-73838942D02*
X221838496Y-73753228D01*
X221838496Y-73753228D02*
X221838496Y-73538942D01*
X221838496Y-73538942D02*
X221886115Y-73453228D01*
X221886115Y-73453228D02*
X221933734Y-73410371D01*
X221933734Y-73410371D02*
X222028972Y-73367514D01*
X222028972Y-73367514D02*
X222219448Y-73367514D01*
X222219448Y-73367514D02*
X222314686Y-73410371D01*
X222314686Y-73410371D02*
X222362305Y-73453228D01*
X222362305Y-73453228D02*
X222409924Y-73538942D01*
X221409924Y-73838942D02*
X221362305Y-73881800D01*
X221362305Y-73881800D02*
X221409924Y-73924657D01*
X221409924Y-73924657D02*
X221457543Y-73881800D01*
X221457543Y-73881800D02*
X221409924Y-73838942D01*
X221409924Y-73838942D02*
X221409924Y-73924657D01*
X220790877Y-73410371D02*
X220886115Y-73367514D01*
X220886115Y-73367514D02*
X220933734Y-73324657D01*
X220933734Y-73324657D02*
X220981353Y-73238942D01*
X220981353Y-73238942D02*
X220981353Y-73196085D01*
X220981353Y-73196085D02*
X220933734Y-73110371D01*
X220933734Y-73110371D02*
X220886115Y-73067514D01*
X220886115Y-73067514D02*
X220790877Y-73024657D01*
X220790877Y-73024657D02*
X220600401Y-73024657D01*
X220600401Y-73024657D02*
X220505163Y-73067514D01*
X220505163Y-73067514D02*
X220457544Y-73110371D01*
X220457544Y-73110371D02*
X220409925Y-73196085D01*
X220409925Y-73196085D02*
X220409925Y-73238942D01*
X220409925Y-73238942D02*
X220457544Y-73324657D01*
X220457544Y-73324657D02*
X220505163Y-73367514D01*
X220505163Y-73367514D02*
X220600401Y-73410371D01*
X220600401Y-73410371D02*
X220790877Y-73410371D01*
X220790877Y-73410371D02*
X220886115Y-73453228D01*
X220886115Y-73453228D02*
X220933734Y-73496085D01*
X220933734Y-73496085D02*
X220981353Y-73581800D01*
X220981353Y-73581800D02*
X220981353Y-73753228D01*
X220981353Y-73753228D02*
X220933734Y-73838942D01*
X220933734Y-73838942D02*
X220886115Y-73881800D01*
X220886115Y-73881800D02*
X220790877Y-73924657D01*
X220790877Y-73924657D02*
X220600401Y-73924657D01*
X220600401Y-73924657D02*
X220505163Y-73881800D01*
X220505163Y-73881800D02*
X220457544Y-73838942D01*
X220457544Y-73838942D02*
X220409925Y-73753228D01*
X220409925Y-73753228D02*
X220409925Y-73581800D01*
X220409925Y-73581800D02*
X220457544Y-73496085D01*
X220457544Y-73496085D02*
X220505163Y-73453228D01*
X220505163Y-73453228D02*
X220600401Y-73410371D01*
X219981353Y-73924657D02*
X219981353Y-73024657D01*
X219886115Y-73581800D02*
X219600401Y-73924657D01*
X219600401Y-73324657D02*
X219981353Y-73667514D01*
D11*
X166456357Y-106657580D02*
X166503976Y-106705200D01*
X166503976Y-106705200D02*
X166646833Y-106752819D01*
X166646833Y-106752819D02*
X166742071Y-106752819D01*
X166742071Y-106752819D02*
X166884928Y-106705200D01*
X166884928Y-106705200D02*
X166980166Y-106609961D01*
X166980166Y-106609961D02*
X167027785Y-106514723D01*
X167027785Y-106514723D02*
X167075404Y-106324247D01*
X167075404Y-106324247D02*
X167075404Y-106181390D01*
X167075404Y-106181390D02*
X167027785Y-105990914D01*
X167027785Y-105990914D02*
X166980166Y-105895676D01*
X166980166Y-105895676D02*
X166884928Y-105800438D01*
X166884928Y-105800438D02*
X166742071Y-105752819D01*
X166742071Y-105752819D02*
X166646833Y-105752819D01*
X166646833Y-105752819D02*
X166503976Y-105800438D01*
X166503976Y-105800438D02*
X166456357Y-105848057D01*
X166075404Y-105848057D02*
X166027785Y-105800438D01*
X166027785Y-105800438D02*
X165932547Y-105752819D01*
X165932547Y-105752819D02*
X165694452Y-105752819D01*
X165694452Y-105752819D02*
X165599214Y-105800438D01*
X165599214Y-105800438D02*
X165551595Y-105848057D01*
X165551595Y-105848057D02*
X165503976Y-105943295D01*
X165503976Y-105943295D02*
X165503976Y-106038533D01*
X165503976Y-106038533D02*
X165551595Y-106181390D01*
X165551595Y-106181390D02*
X166123023Y-106752819D01*
X166123023Y-106752819D02*
X165503976Y-106752819D01*
X165123023Y-105848057D02*
X165075404Y-105800438D01*
X165075404Y-105800438D02*
X164980166Y-105752819D01*
X164980166Y-105752819D02*
X164742071Y-105752819D01*
X164742071Y-105752819D02*
X164646833Y-105800438D01*
X164646833Y-105800438D02*
X164599214Y-105848057D01*
X164599214Y-105848057D02*
X164551595Y-105943295D01*
X164551595Y-105943295D02*
X164551595Y-106038533D01*
X164551595Y-106038533D02*
X164599214Y-106181390D01*
X164599214Y-106181390D02*
X165170642Y-106752819D01*
X165170642Y-106752819D02*
X164551595Y-106752819D01*
X172064580Y-92653642D02*
X172112200Y-92606023D01*
X172112200Y-92606023D02*
X172159819Y-92463166D01*
X172159819Y-92463166D02*
X172159819Y-92367928D01*
X172159819Y-92367928D02*
X172112200Y-92225071D01*
X172112200Y-92225071D02*
X172016961Y-92129833D01*
X172016961Y-92129833D02*
X171921723Y-92082214D01*
X171921723Y-92082214D02*
X171731247Y-92034595D01*
X171731247Y-92034595D02*
X171588390Y-92034595D01*
X171588390Y-92034595D02*
X171397914Y-92082214D01*
X171397914Y-92082214D02*
X171302676Y-92129833D01*
X171302676Y-92129833D02*
X171207438Y-92225071D01*
X171207438Y-92225071D02*
X171159819Y-92367928D01*
X171159819Y-92367928D02*
X171159819Y-92463166D01*
X171159819Y-92463166D02*
X171207438Y-92606023D01*
X171207438Y-92606023D02*
X171255057Y-92653642D01*
X171255057Y-93034595D02*
X171207438Y-93082214D01*
X171207438Y-93082214D02*
X171159819Y-93177452D01*
X171159819Y-93177452D02*
X171159819Y-93415547D01*
X171159819Y-93415547D02*
X171207438Y-93510785D01*
X171207438Y-93510785D02*
X171255057Y-93558404D01*
X171255057Y-93558404D02*
X171350295Y-93606023D01*
X171350295Y-93606023D02*
X171445533Y-93606023D01*
X171445533Y-93606023D02*
X171588390Y-93558404D01*
X171588390Y-93558404D02*
X172159819Y-92986976D01*
X172159819Y-92986976D02*
X172159819Y-93606023D01*
X171159819Y-93939357D02*
X171159819Y-94558404D01*
X171159819Y-94558404D02*
X171540771Y-94225071D01*
X171540771Y-94225071D02*
X171540771Y-94367928D01*
X171540771Y-94367928D02*
X171588390Y-94463166D01*
X171588390Y-94463166D02*
X171636009Y-94510785D01*
X171636009Y-94510785D02*
X171731247Y-94558404D01*
X171731247Y-94558404D02*
X171969342Y-94558404D01*
X171969342Y-94558404D02*
X172064580Y-94510785D01*
X172064580Y-94510785D02*
X172112200Y-94463166D01*
X172112200Y-94463166D02*
X172159819Y-94367928D01*
X172159819Y-94367928D02*
X172159819Y-94082214D01*
X172159819Y-94082214D02*
X172112200Y-93986976D01*
X172112200Y-93986976D02*
X172064580Y-93939357D01*
X166982580Y-115767642D02*
X167030200Y-115720023D01*
X167030200Y-115720023D02*
X167077819Y-115577166D01*
X167077819Y-115577166D02*
X167077819Y-115481928D01*
X167077819Y-115481928D02*
X167030200Y-115339071D01*
X167030200Y-115339071D02*
X166934961Y-115243833D01*
X166934961Y-115243833D02*
X166839723Y-115196214D01*
X166839723Y-115196214D02*
X166649247Y-115148595D01*
X166649247Y-115148595D02*
X166506390Y-115148595D01*
X166506390Y-115148595D02*
X166315914Y-115196214D01*
X166315914Y-115196214D02*
X166220676Y-115243833D01*
X166220676Y-115243833D02*
X166125438Y-115339071D01*
X166125438Y-115339071D02*
X166077819Y-115481928D01*
X166077819Y-115481928D02*
X166077819Y-115577166D01*
X166077819Y-115577166D02*
X166125438Y-115720023D01*
X166125438Y-115720023D02*
X166173057Y-115767642D01*
X166173057Y-116148595D02*
X166125438Y-116196214D01*
X166125438Y-116196214D02*
X166077819Y-116291452D01*
X166077819Y-116291452D02*
X166077819Y-116529547D01*
X166077819Y-116529547D02*
X166125438Y-116624785D01*
X166125438Y-116624785D02*
X166173057Y-116672404D01*
X166173057Y-116672404D02*
X166268295Y-116720023D01*
X166268295Y-116720023D02*
X166363533Y-116720023D01*
X166363533Y-116720023D02*
X166506390Y-116672404D01*
X166506390Y-116672404D02*
X167077819Y-116100976D01*
X167077819Y-116100976D02*
X167077819Y-116720023D01*
X166411152Y-117577166D02*
X167077819Y-117577166D01*
X166030200Y-117339071D02*
X166744485Y-117100976D01*
X166744485Y-117100976D02*
X166744485Y-117720023D01*
X189570357Y-105311080D02*
X189617976Y-105358700D01*
X189617976Y-105358700D02*
X189760833Y-105406319D01*
X189760833Y-105406319D02*
X189856071Y-105406319D01*
X189856071Y-105406319D02*
X189998928Y-105358700D01*
X189998928Y-105358700D02*
X190094166Y-105263461D01*
X190094166Y-105263461D02*
X190141785Y-105168223D01*
X190141785Y-105168223D02*
X190189404Y-104977747D01*
X190189404Y-104977747D02*
X190189404Y-104834890D01*
X190189404Y-104834890D02*
X190141785Y-104644414D01*
X190141785Y-104644414D02*
X190094166Y-104549176D01*
X190094166Y-104549176D02*
X189998928Y-104453938D01*
X189998928Y-104453938D02*
X189856071Y-104406319D01*
X189856071Y-104406319D02*
X189760833Y-104406319D01*
X189760833Y-104406319D02*
X189617976Y-104453938D01*
X189617976Y-104453938D02*
X189570357Y-104501557D01*
X189189404Y-104501557D02*
X189141785Y-104453938D01*
X189141785Y-104453938D02*
X189046547Y-104406319D01*
X189046547Y-104406319D02*
X188808452Y-104406319D01*
X188808452Y-104406319D02*
X188713214Y-104453938D01*
X188713214Y-104453938D02*
X188665595Y-104501557D01*
X188665595Y-104501557D02*
X188617976Y-104596795D01*
X188617976Y-104596795D02*
X188617976Y-104692033D01*
X188617976Y-104692033D02*
X188665595Y-104834890D01*
X188665595Y-104834890D02*
X189237023Y-105406319D01*
X189237023Y-105406319D02*
X188617976Y-105406319D01*
X187760833Y-104406319D02*
X187951309Y-104406319D01*
X187951309Y-104406319D02*
X188046547Y-104453938D01*
X188046547Y-104453938D02*
X188094166Y-104501557D01*
X188094166Y-104501557D02*
X188189404Y-104644414D01*
X188189404Y-104644414D02*
X188237023Y-104834890D01*
X188237023Y-104834890D02*
X188237023Y-105215842D01*
X188237023Y-105215842D02*
X188189404Y-105311080D01*
X188189404Y-105311080D02*
X188141785Y-105358700D01*
X188141785Y-105358700D02*
X188046547Y-105406319D01*
X188046547Y-105406319D02*
X187856071Y-105406319D01*
X187856071Y-105406319D02*
X187760833Y-105358700D01*
X187760833Y-105358700D02*
X187713214Y-105311080D01*
X187713214Y-105311080D02*
X187665595Y-105215842D01*
X187665595Y-105215842D02*
X187665595Y-104977747D01*
X187665595Y-104977747D02*
X187713214Y-104882509D01*
X187713214Y-104882509D02*
X187760833Y-104834890D01*
X187760833Y-104834890D02*
X187856071Y-104787271D01*
X187856071Y-104787271D02*
X188046547Y-104787271D01*
X188046547Y-104787271D02*
X188141785Y-104834890D01*
X188141785Y-104834890D02*
X188189404Y-104882509D01*
X188189404Y-104882509D02*
X188237023Y-104977747D01*
X184602333Y-97520819D02*
X184602333Y-98235104D01*
X184602333Y-98235104D02*
X184649952Y-98377961D01*
X184649952Y-98377961D02*
X184745190Y-98473200D01*
X184745190Y-98473200D02*
X184888047Y-98520819D01*
X184888047Y-98520819D02*
X184983285Y-98520819D01*
X184126142Y-98520819D02*
X184126142Y-97520819D01*
X184126142Y-97520819D02*
X183745190Y-97520819D01*
X183745190Y-97520819D02*
X183649952Y-97568438D01*
X183649952Y-97568438D02*
X183602333Y-97616057D01*
X183602333Y-97616057D02*
X183554714Y-97711295D01*
X183554714Y-97711295D02*
X183554714Y-97854152D01*
X183554714Y-97854152D02*
X183602333Y-97949390D01*
X183602333Y-97949390D02*
X183649952Y-97997009D01*
X183649952Y-97997009D02*
X183745190Y-98044628D01*
X183745190Y-98044628D02*
X184126142Y-98044628D01*
X182935666Y-97520819D02*
X182840428Y-97520819D01*
X182840428Y-97520819D02*
X182745190Y-97568438D01*
X182745190Y-97568438D02*
X182697571Y-97616057D01*
X182697571Y-97616057D02*
X182649952Y-97711295D01*
X182649952Y-97711295D02*
X182602333Y-97901771D01*
X182602333Y-97901771D02*
X182602333Y-98139866D01*
X182602333Y-98139866D02*
X182649952Y-98330342D01*
X182649952Y-98330342D02*
X182697571Y-98425580D01*
X182697571Y-98425580D02*
X182745190Y-98473200D01*
X182745190Y-98473200D02*
X182840428Y-98520819D01*
X182840428Y-98520819D02*
X182935666Y-98520819D01*
X182935666Y-98520819D02*
X183030904Y-98473200D01*
X183030904Y-98473200D02*
X183078523Y-98425580D01*
X183078523Y-98425580D02*
X183126142Y-98330342D01*
X183126142Y-98330342D02*
X183173761Y-98139866D01*
X183173761Y-98139866D02*
X183173761Y-97901771D01*
X183173761Y-97901771D02*
X183126142Y-97711295D01*
X183126142Y-97711295D02*
X183078523Y-97616057D01*
X183078523Y-97616057D02*
X183030904Y-97568438D01*
X183030904Y-97568438D02*
X182935666Y-97520819D01*
X128610357Y-78717580D02*
X128657976Y-78765200D01*
X128657976Y-78765200D02*
X128800833Y-78812819D01*
X128800833Y-78812819D02*
X128896071Y-78812819D01*
X128896071Y-78812819D02*
X129038928Y-78765200D01*
X129038928Y-78765200D02*
X129134166Y-78669961D01*
X129134166Y-78669961D02*
X129181785Y-78574723D01*
X129181785Y-78574723D02*
X129229404Y-78384247D01*
X129229404Y-78384247D02*
X129229404Y-78241390D01*
X129229404Y-78241390D02*
X129181785Y-78050914D01*
X129181785Y-78050914D02*
X129134166Y-77955676D01*
X129134166Y-77955676D02*
X129038928Y-77860438D01*
X129038928Y-77860438D02*
X128896071Y-77812819D01*
X128896071Y-77812819D02*
X128800833Y-77812819D01*
X128800833Y-77812819D02*
X128657976Y-77860438D01*
X128657976Y-77860438D02*
X128610357Y-77908057D01*
X127753214Y-78146152D02*
X127753214Y-78812819D01*
X127991309Y-77765200D02*
X128229404Y-78479485D01*
X128229404Y-78479485D02*
X127610357Y-78479485D01*
X126800833Y-78146152D02*
X126800833Y-78812819D01*
X127038928Y-77765200D02*
X127277023Y-78479485D01*
X127277023Y-78479485D02*
X126657976Y-78479485D01*
X128610357Y-137899580D02*
X128657976Y-137947200D01*
X128657976Y-137947200D02*
X128800833Y-137994819D01*
X128800833Y-137994819D02*
X128896071Y-137994819D01*
X128896071Y-137994819D02*
X129038928Y-137947200D01*
X129038928Y-137947200D02*
X129134166Y-137851961D01*
X129134166Y-137851961D02*
X129181785Y-137756723D01*
X129181785Y-137756723D02*
X129229404Y-137566247D01*
X129229404Y-137566247D02*
X129229404Y-137423390D01*
X129229404Y-137423390D02*
X129181785Y-137232914D01*
X129181785Y-137232914D02*
X129134166Y-137137676D01*
X129134166Y-137137676D02*
X129038928Y-137042438D01*
X129038928Y-137042438D02*
X128896071Y-136994819D01*
X128896071Y-136994819D02*
X128800833Y-136994819D01*
X128800833Y-136994819D02*
X128657976Y-137042438D01*
X128657976Y-137042438D02*
X128610357Y-137090057D01*
X127753214Y-137328152D02*
X127753214Y-137994819D01*
X127991309Y-136947200D02*
X128229404Y-137661485D01*
X128229404Y-137661485D02*
X127610357Y-137661485D01*
X126705595Y-137994819D02*
X127277023Y-137994819D01*
X126991309Y-137994819D02*
X126991309Y-136994819D01*
X126991309Y-136994819D02*
X127086547Y-137137676D01*
X127086547Y-137137676D02*
X127181785Y-137232914D01*
X127181785Y-137232914D02*
X127277023Y-137280533D01*
X128610357Y-113519580D02*
X128657976Y-113567200D01*
X128657976Y-113567200D02*
X128800833Y-113614819D01*
X128800833Y-113614819D02*
X128896071Y-113614819D01*
X128896071Y-113614819D02*
X129038928Y-113567200D01*
X129038928Y-113567200D02*
X129134166Y-113471961D01*
X129134166Y-113471961D02*
X129181785Y-113376723D01*
X129181785Y-113376723D02*
X129229404Y-113186247D01*
X129229404Y-113186247D02*
X129229404Y-113043390D01*
X129229404Y-113043390D02*
X129181785Y-112852914D01*
X129181785Y-112852914D02*
X129134166Y-112757676D01*
X129134166Y-112757676D02*
X129038928Y-112662438D01*
X129038928Y-112662438D02*
X128896071Y-112614819D01*
X128896071Y-112614819D02*
X128800833Y-112614819D01*
X128800833Y-112614819D02*
X128657976Y-112662438D01*
X128657976Y-112662438D02*
X128610357Y-112710057D01*
X127753214Y-112948152D02*
X127753214Y-113614819D01*
X127991309Y-112567200D02*
X128229404Y-113281485D01*
X128229404Y-113281485D02*
X127610357Y-113281485D01*
X127277023Y-112710057D02*
X127229404Y-112662438D01*
X127229404Y-112662438D02*
X127134166Y-112614819D01*
X127134166Y-112614819D02*
X126896071Y-112614819D01*
X126896071Y-112614819D02*
X126800833Y-112662438D01*
X126800833Y-112662438D02*
X126753214Y-112710057D01*
X126753214Y-112710057D02*
X126705595Y-112805295D01*
X126705595Y-112805295D02*
X126705595Y-112900533D01*
X126705595Y-112900533D02*
X126753214Y-113043390D01*
X126753214Y-113043390D02*
X127324642Y-113614819D01*
X127324642Y-113614819D02*
X126705595Y-113614819D01*
X128610357Y-100831580D02*
X128657976Y-100879200D01*
X128657976Y-100879200D02*
X128800833Y-100926819D01*
X128800833Y-100926819D02*
X128896071Y-100926819D01*
X128896071Y-100926819D02*
X129038928Y-100879200D01*
X129038928Y-100879200D02*
X129134166Y-100783961D01*
X129134166Y-100783961D02*
X129181785Y-100688723D01*
X129181785Y-100688723D02*
X129229404Y-100498247D01*
X129229404Y-100498247D02*
X129229404Y-100355390D01*
X129229404Y-100355390D02*
X129181785Y-100164914D01*
X129181785Y-100164914D02*
X129134166Y-100069676D01*
X129134166Y-100069676D02*
X129038928Y-99974438D01*
X129038928Y-99974438D02*
X128896071Y-99926819D01*
X128896071Y-99926819D02*
X128800833Y-99926819D01*
X128800833Y-99926819D02*
X128657976Y-99974438D01*
X128657976Y-99974438D02*
X128610357Y-100022057D01*
X127753214Y-100260152D02*
X127753214Y-100926819D01*
X127991309Y-99879200D02*
X128229404Y-100593485D01*
X128229404Y-100593485D02*
X127610357Y-100593485D01*
X127324642Y-99926819D02*
X126705595Y-99926819D01*
X126705595Y-99926819D02*
X127038928Y-100307771D01*
X127038928Y-100307771D02*
X126896071Y-100307771D01*
X126896071Y-100307771D02*
X126800833Y-100355390D01*
X126800833Y-100355390D02*
X126753214Y-100403009D01*
X126753214Y-100403009D02*
X126705595Y-100498247D01*
X126705595Y-100498247D02*
X126705595Y-100736342D01*
X126705595Y-100736342D02*
X126753214Y-100831580D01*
X126753214Y-100831580D02*
X126800833Y-100879200D01*
X126800833Y-100879200D02*
X126896071Y-100926819D01*
X126896071Y-100926819D02*
X127181785Y-100926819D01*
X127181785Y-100926819D02*
X127277023Y-100879200D01*
X127277023Y-100879200D02*
X127324642Y-100831580D01*
X110497857Y-78209580D02*
X110545476Y-78257200D01*
X110545476Y-78257200D02*
X110688333Y-78304819D01*
X110688333Y-78304819D02*
X110783571Y-78304819D01*
X110783571Y-78304819D02*
X110926428Y-78257200D01*
X110926428Y-78257200D02*
X111021666Y-78161961D01*
X111021666Y-78161961D02*
X111069285Y-78066723D01*
X111069285Y-78066723D02*
X111116904Y-77876247D01*
X111116904Y-77876247D02*
X111116904Y-77733390D01*
X111116904Y-77733390D02*
X111069285Y-77542914D01*
X111069285Y-77542914D02*
X111021666Y-77447676D01*
X111021666Y-77447676D02*
X110926428Y-77352438D01*
X110926428Y-77352438D02*
X110783571Y-77304819D01*
X110783571Y-77304819D02*
X110688333Y-77304819D01*
X110688333Y-77304819D02*
X110545476Y-77352438D01*
X110545476Y-77352438D02*
X110497857Y-77400057D01*
X109640714Y-77638152D02*
X109640714Y-78304819D01*
X109878809Y-77257200D02*
X110116904Y-77971485D01*
X110116904Y-77971485D02*
X109497857Y-77971485D01*
X108974047Y-77733390D02*
X109069285Y-77685771D01*
X109069285Y-77685771D02*
X109116904Y-77638152D01*
X109116904Y-77638152D02*
X109164523Y-77542914D01*
X109164523Y-77542914D02*
X109164523Y-77495295D01*
X109164523Y-77495295D02*
X109116904Y-77400057D01*
X109116904Y-77400057D02*
X109069285Y-77352438D01*
X109069285Y-77352438D02*
X108974047Y-77304819D01*
X108974047Y-77304819D02*
X108783571Y-77304819D01*
X108783571Y-77304819D02*
X108688333Y-77352438D01*
X108688333Y-77352438D02*
X108640714Y-77400057D01*
X108640714Y-77400057D02*
X108593095Y-77495295D01*
X108593095Y-77495295D02*
X108593095Y-77542914D01*
X108593095Y-77542914D02*
X108640714Y-77638152D01*
X108640714Y-77638152D02*
X108688333Y-77685771D01*
X108688333Y-77685771D02*
X108783571Y-77733390D01*
X108783571Y-77733390D02*
X108974047Y-77733390D01*
X108974047Y-77733390D02*
X109069285Y-77781009D01*
X109069285Y-77781009D02*
X109116904Y-77828628D01*
X109116904Y-77828628D02*
X109164523Y-77923866D01*
X109164523Y-77923866D02*
X109164523Y-78114342D01*
X109164523Y-78114342D02*
X109116904Y-78209580D01*
X109116904Y-78209580D02*
X109069285Y-78257200D01*
X109069285Y-78257200D02*
X108974047Y-78304819D01*
X108974047Y-78304819D02*
X108783571Y-78304819D01*
X108783571Y-78304819D02*
X108688333Y-78257200D01*
X108688333Y-78257200D02*
X108640714Y-78209580D01*
X108640714Y-78209580D02*
X108593095Y-78114342D01*
X108593095Y-78114342D02*
X108593095Y-77923866D01*
X108593095Y-77923866D02*
X108640714Y-77828628D01*
X108640714Y-77828628D02*
X108688333Y-77781009D01*
X108688333Y-77781009D02*
X108783571Y-77733390D01*
X157233857Y-126280080D02*
X157281476Y-126327700D01*
X157281476Y-126327700D02*
X157424333Y-126375319D01*
X157424333Y-126375319D02*
X157519571Y-126375319D01*
X157519571Y-126375319D02*
X157662428Y-126327700D01*
X157662428Y-126327700D02*
X157757666Y-126232461D01*
X157757666Y-126232461D02*
X157805285Y-126137223D01*
X157805285Y-126137223D02*
X157852904Y-125946747D01*
X157852904Y-125946747D02*
X157852904Y-125803890D01*
X157852904Y-125803890D02*
X157805285Y-125613414D01*
X157805285Y-125613414D02*
X157757666Y-125518176D01*
X157757666Y-125518176D02*
X157662428Y-125422938D01*
X157662428Y-125422938D02*
X157519571Y-125375319D01*
X157519571Y-125375319D02*
X157424333Y-125375319D01*
X157424333Y-125375319D02*
X157281476Y-125422938D01*
X157281476Y-125422938D02*
X157233857Y-125470557D01*
X156900523Y-125375319D02*
X156281476Y-125375319D01*
X156281476Y-125375319D02*
X156614809Y-125756271D01*
X156614809Y-125756271D02*
X156471952Y-125756271D01*
X156471952Y-125756271D02*
X156376714Y-125803890D01*
X156376714Y-125803890D02*
X156329095Y-125851509D01*
X156329095Y-125851509D02*
X156281476Y-125946747D01*
X156281476Y-125946747D02*
X156281476Y-126184842D01*
X156281476Y-126184842D02*
X156329095Y-126280080D01*
X156329095Y-126280080D02*
X156376714Y-126327700D01*
X156376714Y-126327700D02*
X156471952Y-126375319D01*
X156471952Y-126375319D02*
X156757666Y-126375319D01*
X156757666Y-126375319D02*
X156852904Y-126327700D01*
X156852904Y-126327700D02*
X156900523Y-126280080D01*
X155805285Y-126375319D02*
X155614809Y-126375319D01*
X155614809Y-126375319D02*
X155519571Y-126327700D01*
X155519571Y-126327700D02*
X155471952Y-126280080D01*
X155471952Y-126280080D02*
X155376714Y-126137223D01*
X155376714Y-126137223D02*
X155329095Y-125946747D01*
X155329095Y-125946747D02*
X155329095Y-125565795D01*
X155329095Y-125565795D02*
X155376714Y-125470557D01*
X155376714Y-125470557D02*
X155424333Y-125422938D01*
X155424333Y-125422938D02*
X155519571Y-125375319D01*
X155519571Y-125375319D02*
X155710047Y-125375319D01*
X155710047Y-125375319D02*
X155805285Y-125422938D01*
X155805285Y-125422938D02*
X155852904Y-125470557D01*
X155852904Y-125470557D02*
X155900523Y-125565795D01*
X155900523Y-125565795D02*
X155900523Y-125803890D01*
X155900523Y-125803890D02*
X155852904Y-125899128D01*
X155852904Y-125899128D02*
X155805285Y-125946747D01*
X155805285Y-125946747D02*
X155710047Y-125994366D01*
X155710047Y-125994366D02*
X155519571Y-125994366D01*
X155519571Y-125994366D02*
X155424333Y-125946747D01*
X155424333Y-125946747D02*
X155376714Y-125899128D01*
X155376714Y-125899128D02*
X155329095Y-125803890D01*
X153789857Y-126280080D02*
X153837476Y-126327700D01*
X153837476Y-126327700D02*
X153980333Y-126375319D01*
X153980333Y-126375319D02*
X154075571Y-126375319D01*
X154075571Y-126375319D02*
X154218428Y-126327700D01*
X154218428Y-126327700D02*
X154313666Y-126232461D01*
X154313666Y-126232461D02*
X154361285Y-126137223D01*
X154361285Y-126137223D02*
X154408904Y-125946747D01*
X154408904Y-125946747D02*
X154408904Y-125803890D01*
X154408904Y-125803890D02*
X154361285Y-125613414D01*
X154361285Y-125613414D02*
X154313666Y-125518176D01*
X154313666Y-125518176D02*
X154218428Y-125422938D01*
X154218428Y-125422938D02*
X154075571Y-125375319D01*
X154075571Y-125375319D02*
X153980333Y-125375319D01*
X153980333Y-125375319D02*
X153837476Y-125422938D01*
X153837476Y-125422938D02*
X153789857Y-125470557D01*
X152932714Y-125708652D02*
X152932714Y-126375319D01*
X153170809Y-125327700D02*
X153408904Y-126041985D01*
X153408904Y-126041985D02*
X152789857Y-126041985D01*
X152218428Y-125375319D02*
X152123190Y-125375319D01*
X152123190Y-125375319D02*
X152027952Y-125422938D01*
X152027952Y-125422938D02*
X151980333Y-125470557D01*
X151980333Y-125470557D02*
X151932714Y-125565795D01*
X151932714Y-125565795D02*
X151885095Y-125756271D01*
X151885095Y-125756271D02*
X151885095Y-125994366D01*
X151885095Y-125994366D02*
X151932714Y-126184842D01*
X151932714Y-126184842D02*
X151980333Y-126280080D01*
X151980333Y-126280080D02*
X152027952Y-126327700D01*
X152027952Y-126327700D02*
X152123190Y-126375319D01*
X152123190Y-126375319D02*
X152218428Y-126375319D01*
X152218428Y-126375319D02*
X152313666Y-126327700D01*
X152313666Y-126327700D02*
X152361285Y-126280080D01*
X152361285Y-126280080D02*
X152408904Y-126184842D01*
X152408904Y-126184842D02*
X152456523Y-125994366D01*
X152456523Y-125994366D02*
X152456523Y-125756271D01*
X152456523Y-125756271D02*
X152408904Y-125565795D01*
X152408904Y-125565795D02*
X152361285Y-125470557D01*
X152361285Y-125470557D02*
X152313666Y-125422938D01*
X152313666Y-125422938D02*
X152218428Y-125375319D01*
X227422857Y-77234819D02*
X227756190Y-76758628D01*
X227994285Y-77234819D02*
X227994285Y-76234819D01*
X227994285Y-76234819D02*
X227613333Y-76234819D01*
X227613333Y-76234819D02*
X227518095Y-76282438D01*
X227518095Y-76282438D02*
X227470476Y-76330057D01*
X227470476Y-76330057D02*
X227422857Y-76425295D01*
X227422857Y-76425295D02*
X227422857Y-76568152D01*
X227422857Y-76568152D02*
X227470476Y-76663390D01*
X227470476Y-76663390D02*
X227518095Y-76711009D01*
X227518095Y-76711009D02*
X227613333Y-76758628D01*
X227613333Y-76758628D02*
X227994285Y-76758628D01*
X226851428Y-76663390D02*
X226946666Y-76615771D01*
X226946666Y-76615771D02*
X226994285Y-76568152D01*
X226994285Y-76568152D02*
X227041904Y-76472914D01*
X227041904Y-76472914D02*
X227041904Y-76425295D01*
X227041904Y-76425295D02*
X226994285Y-76330057D01*
X226994285Y-76330057D02*
X226946666Y-76282438D01*
X226946666Y-76282438D02*
X226851428Y-76234819D01*
X226851428Y-76234819D02*
X226660952Y-76234819D01*
X226660952Y-76234819D02*
X226565714Y-76282438D01*
X226565714Y-76282438D02*
X226518095Y-76330057D01*
X226518095Y-76330057D02*
X226470476Y-76425295D01*
X226470476Y-76425295D02*
X226470476Y-76472914D01*
X226470476Y-76472914D02*
X226518095Y-76568152D01*
X226518095Y-76568152D02*
X226565714Y-76615771D01*
X226565714Y-76615771D02*
X226660952Y-76663390D01*
X226660952Y-76663390D02*
X226851428Y-76663390D01*
X226851428Y-76663390D02*
X226946666Y-76711009D01*
X226946666Y-76711009D02*
X226994285Y-76758628D01*
X226994285Y-76758628D02*
X227041904Y-76853866D01*
X227041904Y-76853866D02*
X227041904Y-77044342D01*
X227041904Y-77044342D02*
X226994285Y-77139580D01*
X226994285Y-77139580D02*
X226946666Y-77187200D01*
X226946666Y-77187200D02*
X226851428Y-77234819D01*
X226851428Y-77234819D02*
X226660952Y-77234819D01*
X226660952Y-77234819D02*
X226565714Y-77187200D01*
X226565714Y-77187200D02*
X226518095Y-77139580D01*
X226518095Y-77139580D02*
X226470476Y-77044342D01*
X226470476Y-77044342D02*
X226470476Y-76853866D01*
X226470476Y-76853866D02*
X226518095Y-76758628D01*
X226518095Y-76758628D02*
X226565714Y-76711009D01*
X226565714Y-76711009D02*
X226660952Y-76663390D01*
X226089523Y-76330057D02*
X226041904Y-76282438D01*
X226041904Y-76282438D02*
X225946666Y-76234819D01*
X225946666Y-76234819D02*
X225708571Y-76234819D01*
X225708571Y-76234819D02*
X225613333Y-76282438D01*
X225613333Y-76282438D02*
X225565714Y-76330057D01*
X225565714Y-76330057D02*
X225518095Y-76425295D01*
X225518095Y-76425295D02*
X225518095Y-76520533D01*
X225518095Y-76520533D02*
X225565714Y-76663390D01*
X225565714Y-76663390D02*
X226137142Y-77234819D01*
X226137142Y-77234819D02*
X225518095Y-77234819D01*
X227412857Y-79184819D02*
X227746190Y-78708628D01*
X227984285Y-79184819D02*
X227984285Y-78184819D01*
X227984285Y-78184819D02*
X227603333Y-78184819D01*
X227603333Y-78184819D02*
X227508095Y-78232438D01*
X227508095Y-78232438D02*
X227460476Y-78280057D01*
X227460476Y-78280057D02*
X227412857Y-78375295D01*
X227412857Y-78375295D02*
X227412857Y-78518152D01*
X227412857Y-78518152D02*
X227460476Y-78613390D01*
X227460476Y-78613390D02*
X227508095Y-78661009D01*
X227508095Y-78661009D02*
X227603333Y-78708628D01*
X227603333Y-78708628D02*
X227984285Y-78708628D01*
X226841428Y-78613390D02*
X226936666Y-78565771D01*
X226936666Y-78565771D02*
X226984285Y-78518152D01*
X226984285Y-78518152D02*
X227031904Y-78422914D01*
X227031904Y-78422914D02*
X227031904Y-78375295D01*
X227031904Y-78375295D02*
X226984285Y-78280057D01*
X226984285Y-78280057D02*
X226936666Y-78232438D01*
X226936666Y-78232438D02*
X226841428Y-78184819D01*
X226841428Y-78184819D02*
X226650952Y-78184819D01*
X226650952Y-78184819D02*
X226555714Y-78232438D01*
X226555714Y-78232438D02*
X226508095Y-78280057D01*
X226508095Y-78280057D02*
X226460476Y-78375295D01*
X226460476Y-78375295D02*
X226460476Y-78422914D01*
X226460476Y-78422914D02*
X226508095Y-78518152D01*
X226508095Y-78518152D02*
X226555714Y-78565771D01*
X226555714Y-78565771D02*
X226650952Y-78613390D01*
X226650952Y-78613390D02*
X226841428Y-78613390D01*
X226841428Y-78613390D02*
X226936666Y-78661009D01*
X226936666Y-78661009D02*
X226984285Y-78708628D01*
X226984285Y-78708628D02*
X227031904Y-78803866D01*
X227031904Y-78803866D02*
X227031904Y-78994342D01*
X227031904Y-78994342D02*
X226984285Y-79089580D01*
X226984285Y-79089580D02*
X226936666Y-79137200D01*
X226936666Y-79137200D02*
X226841428Y-79184819D01*
X226841428Y-79184819D02*
X226650952Y-79184819D01*
X226650952Y-79184819D02*
X226555714Y-79137200D01*
X226555714Y-79137200D02*
X226508095Y-79089580D01*
X226508095Y-79089580D02*
X226460476Y-78994342D01*
X226460476Y-78994342D02*
X226460476Y-78803866D01*
X226460476Y-78803866D02*
X226508095Y-78708628D01*
X226508095Y-78708628D02*
X226555714Y-78661009D01*
X226555714Y-78661009D02*
X226650952Y-78613390D01*
X225841428Y-78184819D02*
X225746190Y-78184819D01*
X225746190Y-78184819D02*
X225650952Y-78232438D01*
X225650952Y-78232438D02*
X225603333Y-78280057D01*
X225603333Y-78280057D02*
X225555714Y-78375295D01*
X225555714Y-78375295D02*
X225508095Y-78565771D01*
X225508095Y-78565771D02*
X225508095Y-78803866D01*
X225508095Y-78803866D02*
X225555714Y-78994342D01*
X225555714Y-78994342D02*
X225603333Y-79089580D01*
X225603333Y-79089580D02*
X225650952Y-79137200D01*
X225650952Y-79137200D02*
X225746190Y-79184819D01*
X225746190Y-79184819D02*
X225841428Y-79184819D01*
X225841428Y-79184819D02*
X225936666Y-79137200D01*
X225936666Y-79137200D02*
X225984285Y-79089580D01*
X225984285Y-79089580D02*
X226031904Y-78994342D01*
X226031904Y-78994342D02*
X226079523Y-78803866D01*
X226079523Y-78803866D02*
X226079523Y-78565771D01*
X226079523Y-78565771D02*
X226031904Y-78375295D01*
X226031904Y-78375295D02*
X225984285Y-78280057D01*
X225984285Y-78280057D02*
X225936666Y-78232438D01*
X225936666Y-78232438D02*
X225841428Y-78184819D01*
X217832857Y-75344819D02*
X218166190Y-74868628D01*
X218404285Y-75344819D02*
X218404285Y-74344819D01*
X218404285Y-74344819D02*
X218023333Y-74344819D01*
X218023333Y-74344819D02*
X217928095Y-74392438D01*
X217928095Y-74392438D02*
X217880476Y-74440057D01*
X217880476Y-74440057D02*
X217832857Y-74535295D01*
X217832857Y-74535295D02*
X217832857Y-74678152D01*
X217832857Y-74678152D02*
X217880476Y-74773390D01*
X217880476Y-74773390D02*
X217928095Y-74821009D01*
X217928095Y-74821009D02*
X218023333Y-74868628D01*
X218023333Y-74868628D02*
X218404285Y-74868628D01*
X217261428Y-74773390D02*
X217356666Y-74725771D01*
X217356666Y-74725771D02*
X217404285Y-74678152D01*
X217404285Y-74678152D02*
X217451904Y-74582914D01*
X217451904Y-74582914D02*
X217451904Y-74535295D01*
X217451904Y-74535295D02*
X217404285Y-74440057D01*
X217404285Y-74440057D02*
X217356666Y-74392438D01*
X217356666Y-74392438D02*
X217261428Y-74344819D01*
X217261428Y-74344819D02*
X217070952Y-74344819D01*
X217070952Y-74344819D02*
X216975714Y-74392438D01*
X216975714Y-74392438D02*
X216928095Y-74440057D01*
X216928095Y-74440057D02*
X216880476Y-74535295D01*
X216880476Y-74535295D02*
X216880476Y-74582914D01*
X216880476Y-74582914D02*
X216928095Y-74678152D01*
X216928095Y-74678152D02*
X216975714Y-74725771D01*
X216975714Y-74725771D02*
X217070952Y-74773390D01*
X217070952Y-74773390D02*
X217261428Y-74773390D01*
X217261428Y-74773390D02*
X217356666Y-74821009D01*
X217356666Y-74821009D02*
X217404285Y-74868628D01*
X217404285Y-74868628D02*
X217451904Y-74963866D01*
X217451904Y-74963866D02*
X217451904Y-75154342D01*
X217451904Y-75154342D02*
X217404285Y-75249580D01*
X217404285Y-75249580D02*
X217356666Y-75297200D01*
X217356666Y-75297200D02*
X217261428Y-75344819D01*
X217261428Y-75344819D02*
X217070952Y-75344819D01*
X217070952Y-75344819D02*
X216975714Y-75297200D01*
X216975714Y-75297200D02*
X216928095Y-75249580D01*
X216928095Y-75249580D02*
X216880476Y-75154342D01*
X216880476Y-75154342D02*
X216880476Y-74963866D01*
X216880476Y-74963866D02*
X216928095Y-74868628D01*
X216928095Y-74868628D02*
X216975714Y-74821009D01*
X216975714Y-74821009D02*
X217070952Y-74773390D01*
X216547142Y-74344819D02*
X215928095Y-74344819D01*
X215928095Y-74344819D02*
X216261428Y-74725771D01*
X216261428Y-74725771D02*
X216118571Y-74725771D01*
X216118571Y-74725771D02*
X216023333Y-74773390D01*
X216023333Y-74773390D02*
X215975714Y-74821009D01*
X215975714Y-74821009D02*
X215928095Y-74916247D01*
X215928095Y-74916247D02*
X215928095Y-75154342D01*
X215928095Y-75154342D02*
X215975714Y-75249580D01*
X215975714Y-75249580D02*
X216023333Y-75297200D01*
X216023333Y-75297200D02*
X216118571Y-75344819D01*
X216118571Y-75344819D02*
X216404285Y-75344819D01*
X216404285Y-75344819D02*
X216499523Y-75297200D01*
X216499523Y-75297200D02*
X216547142Y-75249580D01*
X227422857Y-81104819D02*
X227756190Y-80628628D01*
X227994285Y-81104819D02*
X227994285Y-80104819D01*
X227994285Y-80104819D02*
X227613333Y-80104819D01*
X227613333Y-80104819D02*
X227518095Y-80152438D01*
X227518095Y-80152438D02*
X227470476Y-80200057D01*
X227470476Y-80200057D02*
X227422857Y-80295295D01*
X227422857Y-80295295D02*
X227422857Y-80438152D01*
X227422857Y-80438152D02*
X227470476Y-80533390D01*
X227470476Y-80533390D02*
X227518095Y-80581009D01*
X227518095Y-80581009D02*
X227613333Y-80628628D01*
X227613333Y-80628628D02*
X227994285Y-80628628D01*
X227089523Y-80104819D02*
X226422857Y-80104819D01*
X226422857Y-80104819D02*
X226851428Y-81104819D01*
X225899047Y-80533390D02*
X225994285Y-80485771D01*
X225994285Y-80485771D02*
X226041904Y-80438152D01*
X226041904Y-80438152D02*
X226089523Y-80342914D01*
X226089523Y-80342914D02*
X226089523Y-80295295D01*
X226089523Y-80295295D02*
X226041904Y-80200057D01*
X226041904Y-80200057D02*
X225994285Y-80152438D01*
X225994285Y-80152438D02*
X225899047Y-80104819D01*
X225899047Y-80104819D02*
X225708571Y-80104819D01*
X225708571Y-80104819D02*
X225613333Y-80152438D01*
X225613333Y-80152438D02*
X225565714Y-80200057D01*
X225565714Y-80200057D02*
X225518095Y-80295295D01*
X225518095Y-80295295D02*
X225518095Y-80342914D01*
X225518095Y-80342914D02*
X225565714Y-80438152D01*
X225565714Y-80438152D02*
X225613333Y-80485771D01*
X225613333Y-80485771D02*
X225708571Y-80533390D01*
X225708571Y-80533390D02*
X225899047Y-80533390D01*
X225899047Y-80533390D02*
X225994285Y-80581009D01*
X225994285Y-80581009D02*
X226041904Y-80628628D01*
X226041904Y-80628628D02*
X226089523Y-80723866D01*
X226089523Y-80723866D02*
X226089523Y-80914342D01*
X226089523Y-80914342D02*
X226041904Y-81009580D01*
X226041904Y-81009580D02*
X225994285Y-81057200D01*
X225994285Y-81057200D02*
X225899047Y-81104819D01*
X225899047Y-81104819D02*
X225708571Y-81104819D01*
X225708571Y-81104819D02*
X225613333Y-81057200D01*
X225613333Y-81057200D02*
X225565714Y-81009580D01*
X225565714Y-81009580D02*
X225518095Y-80914342D01*
X225518095Y-80914342D02*
X225518095Y-80723866D01*
X225518095Y-80723866D02*
X225565714Y-80628628D01*
X225565714Y-80628628D02*
X225613333Y-80581009D01*
X225613333Y-80581009D02*
X225708571Y-80533390D01*
X108602857Y-116749580D02*
X108650476Y-116797200D01*
X108650476Y-116797200D02*
X108793333Y-116844819D01*
X108793333Y-116844819D02*
X108888571Y-116844819D01*
X108888571Y-116844819D02*
X109031428Y-116797200D01*
X109031428Y-116797200D02*
X109126666Y-116701961D01*
X109126666Y-116701961D02*
X109174285Y-116606723D01*
X109174285Y-116606723D02*
X109221904Y-116416247D01*
X109221904Y-116416247D02*
X109221904Y-116273390D01*
X109221904Y-116273390D02*
X109174285Y-116082914D01*
X109174285Y-116082914D02*
X109126666Y-115987676D01*
X109126666Y-115987676D02*
X109031428Y-115892438D01*
X109031428Y-115892438D02*
X108888571Y-115844819D01*
X108888571Y-115844819D02*
X108793333Y-115844819D01*
X108793333Y-115844819D02*
X108650476Y-115892438D01*
X108650476Y-115892438D02*
X108602857Y-115940057D01*
X107698095Y-115844819D02*
X108174285Y-115844819D01*
X108174285Y-115844819D02*
X108221904Y-116321009D01*
X108221904Y-116321009D02*
X108174285Y-116273390D01*
X108174285Y-116273390D02*
X108079047Y-116225771D01*
X108079047Y-116225771D02*
X107840952Y-116225771D01*
X107840952Y-116225771D02*
X107745714Y-116273390D01*
X107745714Y-116273390D02*
X107698095Y-116321009D01*
X107698095Y-116321009D02*
X107650476Y-116416247D01*
X107650476Y-116416247D02*
X107650476Y-116654342D01*
X107650476Y-116654342D02*
X107698095Y-116749580D01*
X107698095Y-116749580D02*
X107745714Y-116797200D01*
X107745714Y-116797200D02*
X107840952Y-116844819D01*
X107840952Y-116844819D02*
X108079047Y-116844819D01*
X108079047Y-116844819D02*
X108174285Y-116797200D01*
X108174285Y-116797200D02*
X108221904Y-116749580D01*
X106698095Y-116844819D02*
X107269523Y-116844819D01*
X106983809Y-116844819D02*
X106983809Y-115844819D01*
X106983809Y-115844819D02*
X107079047Y-115987676D01*
X107079047Y-115987676D02*
X107174285Y-116082914D01*
X107174285Y-116082914D02*
X107269523Y-116130533D01*
X217822857Y-77244819D02*
X218156190Y-76768628D01*
X218394285Y-77244819D02*
X218394285Y-76244819D01*
X218394285Y-76244819D02*
X218013333Y-76244819D01*
X218013333Y-76244819D02*
X217918095Y-76292438D01*
X217918095Y-76292438D02*
X217870476Y-76340057D01*
X217870476Y-76340057D02*
X217822857Y-76435295D01*
X217822857Y-76435295D02*
X217822857Y-76578152D01*
X217822857Y-76578152D02*
X217870476Y-76673390D01*
X217870476Y-76673390D02*
X217918095Y-76721009D01*
X217918095Y-76721009D02*
X218013333Y-76768628D01*
X218013333Y-76768628D02*
X218394285Y-76768628D01*
X217251428Y-76673390D02*
X217346666Y-76625771D01*
X217346666Y-76625771D02*
X217394285Y-76578152D01*
X217394285Y-76578152D02*
X217441904Y-76482914D01*
X217441904Y-76482914D02*
X217441904Y-76435295D01*
X217441904Y-76435295D02*
X217394285Y-76340057D01*
X217394285Y-76340057D02*
X217346666Y-76292438D01*
X217346666Y-76292438D02*
X217251428Y-76244819D01*
X217251428Y-76244819D02*
X217060952Y-76244819D01*
X217060952Y-76244819D02*
X216965714Y-76292438D01*
X216965714Y-76292438D02*
X216918095Y-76340057D01*
X216918095Y-76340057D02*
X216870476Y-76435295D01*
X216870476Y-76435295D02*
X216870476Y-76482914D01*
X216870476Y-76482914D02*
X216918095Y-76578152D01*
X216918095Y-76578152D02*
X216965714Y-76625771D01*
X216965714Y-76625771D02*
X217060952Y-76673390D01*
X217060952Y-76673390D02*
X217251428Y-76673390D01*
X217251428Y-76673390D02*
X217346666Y-76721009D01*
X217346666Y-76721009D02*
X217394285Y-76768628D01*
X217394285Y-76768628D02*
X217441904Y-76863866D01*
X217441904Y-76863866D02*
X217441904Y-77054342D01*
X217441904Y-77054342D02*
X217394285Y-77149580D01*
X217394285Y-77149580D02*
X217346666Y-77197200D01*
X217346666Y-77197200D02*
X217251428Y-77244819D01*
X217251428Y-77244819D02*
X217060952Y-77244819D01*
X217060952Y-77244819D02*
X216965714Y-77197200D01*
X216965714Y-77197200D02*
X216918095Y-77149580D01*
X216918095Y-77149580D02*
X216870476Y-77054342D01*
X216870476Y-77054342D02*
X216870476Y-76863866D01*
X216870476Y-76863866D02*
X216918095Y-76768628D01*
X216918095Y-76768628D02*
X216965714Y-76721009D01*
X216965714Y-76721009D02*
X217060952Y-76673390D01*
X215918095Y-77244819D02*
X216489523Y-77244819D01*
X216203809Y-77244819D02*
X216203809Y-76244819D01*
X216203809Y-76244819D02*
X216299047Y-76387676D01*
X216299047Y-76387676D02*
X216394285Y-76482914D01*
X216394285Y-76482914D02*
X216489523Y-76530533D01*
X218534819Y-78127142D02*
X218058628Y-77793809D01*
X218534819Y-77555714D02*
X217534819Y-77555714D01*
X217534819Y-77555714D02*
X217534819Y-77936666D01*
X217534819Y-77936666D02*
X217582438Y-78031904D01*
X217582438Y-78031904D02*
X217630057Y-78079523D01*
X217630057Y-78079523D02*
X217725295Y-78127142D01*
X217725295Y-78127142D02*
X217868152Y-78127142D01*
X217868152Y-78127142D02*
X217963390Y-78079523D01*
X217963390Y-78079523D02*
X218011009Y-78031904D01*
X218011009Y-78031904D02*
X218058628Y-77936666D01*
X218058628Y-77936666D02*
X218058628Y-77555714D01*
X217534819Y-78460476D02*
X217534819Y-79127142D01*
X217534819Y-79127142D02*
X218534819Y-78698571D01*
X218534819Y-79555714D02*
X218534819Y-79746190D01*
X218534819Y-79746190D02*
X218487200Y-79841428D01*
X218487200Y-79841428D02*
X218439580Y-79889047D01*
X218439580Y-79889047D02*
X218296723Y-79984285D01*
X218296723Y-79984285D02*
X218106247Y-80031904D01*
X218106247Y-80031904D02*
X217725295Y-80031904D01*
X217725295Y-80031904D02*
X217630057Y-79984285D01*
X217630057Y-79984285D02*
X217582438Y-79936666D01*
X217582438Y-79936666D02*
X217534819Y-79841428D01*
X217534819Y-79841428D02*
X217534819Y-79650952D01*
X217534819Y-79650952D02*
X217582438Y-79555714D01*
X217582438Y-79555714D02*
X217630057Y-79508095D01*
X217630057Y-79508095D02*
X217725295Y-79460476D01*
X217725295Y-79460476D02*
X217963390Y-79460476D01*
X217963390Y-79460476D02*
X218058628Y-79508095D01*
X218058628Y-79508095D02*
X218106247Y-79555714D01*
X218106247Y-79555714D02*
X218153866Y-79650952D01*
X218153866Y-79650952D02*
X218153866Y-79841428D01*
X218153866Y-79841428D02*
X218106247Y-79936666D01*
X218106247Y-79936666D02*
X218058628Y-79984285D01*
X218058628Y-79984285D02*
X217963390Y-80031904D01*
X227382857Y-75354819D02*
X227716190Y-74878628D01*
X227954285Y-75354819D02*
X227954285Y-74354819D01*
X227954285Y-74354819D02*
X227573333Y-74354819D01*
X227573333Y-74354819D02*
X227478095Y-74402438D01*
X227478095Y-74402438D02*
X227430476Y-74450057D01*
X227430476Y-74450057D02*
X227382857Y-74545295D01*
X227382857Y-74545295D02*
X227382857Y-74688152D01*
X227382857Y-74688152D02*
X227430476Y-74783390D01*
X227430476Y-74783390D02*
X227478095Y-74831009D01*
X227478095Y-74831009D02*
X227573333Y-74878628D01*
X227573333Y-74878628D02*
X227954285Y-74878628D01*
X226811428Y-74783390D02*
X226906666Y-74735771D01*
X226906666Y-74735771D02*
X226954285Y-74688152D01*
X226954285Y-74688152D02*
X227001904Y-74592914D01*
X227001904Y-74592914D02*
X227001904Y-74545295D01*
X227001904Y-74545295D02*
X226954285Y-74450057D01*
X226954285Y-74450057D02*
X226906666Y-74402438D01*
X226906666Y-74402438D02*
X226811428Y-74354819D01*
X226811428Y-74354819D02*
X226620952Y-74354819D01*
X226620952Y-74354819D02*
X226525714Y-74402438D01*
X226525714Y-74402438D02*
X226478095Y-74450057D01*
X226478095Y-74450057D02*
X226430476Y-74545295D01*
X226430476Y-74545295D02*
X226430476Y-74592914D01*
X226430476Y-74592914D02*
X226478095Y-74688152D01*
X226478095Y-74688152D02*
X226525714Y-74735771D01*
X226525714Y-74735771D02*
X226620952Y-74783390D01*
X226620952Y-74783390D02*
X226811428Y-74783390D01*
X226811428Y-74783390D02*
X226906666Y-74831009D01*
X226906666Y-74831009D02*
X226954285Y-74878628D01*
X226954285Y-74878628D02*
X227001904Y-74973866D01*
X227001904Y-74973866D02*
X227001904Y-75164342D01*
X227001904Y-75164342D02*
X226954285Y-75259580D01*
X226954285Y-75259580D02*
X226906666Y-75307200D01*
X226906666Y-75307200D02*
X226811428Y-75354819D01*
X226811428Y-75354819D02*
X226620952Y-75354819D01*
X226620952Y-75354819D02*
X226525714Y-75307200D01*
X226525714Y-75307200D02*
X226478095Y-75259580D01*
X226478095Y-75259580D02*
X226430476Y-75164342D01*
X226430476Y-75164342D02*
X226430476Y-74973866D01*
X226430476Y-74973866D02*
X226478095Y-74878628D01*
X226478095Y-74878628D02*
X226525714Y-74831009D01*
X226525714Y-74831009D02*
X226620952Y-74783390D01*
X225573333Y-74688152D02*
X225573333Y-75354819D01*
X225811428Y-74307200D02*
X226049523Y-75021485D01*
X226049523Y-75021485D02*
X225430476Y-75021485D01*
X128610357Y-120129580D02*
X128657976Y-120177200D01*
X128657976Y-120177200D02*
X128800833Y-120224819D01*
X128800833Y-120224819D02*
X128896071Y-120224819D01*
X128896071Y-120224819D02*
X129038928Y-120177200D01*
X129038928Y-120177200D02*
X129134166Y-120081961D01*
X129134166Y-120081961D02*
X129181785Y-119986723D01*
X129181785Y-119986723D02*
X129229404Y-119796247D01*
X129229404Y-119796247D02*
X129229404Y-119653390D01*
X129229404Y-119653390D02*
X129181785Y-119462914D01*
X129181785Y-119462914D02*
X129134166Y-119367676D01*
X129134166Y-119367676D02*
X129038928Y-119272438D01*
X129038928Y-119272438D02*
X128896071Y-119224819D01*
X128896071Y-119224819D02*
X128800833Y-119224819D01*
X128800833Y-119224819D02*
X128657976Y-119272438D01*
X128657976Y-119272438D02*
X128610357Y-119320057D01*
X127753214Y-119558152D02*
X127753214Y-120224819D01*
X127991309Y-119177200D02*
X128229404Y-119891485D01*
X128229404Y-119891485D02*
X127610357Y-119891485D01*
X127181785Y-120224819D02*
X126991309Y-120224819D01*
X126991309Y-120224819D02*
X126896071Y-120177200D01*
X126896071Y-120177200D02*
X126848452Y-120129580D01*
X126848452Y-120129580D02*
X126753214Y-119986723D01*
X126753214Y-119986723D02*
X126705595Y-119796247D01*
X126705595Y-119796247D02*
X126705595Y-119415295D01*
X126705595Y-119415295D02*
X126753214Y-119320057D01*
X126753214Y-119320057D02*
X126800833Y-119272438D01*
X126800833Y-119272438D02*
X126896071Y-119224819D01*
X126896071Y-119224819D02*
X127086547Y-119224819D01*
X127086547Y-119224819D02*
X127181785Y-119272438D01*
X127181785Y-119272438D02*
X127229404Y-119320057D01*
X127229404Y-119320057D02*
X127277023Y-119415295D01*
X127277023Y-119415295D02*
X127277023Y-119653390D01*
X127277023Y-119653390D02*
X127229404Y-119748628D01*
X127229404Y-119748628D02*
X127181785Y-119796247D01*
X127181785Y-119796247D02*
X127086547Y-119843866D01*
X127086547Y-119843866D02*
X126896071Y-119843866D01*
X126896071Y-119843866D02*
X126800833Y-119796247D01*
X126800833Y-119796247D02*
X126753214Y-119748628D01*
X126753214Y-119748628D02*
X126705595Y-119653390D01*
X110497857Y-86229580D02*
X110545476Y-86277200D01*
X110545476Y-86277200D02*
X110688333Y-86324819D01*
X110688333Y-86324819D02*
X110783571Y-86324819D01*
X110783571Y-86324819D02*
X110926428Y-86277200D01*
X110926428Y-86277200D02*
X111021666Y-86181961D01*
X111021666Y-86181961D02*
X111069285Y-86086723D01*
X111069285Y-86086723D02*
X111116904Y-85896247D01*
X111116904Y-85896247D02*
X111116904Y-85753390D01*
X111116904Y-85753390D02*
X111069285Y-85562914D01*
X111069285Y-85562914D02*
X111021666Y-85467676D01*
X111021666Y-85467676D02*
X110926428Y-85372438D01*
X110926428Y-85372438D02*
X110783571Y-85324819D01*
X110783571Y-85324819D02*
X110688333Y-85324819D01*
X110688333Y-85324819D02*
X110545476Y-85372438D01*
X110545476Y-85372438D02*
X110497857Y-85420057D01*
X109593095Y-85324819D02*
X110069285Y-85324819D01*
X110069285Y-85324819D02*
X110116904Y-85801009D01*
X110116904Y-85801009D02*
X110069285Y-85753390D01*
X110069285Y-85753390D02*
X109974047Y-85705771D01*
X109974047Y-85705771D02*
X109735952Y-85705771D01*
X109735952Y-85705771D02*
X109640714Y-85753390D01*
X109640714Y-85753390D02*
X109593095Y-85801009D01*
X109593095Y-85801009D02*
X109545476Y-85896247D01*
X109545476Y-85896247D02*
X109545476Y-86134342D01*
X109545476Y-86134342D02*
X109593095Y-86229580D01*
X109593095Y-86229580D02*
X109640714Y-86277200D01*
X109640714Y-86277200D02*
X109735952Y-86324819D01*
X109735952Y-86324819D02*
X109974047Y-86324819D01*
X109974047Y-86324819D02*
X110069285Y-86277200D01*
X110069285Y-86277200D02*
X110116904Y-86229580D01*
X109164523Y-85420057D02*
X109116904Y-85372438D01*
X109116904Y-85372438D02*
X109021666Y-85324819D01*
X109021666Y-85324819D02*
X108783571Y-85324819D01*
X108783571Y-85324819D02*
X108688333Y-85372438D01*
X108688333Y-85372438D02*
X108640714Y-85420057D01*
X108640714Y-85420057D02*
X108593095Y-85515295D01*
X108593095Y-85515295D02*
X108593095Y-85610533D01*
X108593095Y-85610533D02*
X108640714Y-85753390D01*
X108640714Y-85753390D02*
X109212142Y-86324819D01*
X109212142Y-86324819D02*
X108593095Y-86324819D01*
X128610357Y-86199580D02*
X128657976Y-86247200D01*
X128657976Y-86247200D02*
X128800833Y-86294819D01*
X128800833Y-86294819D02*
X128896071Y-86294819D01*
X128896071Y-86294819D02*
X129038928Y-86247200D01*
X129038928Y-86247200D02*
X129134166Y-86151961D01*
X129134166Y-86151961D02*
X129181785Y-86056723D01*
X129181785Y-86056723D02*
X129229404Y-85866247D01*
X129229404Y-85866247D02*
X129229404Y-85723390D01*
X129229404Y-85723390D02*
X129181785Y-85532914D01*
X129181785Y-85532914D02*
X129134166Y-85437676D01*
X129134166Y-85437676D02*
X129038928Y-85342438D01*
X129038928Y-85342438D02*
X128896071Y-85294819D01*
X128896071Y-85294819D02*
X128800833Y-85294819D01*
X128800833Y-85294819D02*
X128657976Y-85342438D01*
X128657976Y-85342438D02*
X128610357Y-85390057D01*
X127705595Y-85294819D02*
X128181785Y-85294819D01*
X128181785Y-85294819D02*
X128229404Y-85771009D01*
X128229404Y-85771009D02*
X128181785Y-85723390D01*
X128181785Y-85723390D02*
X128086547Y-85675771D01*
X128086547Y-85675771D02*
X127848452Y-85675771D01*
X127848452Y-85675771D02*
X127753214Y-85723390D01*
X127753214Y-85723390D02*
X127705595Y-85771009D01*
X127705595Y-85771009D02*
X127657976Y-85866247D01*
X127657976Y-85866247D02*
X127657976Y-86104342D01*
X127657976Y-86104342D02*
X127705595Y-86199580D01*
X127705595Y-86199580D02*
X127753214Y-86247200D01*
X127753214Y-86247200D02*
X127848452Y-86294819D01*
X127848452Y-86294819D02*
X128086547Y-86294819D01*
X128086547Y-86294819D02*
X128181785Y-86247200D01*
X128181785Y-86247200D02*
X128229404Y-86199580D01*
X127038928Y-85294819D02*
X126943690Y-85294819D01*
X126943690Y-85294819D02*
X126848452Y-85342438D01*
X126848452Y-85342438D02*
X126800833Y-85390057D01*
X126800833Y-85390057D02*
X126753214Y-85485295D01*
X126753214Y-85485295D02*
X126705595Y-85675771D01*
X126705595Y-85675771D02*
X126705595Y-85913866D01*
X126705595Y-85913866D02*
X126753214Y-86104342D01*
X126753214Y-86104342D02*
X126800833Y-86199580D01*
X126800833Y-86199580D02*
X126848452Y-86247200D01*
X126848452Y-86247200D02*
X126943690Y-86294819D01*
X126943690Y-86294819D02*
X127038928Y-86294819D01*
X127038928Y-86294819D02*
X127134166Y-86247200D01*
X127134166Y-86247200D02*
X127181785Y-86199580D01*
X127181785Y-86199580D02*
X127229404Y-86104342D01*
X127229404Y-86104342D02*
X127277023Y-85913866D01*
X127277023Y-85913866D02*
X127277023Y-85675771D01*
X127277023Y-85675771D02*
X127229404Y-85485295D01*
X127229404Y-85485295D02*
X127181785Y-85390057D01*
X127181785Y-85390057D02*
X127134166Y-85342438D01*
X127134166Y-85342438D02*
X127038928Y-85294819D01*
X220732857Y-82814819D02*
X221066190Y-82338628D01*
X221304285Y-82814819D02*
X221304285Y-81814819D01*
X221304285Y-81814819D02*
X220923333Y-81814819D01*
X220923333Y-81814819D02*
X220828095Y-81862438D01*
X220828095Y-81862438D02*
X220780476Y-81910057D01*
X220780476Y-81910057D02*
X220732857Y-82005295D01*
X220732857Y-82005295D02*
X220732857Y-82148152D01*
X220732857Y-82148152D02*
X220780476Y-82243390D01*
X220780476Y-82243390D02*
X220828095Y-82291009D01*
X220828095Y-82291009D02*
X220923333Y-82338628D01*
X220923333Y-82338628D02*
X221304285Y-82338628D01*
X220399523Y-81814819D02*
X219732857Y-81814819D01*
X219732857Y-81814819D02*
X220161428Y-82814819D01*
X219447142Y-81814819D02*
X218780476Y-81814819D01*
X218780476Y-81814819D02*
X219209047Y-82814819D01*
D14*
X165552248Y-103913000D02*
X166074752Y-103913000D01*
X165552248Y-105383000D02*
X166074752Y-105383000D01*
X172620000Y-93035248D02*
X172620000Y-93557752D01*
X174090000Y-93035248D02*
X174090000Y-93557752D01*
X164238000Y-116671752D02*
X164238000Y-116149248D01*
X165708000Y-116671752D02*
X165708000Y-116149248D01*
X189188752Y-105866500D02*
X188666248Y-105866500D01*
X189188752Y-107336500D02*
X188666248Y-107336500D01*
X182369000Y-95266000D02*
X182369000Y-97266000D01*
X182369000Y-97266000D02*
X185169000Y-97266000D01*
X185169000Y-95266000D02*
X182369000Y-95266000D01*
X185169000Y-97266000D02*
X185169000Y-95266000D01*
X127706248Y-75973000D02*
X128228752Y-75973000D01*
X127706248Y-77443000D02*
X128228752Y-77443000D01*
X127706248Y-135155000D02*
X128228752Y-135155000D01*
X127706248Y-136625000D02*
X128228752Y-136625000D01*
X127706248Y-110775000D02*
X128228752Y-110775000D01*
X127706248Y-112245000D02*
X128228752Y-112245000D01*
X127706248Y-101515000D02*
X128228752Y-101515000D01*
X127706248Y-102985000D02*
X128228752Y-102985000D01*
X109593748Y-75465000D02*
X110116252Y-75465000D01*
X109593748Y-76935000D02*
X110116252Y-76935000D01*
X156852252Y-126709500D02*
X156329748Y-126709500D01*
X156852252Y-128179500D02*
X156329748Y-128179500D01*
X153408252Y-126709500D02*
X152885748Y-126709500D01*
X153408252Y-128179500D02*
X152885748Y-128179500D01*
X223615436Y-76045000D02*
X224069564Y-76045000D01*
X223615436Y-77515000D02*
X224069564Y-77515000D01*
X223615436Y-77985000D02*
X224069564Y-77985000D01*
X223615436Y-79455000D02*
X224069564Y-79455000D01*
X220359564Y-74135000D02*
X219905436Y-74135000D01*
X220359564Y-75605000D02*
X219905436Y-75605000D01*
X223615436Y-79915000D02*
X224069564Y-79915000D01*
X223615436Y-81385000D02*
X224069564Y-81385000D01*
X108221252Y-117335000D02*
X107698748Y-117335000D01*
X108221252Y-118805000D02*
X107698748Y-118805000D01*
X220359564Y-76045000D02*
X219905436Y-76045000D01*
X220359564Y-77515000D02*
X219905436Y-77515000D01*
X220359564Y-77985000D02*
X219905436Y-77985000D01*
X220359564Y-79455000D02*
X219905436Y-79455000D01*
X223615436Y-74135000D02*
X224069564Y-74135000D01*
X223615436Y-75605000D02*
X224069564Y-75605000D01*
X127706248Y-117355000D02*
X128228752Y-117355000D01*
X127706248Y-118825000D02*
X128228752Y-118825000D01*
X109593748Y-83455000D02*
X110116252Y-83455000D01*
X109593748Y-84925000D02*
X110116252Y-84925000D01*
X127706248Y-83425000D02*
X128228752Y-83425000D01*
X127706248Y-84895000D02*
X128228752Y-84895000D01*
X220389564Y-79915000D02*
X219935436Y-79915000D01*
X220389564Y-81385000D02*
X219935436Y-81385000D01*
M02*
