M48
; DRILL file {KiCad 9.0.1} date 2025-11-11T13:17:26+0100
; FORMAT={-:-/ absolute / metric / decimal}
; #@! TF.CreationDate,2025-11-11T13:17:26+01:00
; #@! TF.GenerationSoftware,Kicad,Pcbnew,9.0.1
; #@! TF.FileFunction,MixedPlating,1,2
FMAT,2
METRIC
; #@! TA.AperFunction,Plated,PTH,ViaDrill
T1C0.300
; #@! TA.AperFunction,Plated,PTH,ViaDrill
T2C0.400
; #@! TA.AperFunction,Plated,PTH,ComponentDrill
T3C0.800
; #@! TA.AperFunction,Plated,PTH,ComponentDrill
T4C1.000
; #@! TA.AperFunction,Plated,PTH,ComponentDrill
T5C1.010
; #@! TA.AperFunction,Plated,PTH,ComponentDrill
T6C3.200
%
G90
G05
T1
X101.89Y-101.94
X101.9Y-111.72
X102.06Y-135.82
X104.15Y-89.41
X104.15Y-91.44
X104.17Y-87.36
X104.18Y-85.34
X104.21Y-81.29
X104.21Y-83.29
X104.22Y-79.24
X107.95Y-84.16
X108.3Y-118.07
X108.76Y-76.2
X109.943Y-76.217
X110.26Y-141.12
X110.26Y-142.68
X110.62Y-100.67
X110.62Y-134.59
X111.379Y-133.29
X111.38Y-99.4
X111.4Y-136.29
X112.141Y-132.08
X112.16Y-98.13
X112.25Y-136.87
X112.45Y-94.31
X112.57Y-139.37
X112.88Y-97.12
X112.903Y-130.77
X112.94Y-137.4
X113.47Y-139.37
X113.665Y-95.11
X113.665Y-126.96
X114.21Y-128.939
X114.94Y-100.66
X114.95Y-134.58
X115.61Y-99.44
X115.61Y-133.32
X115.79Y-146.88
X116.16Y-98.13
X116.16Y-132.035
X116.71Y-96.88
X116.71Y-130.78
X117.47Y-129.49
X117.59Y-95.59
X117.63Y-94.32
X117.72Y-77.815
X117.72Y-84.13
X117.84Y-135.85
X118.18Y-144.72
X119.87Y-142.65
X120.51Y-144.71
X120.61Y-111.72
X120.62Y-118.08
X120.71Y-128.23
X120.98Y-101.93
X122.55Y-142.67
X126.12Y-142.9
X126.21Y-106.63
X127.017Y-77.79
X127.017Y-102.13
X127.017Y-111.51
X127.017Y-135.89
X127.02Y-84.1
X127.389Y-118.07
X127.85Y-142.92
X128.007Y-76.702
X128.07Y-106.63
X130.68Y-94.32
X130.68Y-128.23
X135.76Y-101.94
X135.78Y-84.16
X135.78Y-94.31
X135.78Y-111.74
X135.86Y-118.05
X135.88Y-128.24
X135.9Y-135.85
X135.92Y-77.79
X139.638Y-118.66
X140.039Y-120.021
X140.44Y-121.33
X140.681Y-122.591
X140.73Y-126.95
X141.67Y-124.856
X141.909Y-112.106
X142.015Y-110.977
X142.05Y-109.261
X143.213Y-111.973
X146.266Y-79.844
X148.714Y-90.068
X149.481Y-88.789
X150.242Y-87.462
X150.769Y-86.298
X151.32Y-127.444
X153.032Y-83.686
X153.135Y-82.342
X153.27Y-132.75
X153.289Y-146.304
X155.067Y-145.288
X155.96Y-101.977
X156.61Y-101.327
X157.26Y-100.677
X157.861Y-143.764
X157.91Y-100.027
X158.433Y-127.444
X158.623Y-99.314
X158.877Y-84.836
X158.877Y-85.598
X159.294Y-98.734
X159.847Y-98.059
X160.401Y-97.429
X161.05Y-126.238
X161.05Y-127.254
X162.433Y-90.424
X163.632Y-104.577
X163.678Y-117.577
X163.703Y-96.774
X163.703Y-102.616
X163.703Y-107.177
X163.703Y-114.977
X163.842Y-89.777
X164.744Y-118.593
X165.14Y-145.78
X165.481Y-92.647
X165.481Y-121.92
X165.989Y-92.027
X165.989Y-93.218
X166.42Y-144.67
X167.513Y-143.764
X168.275Y-91.44
X168.627Y-81.086
X168.644Y-87.261
X168.644Y-118.618
X169.294Y-87.633
X169.944Y-88.138
X171.577Y-146.05
X171.894Y-118.618
X172.339Y-143.764
X172.544Y-121.412
X172.784Y-138.43
X172.784Y-140.525
X173.194Y-91.186
X173.194Y-118.618
X177.094Y-91.186
X178.181Y-124.46
X178.689Y-143.764
X178.874Y-123.232
X179.451Y-122.682
X180.213Y-138.176
X180.975Y-122.936
X180.975Y-124.46
X181.639Y-126.238
X182.298Y-127.843
X183.007Y-129.286
X183.594Y-91.44
X183.596Y-131.212
X184.244Y-91.153
X184.277Y-133.096
X184.89Y-134.981
X185.547Y-136.906
X187.198Y-137.795
X187.579Y-86.36
X188.779Y-138.754
X188.849Y-74.93
X188.849Y-86.614
X189.357Y-92.202
X189.928Y-140.272
X190.094Y-118.643
X190.564Y-142.177
X190.629Y-100.836
X191.056Y-98.727
X191.135Y-102.616
X191.135Y-104.577
X191.135Y-106.527
X191.135Y-109.777
X191.389Y-74.93
X191.95Y-139.75
X194.183Y-85.852
X194.183Y-110.49
X194.183Y-118.364
X194.437Y-125.476
X194.691Y-91.694
X194.945Y-98.298
X195.135Y-90.17
X195.453Y-125.476
X195.453Y-131.064
X196.215Y-92.71
X196.469Y-143.764
X196.723Y-146.558
X196.977Y-98.298
X197.231Y-87.122
X197.485Y-144.526
X197.739Y-138.176
X198.331Y-132.08
X198.501Y-90.678
X199.517Y-90.678
X200.787Y-89.154
X201.041Y-86.868
X201.295Y-144.526
X201.549Y-110.49
X201.549Y-143.764
X202.23Y-144.52
X202.63Y-77.019
X203.117Y-100.836
X204.463Y-76.462
X205.867Y-118.364
X205.867Y-122.936
X205.867Y-144.78
X205.87Y-125.75
X206.58Y-123.952
X206.77Y-145.64
X206.883Y-76.462
X207.899Y-132.588
X207.899Y-133.35
X207.899Y-134.112
X207.899Y-134.874
X207.899Y-135.636
X207.899Y-136.398
X207.899Y-137.16
X207.899Y-137.922
X208.343Y-146.008
X209.931Y-76.962
X210.65Y-131.42
X210.883Y-146.008
X211.201Y-97.79
X211.963Y-98.298
X211.99Y-143.89
X212.23Y-145.72
X212.65Y-129.69
X213.41Y-146.008
X213.644Y-143.636
X213.995Y-94.996
X214.38Y-143.719
X214.503Y-95.758
X215.9Y-146.008
X216.37Y-143.87
X217.932Y-110.363
X218.46Y-145.6
X220.472Y-110.363
X220.491Y-147.32
X221.107Y-81.84
X221.488Y-101.346
X221.488Y-103.632
X221.488Y-105.918
X222.658Y-81.8
X222.758Y-99.822
X222.758Y-103.632
X222.758Y-107.188
X223.2Y-73.37
X224.98Y-129.667
X225.044Y-99.822
X225.044Y-107.188
X225.679Y-80.747
X225.742Y-137.477
X226.06Y-105.41
X226.187Y-101.346
X227.076Y-137.414
X227.33Y-99.822
X227.33Y-107.188
X228.346Y-137.414
X228.473Y-91.44
X228.473Y-101.346
X228.473Y-103.632
X228.52Y-105.918
X229.38Y-73.41
X229.616Y-137.414
X230.27Y-84.67
X230.886Y-137.414
X231.013Y-100.457
X231.013Y-102.489
X231.013Y-104.775
X231.013Y-106.807
X232.156Y-137.414
X232.283Y-90.424
X232.85Y-84.72
X233.426Y-101.346
X233.426Y-103.632
X233.426Y-105.918
X233.426Y-137.414
X234.569Y-90.424
X234.696Y-137.414
X235.077Y-147.32
X235.45Y-135.69
X235.458Y-145.54
X235.585Y-99.822
X235.585Y-103.632
X236.283Y-144.78
X236.283Y-147.32
X236.728Y-135.7
X237.871Y-99.822
X237.871Y-105.918
X239.141Y-101.346
X239.903Y-147.32
X239.914Y-137.576
X240.157Y-99.822
X240.19Y-88.54
X240.411Y-109.474
X240.411Y-111.252
X240.411Y-113.03
X240.411Y-115.062
X240.538Y-144.78
X241.808Y-145.542
X242.311Y-113.162
X242.382Y-109.413
X243.141Y-144.78
X243.958Y-128.169
X244.729Y-100.269
X244.729Y-101.346
X244.729Y-105.034
X244.81Y-105.928
X246.903Y-137.424
X249.301Y-102.618
X249.301Y-103.636
X250.063Y-110.49
X250.063Y-114.046
X250.77Y-141.37
X250.77Y-144.71
X252.984Y-107.061
X253.3Y-84.91
X254.94Y-135.31
X257.91Y-135.27
X261.73Y-93.0
T2
X241.859Y-100.152
X241.859Y-102.438
X241.859Y-104.724
X241.859Y-107.01
X247.015Y-100.203
X247.015Y-102.489
X247.015Y-104.775
X247.015Y-107.061
X251.46Y-100.33
X251.46Y-102.616
X251.46Y-104.902
X251.46Y-107.188
T3
X152.61Y-129.42
X157.49Y-129.42
X208.153Y-126.746
X208.153Y-141.986
X210.693Y-126.746
X210.693Y-141.986
X213.233Y-126.746
X213.233Y-141.986
X215.773Y-126.746
X215.773Y-141.986
X218.313Y-126.746
X218.313Y-141.986
X220.853Y-126.746
X220.853Y-141.986
X223.393Y-126.746
X223.393Y-141.986
X225.933Y-126.746
X225.933Y-141.986
X228.473Y-126.746
X228.473Y-141.986
X231.013Y-126.746
X231.013Y-141.986
X233.553Y-126.746
X233.553Y-141.986
X236.093Y-126.746
X236.093Y-141.986
X238.633Y-126.746
X238.633Y-141.986
X241.173Y-126.746
X241.173Y-141.986
T4
X185.801Y-78.232
X185.801Y-80.772
X188.341Y-78.232
X188.341Y-80.772
X190.881Y-78.232
X190.881Y-80.772
X193.421Y-78.232
X193.421Y-80.772
X195.961Y-78.232
X195.961Y-80.772
X198.501Y-78.232
X198.501Y-80.772
X201.041Y-78.232
X201.041Y-80.772
X203.581Y-78.232
X203.581Y-80.772
X206.121Y-78.232
X206.121Y-80.772
X208.661Y-78.232
X208.661Y-80.772
X211.201Y-78.232
X211.201Y-80.772
X213.741Y-78.232
X213.741Y-80.772
X216.281Y-78.232
X216.281Y-80.772
X235.839Y-118.872
X235.839Y-121.412
X242.24Y-84.89
X242.24Y-87.43
X242.24Y-89.97
X244.78Y-84.89
X244.78Y-87.43
X244.78Y-89.97
X248.45Y-84.92
X248.45Y-87.46
X248.45Y-90.0
X250.99Y-84.92
X250.99Y-87.46
X250.99Y-90.0
X254.051Y-101.355
X254.051Y-103.645
X254.051Y-105.935
X254.051Y-108.225
X254.051Y-110.515
X256.591Y-100.21
X256.591Y-102.5
X256.591Y-104.79
X256.591Y-107.08
X256.591Y-109.37
X259.131Y-101.355
X259.131Y-103.645
X259.131Y-105.935
X259.131Y-108.225
X259.131Y-110.515
T5
X249.281Y-129.61
X254.381Y-130.81
T6
X256.55Y-93.17
X256.55Y-118.17
M30
