%TF.GenerationSoftware,KiCad,Pcbnew,9.0.1*%
%TF.CreationDate,2025-11-11T13:17:26+01:00*%
%TF.ProjectId,542xISA,35343278-4953-4412-9e6b-696361645f70,0.3a*%
%TF.SameCoordinates,Original*%
%TF.FileFunction,Drillmap*%
%TF.FilePolarity,Positive*%
%FSLAX45Y45*%
G04 Gerber Fmt 4.5, Leading zero omitted, Abs format (unit mm)*
G04 Created by KiCad (PCBNEW 9.0.1) date 2025-11-11 13:17:26*
%MOMM*%
%LPD*%
G01*
G04 APERTURE LIST*
%ADD10C,0.050000*%
%ADD11C,0.200000*%
%ADD12C,0.100000*%
%ADD13C,0.101000*%
%ADD14C,0.320000*%
G04 APERTURE END LIST*
D10*
X9994900Y-14665960D02*
X9994900Y-7340600D01*
X10870702Y-14716816D02*
X10045700Y-14716760D01*
X26301700Y-7289800D02*
G75*
G02*
X26352500Y-7340600I0J-50800D01*
G01*
X26352500Y-14645640D02*
G75*
G02*
X26301700Y-14696440I-50800J0D01*
G01*
X15760700Y-14767553D02*
G75*
G02*
X15811500Y-14716750I50800J4D01*
G01*
X15760700Y-15631160D02*
X10922020Y-15631053D01*
X10870702Y-14716816D02*
G75*
G02*
X10921504Y-14767616I-2J-50804D01*
G01*
X15760700Y-14767553D02*
X15760700Y-15631160D01*
X16217900Y-14716760D02*
X15811500Y-14716753D01*
X24391620Y-14747240D02*
G75*
G02*
X24442420Y-14696440I50800J0D01*
G01*
X24391620Y-14747240D02*
X24390350Y-15621000D01*
X26301700Y-14696440D02*
X24442420Y-14696440D01*
X16268700Y-15621000D02*
X16268700Y-14767560D01*
X26352500Y-7340600D02*
X26352500Y-14645640D01*
X10045700Y-7289800D02*
X26301700Y-7289800D01*
X24390350Y-15621000D02*
X16268700Y-15621000D01*
X10921502Y-14767616D02*
X10922020Y-15631053D01*
X16217900Y-14716760D02*
G75*
G02*
X16268700Y-14767560I0J-50800D01*
G01*
X10045700Y-14716760D02*
G75*
G02*
X9994900Y-14665960I0J50800D01*
G01*
X9994900Y-7340600D02*
G75*
G02*
X10045700Y-7289800I50800J0D01*
G01*
D11*
D12*
X10174000Y-10179000D02*
X10204000Y-10209000D01*
X10204000Y-10179000D02*
X10174000Y-10209000D01*
X10175000Y-11157000D02*
X10205000Y-11187000D01*
X10205000Y-11157000D02*
X10175000Y-11187000D01*
X10191000Y-13567000D02*
X10221000Y-13597000D01*
X10221000Y-13567000D02*
X10191000Y-13597000D01*
X10400000Y-8926000D02*
X10430000Y-8956000D01*
X10430000Y-8926000D02*
X10400000Y-8956000D01*
X10400000Y-9129000D02*
X10430000Y-9159000D01*
X10430000Y-9129000D02*
X10400000Y-9159000D01*
X10402000Y-8721000D02*
X10432000Y-8751000D01*
X10432000Y-8721000D02*
X10402000Y-8751000D01*
X10403000Y-8519000D02*
X10433000Y-8549000D01*
X10433000Y-8519000D02*
X10403000Y-8549000D01*
X10406000Y-8114000D02*
X10436000Y-8144000D01*
X10436000Y-8114000D02*
X10406000Y-8144000D01*
X10406000Y-8314000D02*
X10436000Y-8344000D01*
X10436000Y-8314000D02*
X10406000Y-8344000D01*
X10407000Y-7909000D02*
X10437000Y-7939000D01*
X10437000Y-7909000D02*
X10407000Y-7939000D01*
X10780000Y-8401000D02*
X10810000Y-8431000D01*
X10810000Y-8401000D02*
X10780000Y-8431000D01*
X10815000Y-11792000D02*
X10845000Y-11822000D01*
X10845000Y-11792000D02*
X10815000Y-11822000D01*
X10861000Y-7605000D02*
X10891000Y-7635000D01*
X10891000Y-7605000D02*
X10861000Y-7635000D01*
X10979316Y-7606735D02*
X11009316Y-7636735D01*
X11009316Y-7606735D02*
X10979316Y-7636735D01*
X11011000Y-14097000D02*
X11041000Y-14127000D01*
X11041000Y-14097000D02*
X11011000Y-14127000D01*
X11011000Y-14253000D02*
X11041000Y-14283000D01*
X11041000Y-14253000D02*
X11011000Y-14283000D01*
X11047000Y-10052000D02*
X11077000Y-10082000D01*
X11077000Y-10052000D02*
X11047000Y-10082000D01*
X11047000Y-13444000D02*
X11077000Y-13474000D01*
X11077000Y-13444000D02*
X11047000Y-13474000D01*
X11122900Y-13314000D02*
X11152900Y-13344000D01*
X11152900Y-13314000D02*
X11122900Y-13344000D01*
X11123000Y-9925000D02*
X11153000Y-9955000D01*
X11153000Y-9925000D02*
X11123000Y-9955000D01*
X11125000Y-13614000D02*
X11155000Y-13644000D01*
X11155000Y-13614000D02*
X11125000Y-13644000D01*
X11199100Y-13193000D02*
X11229100Y-13223000D01*
X11229100Y-13193000D02*
X11199100Y-13223000D01*
X11201000Y-9798000D02*
X11231000Y-9828000D01*
X11231000Y-9798000D02*
X11201000Y-9828000D01*
X11210000Y-13672000D02*
X11240000Y-13702000D01*
X11240000Y-13672000D02*
X11210000Y-13702000D01*
X11230000Y-9416000D02*
X11260000Y-9446000D01*
X11260000Y-9416000D02*
X11230000Y-9446000D01*
X11242000Y-13922000D02*
X11272000Y-13952000D01*
X11272000Y-13922000D02*
X11242000Y-13952000D01*
X11273000Y-9697000D02*
X11303000Y-9727000D01*
X11303000Y-9697000D02*
X11273000Y-9727000D01*
X11275300Y-13062000D02*
X11305300Y-13092000D01*
X11305300Y-13062000D02*
X11275300Y-13092000D01*
X11279000Y-13725000D02*
X11309000Y-13755000D01*
X11309000Y-13725000D02*
X11279000Y-13755000D01*
X11332000Y-13922000D02*
X11362000Y-13952000D01*
X11362000Y-13922000D02*
X11332000Y-13952000D01*
X11351500Y-9496000D02*
X11381500Y-9526000D01*
X11381500Y-9496000D02*
X11351500Y-9526000D01*
X11351500Y-12681000D02*
X11381500Y-12711000D01*
X11381500Y-12681000D02*
X11351500Y-12711000D01*
X11406000Y-12878900D02*
X11436000Y-12908900D01*
X11436000Y-12878900D02*
X11406000Y-12908900D01*
X11479000Y-10051000D02*
X11509000Y-10081000D01*
X11509000Y-10051000D02*
X11479000Y-10081000D01*
X11480000Y-13443000D02*
X11510000Y-13473000D01*
X11510000Y-13443000D02*
X11480000Y-13473000D01*
X11546000Y-9929000D02*
X11576000Y-9959000D01*
X11576000Y-9929000D02*
X11546000Y-9959000D01*
X11546000Y-13317000D02*
X11576000Y-13347000D01*
X11576000Y-13317000D02*
X11546000Y-13347000D01*
X11564000Y-14673000D02*
X11594000Y-14703000D01*
X11594000Y-14673000D02*
X11564000Y-14703000D01*
X11601000Y-9798000D02*
X11631000Y-9828000D01*
X11631000Y-9798000D02*
X11601000Y-9828000D01*
X11601000Y-13188500D02*
X11631000Y-13218500D01*
X11631000Y-13188500D02*
X11601000Y-13218500D01*
X11656000Y-9673000D02*
X11686000Y-9703000D01*
X11686000Y-9673000D02*
X11656000Y-9703000D01*
X11656000Y-13063000D02*
X11686000Y-13093000D01*
X11686000Y-13063000D02*
X11656000Y-13093000D01*
X11732000Y-12934000D02*
X11762000Y-12964000D01*
X11762000Y-12934000D02*
X11732000Y-12964000D01*
X11744000Y-9544000D02*
X11774000Y-9574000D01*
X11774000Y-9544000D02*
X11744000Y-9574000D01*
X11748000Y-9417000D02*
X11778000Y-9447000D01*
X11778000Y-9417000D02*
X11748000Y-9447000D01*
X11757000Y-7766500D02*
X11787000Y-7796500D01*
X11787000Y-7766500D02*
X11757000Y-7796500D01*
X11757000Y-8398000D02*
X11787000Y-8428000D01*
X11787000Y-8398000D02*
X11757000Y-8428000D01*
X11769000Y-13570000D02*
X11799000Y-13600000D01*
X11799000Y-13570000D02*
X11769000Y-13600000D01*
X11803000Y-14457000D02*
X11833000Y-14487000D01*
X11833000Y-14457000D02*
X11803000Y-14487000D01*
X11972000Y-14250000D02*
X12002000Y-14280000D01*
X12002000Y-14250000D02*
X11972000Y-14280000D01*
X12036000Y-14456000D02*
X12066000Y-14486000D01*
X12066000Y-14456000D02*
X12036000Y-14486000D01*
X12046000Y-11157000D02*
X12076000Y-11187000D01*
X12076000Y-11157000D02*
X12046000Y-11187000D01*
X12047000Y-11793000D02*
X12077000Y-11823000D01*
X12077000Y-11793000D02*
X12047000Y-11823000D01*
X12056000Y-12808000D02*
X12086000Y-12838000D01*
X12086000Y-12808000D02*
X12056000Y-12838000D01*
X12083000Y-10178000D02*
X12113000Y-10208000D01*
X12113000Y-10178000D02*
X12083000Y-10208000D01*
X12240000Y-14252000D02*
X12270000Y-14282000D01*
X12270000Y-14252000D02*
X12240000Y-14282000D01*
X12597000Y-14275000D02*
X12627000Y-14305000D01*
X12627000Y-14275000D02*
X12597000Y-14305000D01*
X12606000Y-10648000D02*
X12636000Y-10678000D01*
X12636000Y-10648000D02*
X12606000Y-10678000D01*
X12686750Y-7764000D02*
X12716750Y-7794000D01*
X12716750Y-7764000D02*
X12686750Y-7794000D01*
X12686750Y-10198000D02*
X12716750Y-10228000D01*
X12716750Y-10198000D02*
X12686750Y-10228000D01*
X12686750Y-11136000D02*
X12716750Y-11166000D01*
X12716750Y-11136000D02*
X12686750Y-11166000D01*
X12686750Y-13574000D02*
X12716750Y-13604000D01*
X12716750Y-13574000D02*
X12686750Y-13604000D01*
X12687000Y-8395000D02*
X12717000Y-8425000D01*
X12717000Y-8395000D02*
X12687000Y-8425000D01*
X12723900Y-11792000D02*
X12753900Y-11822000D01*
X12753900Y-11792000D02*
X12723900Y-11822000D01*
X12770000Y-14277000D02*
X12800000Y-14307000D01*
X12800000Y-14277000D02*
X12770000Y-14307000D01*
X12785747Y-7655198D02*
X12815747Y-7685198D01*
X12815747Y-7655198D02*
X12785747Y-7685198D01*
X12792000Y-10648000D02*
X12822000Y-10678000D01*
X12822000Y-10648000D02*
X12792000Y-10678000D01*
X13053000Y-9417000D02*
X13083000Y-9447000D01*
X13083000Y-9417000D02*
X13053000Y-9447000D01*
X13053000Y-12808000D02*
X13083000Y-12838000D01*
X13083000Y-12808000D02*
X13053000Y-12838000D01*
X13561000Y-10179000D02*
X13591000Y-10209000D01*
X13591000Y-10179000D02*
X13561000Y-10209000D01*
X13563000Y-8401000D02*
X13593000Y-8431000D01*
X13593000Y-8401000D02*
X13563000Y-8431000D01*
X13563000Y-9416000D02*
X13593000Y-9446000D01*
X13593000Y-9416000D02*
X13563000Y-9446000D01*
X13563000Y-11159000D02*
X13593000Y-11189000D01*
X13593000Y-11159000D02*
X13563000Y-11189000D01*
X13571000Y-11790000D02*
X13601000Y-11820000D01*
X13601000Y-11790000D02*
X13571000Y-11820000D01*
X13573000Y-12809000D02*
X13603000Y-12839000D01*
X13603000Y-12809000D02*
X13573000Y-12839000D01*
X13575000Y-13570000D02*
X13605000Y-13600000D01*
X13605000Y-13570000D02*
X13575000Y-13600000D01*
X13577000Y-7764000D02*
X13607000Y-7794000D01*
X13607000Y-7764000D02*
X13577000Y-7794000D01*
X13948800Y-11851000D02*
X13978800Y-11881000D01*
X13978800Y-11851000D02*
X13948800Y-11881000D01*
X13988900Y-11987059D02*
X14018900Y-12017059D01*
X14018900Y-11987059D02*
X13988900Y-12017059D01*
X14029000Y-12118000D02*
X14059000Y-12148000D01*
X14059000Y-12118000D02*
X14029000Y-12148000D01*
X14053109Y-12244109D02*
X14083109Y-12274109D01*
X14083109Y-12244109D02*
X14053109Y-12274109D01*
X14058000Y-12680000D02*
X14088000Y-12710000D01*
X14088000Y-12680000D02*
X14058000Y-12710000D01*
X14152000Y-12470609D02*
X14182000Y-12500609D01*
X14182000Y-12470609D02*
X14152000Y-12500609D01*
X14175923Y-11195585D02*
X14205923Y-11225585D01*
X14205923Y-11195585D02*
X14175923Y-11225585D01*
X14186488Y-11082730D02*
X14216488Y-11112730D01*
X14216488Y-11082730D02*
X14186488Y-11112730D01*
X14190011Y-10911109D02*
X14220011Y-10941109D01*
X14220011Y-10911109D02*
X14190011Y-10941109D01*
X14306254Y-11182254D02*
X14336254Y-11212254D01*
X14336254Y-11182254D02*
X14306254Y-11212254D01*
X14611550Y-7969450D02*
X14641550Y-7999450D01*
X14641550Y-7969450D02*
X14611550Y-7999450D01*
X14856372Y-8991831D02*
X14886372Y-9021831D01*
X14886372Y-8991831D02*
X14856372Y-9021831D01*
X14933133Y-8863892D02*
X14963133Y-8893892D01*
X14963133Y-8863892D02*
X14933133Y-8893892D01*
X15009194Y-8731180D02*
X15039194Y-8761180D01*
X15039194Y-8731180D02*
X15009194Y-8761180D01*
X15061886Y-8614838D02*
X15091886Y-8644838D01*
X15091886Y-8614838D02*
X15061886Y-8644838D01*
X15117050Y-12729450D02*
X15147050Y-12759450D01*
X15147050Y-12729450D02*
X15117050Y-12759450D01*
X15288176Y-8353599D02*
X15318176Y-8383599D01*
X15318176Y-8353599D02*
X15288176Y-8383599D01*
X15298501Y-8219200D02*
X15328501Y-8249200D01*
X15328501Y-8219200D02*
X15298501Y-8249200D01*
X15312000Y-13260000D02*
X15342000Y-13290000D01*
X15342000Y-13260000D02*
X15312000Y-13290000D01*
X15313900Y-14615400D02*
X15343900Y-14645400D01*
X15343900Y-14615400D02*
X15313900Y-14645400D01*
X15491700Y-14513800D02*
X15521700Y-14543800D01*
X15521700Y-14513800D02*
X15491700Y-14543800D01*
X15581000Y-10182700D02*
X15611000Y-10212700D01*
X15611000Y-10182700D02*
X15581000Y-10212700D01*
X15646000Y-10117700D02*
X15676000Y-10147700D01*
X15676000Y-10117700D02*
X15646000Y-10147700D01*
X15711000Y-10052700D02*
X15741000Y-10082700D01*
X15741000Y-10052700D02*
X15711000Y-10082700D01*
X15771100Y-14361400D02*
X15801100Y-14391400D01*
X15801100Y-14361400D02*
X15771100Y-14391400D01*
X15776000Y-9987700D02*
X15806000Y-10017700D01*
X15806000Y-9987700D02*
X15776000Y-10017700D01*
X15828250Y-12729450D02*
X15858250Y-12759450D01*
X15858250Y-12729450D02*
X15828250Y-12759450D01*
X15847300Y-9916400D02*
X15877300Y-9946400D01*
X15877300Y-9916400D02*
X15847300Y-9946400D01*
X15872700Y-8468600D02*
X15902700Y-8498600D01*
X15902700Y-8468600D02*
X15872700Y-8498600D01*
X15872700Y-8544800D02*
X15902700Y-8574800D01*
X15902700Y-8544800D02*
X15872700Y-8574800D01*
X15914413Y-9858382D02*
X15944413Y-9888382D01*
X15944413Y-9858382D02*
X15914413Y-9888382D01*
X15969725Y-9790924D02*
X15999725Y-9820924D01*
X15999725Y-9790924D02*
X15969725Y-9820924D01*
X16025100Y-9727930D02*
X16055100Y-9757930D01*
X16055100Y-9727930D02*
X16025100Y-9757930D01*
X16090050Y-12608800D02*
X16120050Y-12638800D01*
X16120050Y-12608800D02*
X16090050Y-12638800D01*
X16090050Y-12710400D02*
X16120050Y-12740400D01*
X16120050Y-12710400D02*
X16090050Y-12740400D01*
X16228300Y-9027400D02*
X16258300Y-9057400D01*
X16258300Y-9027400D02*
X16228300Y-9057400D01*
X16348200Y-10442700D02*
X16378200Y-10472700D01*
X16378200Y-10442700D02*
X16348200Y-10472700D01*
X16352800Y-11742700D02*
X16382800Y-11772700D01*
X16382800Y-11742700D02*
X16352800Y-11772700D01*
X16355300Y-9662400D02*
X16385300Y-9692400D01*
X16385300Y-9662400D02*
X16355300Y-9692400D01*
X16355300Y-10246600D02*
X16385300Y-10276600D01*
X16385300Y-10246600D02*
X16355300Y-10276600D01*
X16355300Y-10702700D02*
X16385300Y-10732700D01*
X16385300Y-10702700D02*
X16355300Y-10732700D01*
X16355300Y-11482700D02*
X16385300Y-11512700D01*
X16385300Y-11482700D02*
X16355300Y-11512700D01*
X16369200Y-8962700D02*
X16399200Y-8992700D01*
X16399200Y-8962700D02*
X16369200Y-8992700D01*
X16459400Y-11844300D02*
X16489400Y-11874300D01*
X16489400Y-11844300D02*
X16459400Y-11874300D01*
X16499000Y-14563000D02*
X16529000Y-14593000D01*
X16529000Y-14563000D02*
X16499000Y-14593000D01*
X16533100Y-9249700D02*
X16563100Y-9279700D01*
X16563100Y-9249700D02*
X16533100Y-9279700D01*
X16533100Y-12177000D02*
X16563100Y-12207000D01*
X16563100Y-12177000D02*
X16533100Y-12207000D01*
X16583900Y-9187700D02*
X16613900Y-9217700D01*
X16613900Y-9187700D02*
X16583900Y-9217700D01*
X16583900Y-9306800D02*
X16613900Y-9336800D01*
X16613900Y-9306800D02*
X16583900Y-9336800D01*
X16627000Y-14452000D02*
X16657000Y-14482000D01*
X16657000Y-14452000D02*
X16627000Y-14482000D01*
X16736300Y-14361400D02*
X16766300Y-14391400D01*
X16766300Y-14361400D02*
X16736300Y-14391400D01*
X16812500Y-9129000D02*
X16842500Y-9159000D01*
X16842500Y-9129000D02*
X16812500Y-9159000D01*
X16847711Y-8093632D02*
X16877711Y-8123632D01*
X16877711Y-8093632D02*
X16847711Y-8123632D01*
X16849383Y-8711117D02*
X16879383Y-8741117D01*
X16879383Y-8711117D02*
X16849383Y-8741117D01*
X16849400Y-11846800D02*
X16879400Y-11876800D01*
X16879400Y-11846800D02*
X16849400Y-11876800D01*
X16914400Y-8748300D02*
X16944400Y-8778300D01*
X16944400Y-8748300D02*
X16914400Y-8778300D01*
X16979400Y-8798800D02*
X17009400Y-8828800D01*
X17009400Y-8798800D02*
X16979400Y-8828800D01*
X17142700Y-14590000D02*
X17172700Y-14620000D01*
X17172700Y-14590000D02*
X17142700Y-14620000D01*
X17174400Y-11846800D02*
X17204400Y-11876800D01*
X17204400Y-11846800D02*
X17174400Y-11876800D01*
X17218900Y-14361400D02*
X17248900Y-14391400D01*
X17248900Y-14361400D02*
X17218900Y-14391400D01*
X17239400Y-12126200D02*
X17269400Y-12156200D01*
X17269400Y-12126200D02*
X17239400Y-12156200D01*
X17263350Y-13828000D02*
X17293350Y-13858000D01*
X17293350Y-13828000D02*
X17263350Y-13858000D01*
X17263350Y-14037550D02*
X17293350Y-14067550D01*
X17293350Y-14037550D02*
X17263350Y-14067550D01*
X17304400Y-9103600D02*
X17334400Y-9133600D01*
X17334400Y-9103600D02*
X17304400Y-9133600D01*
X17304400Y-11846800D02*
X17334400Y-11876800D01*
X17334400Y-11846800D02*
X17304400Y-11876800D01*
X17694400Y-9103600D02*
X17724400Y-9133600D01*
X17724400Y-9103600D02*
X17694400Y-9133600D01*
X17803100Y-12431000D02*
X17833100Y-12461000D01*
X17833100Y-12431000D02*
X17803100Y-12461000D01*
X17853900Y-14361400D02*
X17883900Y-14391400D01*
X17883900Y-14361400D02*
X17853900Y-14391400D01*
X17872408Y-12308200D02*
X17902408Y-12338200D01*
X17902408Y-12308200D02*
X17872408Y-12338200D01*
X17930100Y-12253200D02*
X17960100Y-12283200D01*
X17960100Y-12253200D02*
X17930100Y-12283200D01*
X18006300Y-13802600D02*
X18036300Y-13832600D01*
X18036300Y-13802600D02*
X18006300Y-13832600D01*
X18082500Y-12278600D02*
X18112500Y-12308600D01*
X18112500Y-12278600D02*
X18082500Y-12308600D01*
X18082500Y-12431000D02*
X18112500Y-12461000D01*
X18112500Y-12431000D02*
X18082500Y-12461000D01*
X18148940Y-12608808D02*
X18178940Y-12638808D01*
X18178940Y-12608808D02*
X18148940Y-12638808D01*
X18214837Y-12769332D02*
X18244837Y-12799332D01*
X18244837Y-12769332D02*
X18214837Y-12799332D01*
X18285700Y-12913600D02*
X18315700Y-12943600D01*
X18315700Y-12913600D02*
X18285700Y-12943600D01*
X18344400Y-9129000D02*
X18374400Y-9159000D01*
X18374400Y-9129000D02*
X18344400Y-9159000D01*
X18344560Y-13106163D02*
X18374560Y-13136163D01*
X18374560Y-13106163D02*
X18344560Y-13136163D01*
X18409400Y-9100300D02*
X18439400Y-9130300D01*
X18439400Y-9100300D02*
X18409400Y-9130300D01*
X18412700Y-13294600D02*
X18442700Y-13324600D01*
X18442700Y-13294600D02*
X18412700Y-13324600D01*
X18474019Y-13483083D02*
X18504019Y-13513083D01*
X18504019Y-13483083D02*
X18474019Y-13513083D01*
X18539700Y-13675600D02*
X18569700Y-13705600D01*
X18569700Y-13675600D02*
X18539700Y-13705600D01*
X18704800Y-13764500D02*
X18734800Y-13794500D01*
X18734800Y-13764500D02*
X18704800Y-13794500D01*
X18742900Y-8621000D02*
X18772900Y-8651000D01*
X18772900Y-8621000D02*
X18742900Y-8651000D01*
X18862903Y-13860397D02*
X18892903Y-13890397D01*
X18892903Y-13860397D02*
X18862903Y-13890397D01*
X18869900Y-7478000D02*
X18899900Y-7508000D01*
X18899900Y-7478000D02*
X18869900Y-7508000D01*
X18869900Y-8646400D02*
X18899900Y-8676400D01*
X18899900Y-8646400D02*
X18869900Y-8676400D01*
X18920700Y-9205200D02*
X18950700Y-9235200D01*
X18950700Y-9205200D02*
X18920700Y-9235200D01*
X18977850Y-14012150D02*
X19007850Y-14042150D01*
X19007850Y-14012150D02*
X18977850Y-14042150D01*
X18994400Y-11849300D02*
X19024400Y-11879300D01*
X19024400Y-11849300D02*
X18994400Y-11879300D01*
X19041350Y-14202650D02*
X19071350Y-14232650D01*
X19071350Y-14202650D02*
X19041350Y-14232650D01*
X19047910Y-10068590D02*
X19077910Y-10098590D01*
X19077910Y-10068590D02*
X19047910Y-10098590D01*
X19090600Y-9857700D02*
X19120600Y-9887700D01*
X19120600Y-9857700D02*
X19090600Y-9887700D01*
X19098500Y-10246600D02*
X19128500Y-10276600D01*
X19128500Y-10246600D02*
X19098500Y-10276600D01*
X19098500Y-10442700D02*
X19128500Y-10472700D01*
X19128500Y-10442700D02*
X19098500Y-10472700D01*
X19098500Y-10637700D02*
X19128500Y-10667700D01*
X19128500Y-10637700D02*
X19098500Y-10667700D01*
X19098500Y-10962700D02*
X19128500Y-10992700D01*
X19128500Y-10962700D02*
X19098500Y-10992700D01*
X19123900Y-7478000D02*
X19153900Y-7508000D01*
X19153900Y-7478000D02*
X19123900Y-7508000D01*
X19180015Y-13959980D02*
X19210015Y-13989980D01*
X19210015Y-13959980D02*
X19180015Y-13989980D01*
X19403300Y-8570200D02*
X19433300Y-8600200D01*
X19433300Y-8570200D02*
X19403300Y-8600200D01*
X19403300Y-11034000D02*
X19433300Y-11064000D01*
X19433300Y-11034000D02*
X19403300Y-11064000D01*
X19403300Y-11821400D02*
X19433300Y-11851400D01*
X19433300Y-11821400D02*
X19403300Y-11851400D01*
X19428700Y-12532600D02*
X19458700Y-12562600D01*
X19458700Y-12532600D02*
X19428700Y-12562600D01*
X19454100Y-9154400D02*
X19484100Y-9184400D01*
X19484100Y-9154400D02*
X19454100Y-9184400D01*
X19479500Y-9814800D02*
X19509500Y-9844800D01*
X19509500Y-9814800D02*
X19479500Y-9844800D01*
X19498550Y-9002000D02*
X19528550Y-9032000D01*
X19528550Y-9002000D02*
X19498550Y-9032000D01*
X19530300Y-12532600D02*
X19560300Y-12562600D01*
X19560300Y-12532600D02*
X19530300Y-12562600D01*
X19530300Y-13091400D02*
X19560300Y-13121400D01*
X19560300Y-13091400D02*
X19530300Y-13121400D01*
X19606500Y-9256000D02*
X19636500Y-9286000D01*
X19636500Y-9256000D02*
X19606500Y-9286000D01*
X19631900Y-14361400D02*
X19661900Y-14391400D01*
X19661900Y-14361400D02*
X19631900Y-14391400D01*
X19657300Y-14640800D02*
X19687300Y-14670800D01*
X19687300Y-14640800D02*
X19657300Y-14670800D01*
X19682700Y-9814800D02*
X19712700Y-9844800D01*
X19712700Y-9814800D02*
X19682700Y-9844800D01*
X19708100Y-8697200D02*
X19738100Y-8727200D01*
X19738100Y-8697200D02*
X19708100Y-8727200D01*
X19733500Y-14437600D02*
X19763500Y-14467600D01*
X19763500Y-14437600D02*
X19733500Y-14467600D01*
X19758900Y-13802600D02*
X19788900Y-13832600D01*
X19788900Y-13802600D02*
X19758900Y-13832600D01*
X19818064Y-13193000D02*
X19848064Y-13223000D01*
X19848064Y-13193000D02*
X19818064Y-13223000D01*
X19835100Y-9052800D02*
X19865100Y-9082800D01*
X19865100Y-9052800D02*
X19835100Y-9082800D01*
X19936700Y-9052800D02*
X19966700Y-9082800D01*
X19966700Y-9052800D02*
X19936700Y-9082800D01*
X20063700Y-8900400D02*
X20093700Y-8930400D01*
X20093700Y-8900400D02*
X20063700Y-8930400D01*
X20089100Y-8671800D02*
X20119100Y-8701800D01*
X20119100Y-8671800D02*
X20089100Y-8701800D01*
X20114500Y-14437600D02*
X20144500Y-14467600D01*
X20144500Y-14437600D02*
X20114500Y-14467600D01*
X20139900Y-11034000D02*
X20169900Y-11064000D01*
X20169900Y-11034000D02*
X20139900Y-11064000D01*
X20139900Y-14361400D02*
X20169900Y-14391400D01*
X20169900Y-14361400D02*
X20139900Y-14391400D01*
X20208000Y-14437000D02*
X20238000Y-14467000D01*
X20238000Y-14437000D02*
X20208000Y-14467000D01*
X20247951Y-7686879D02*
X20277951Y-7716879D01*
X20277951Y-7686879D02*
X20247951Y-7716879D01*
X20296716Y-10068590D02*
X20326716Y-10098590D01*
X20326716Y-10068590D02*
X20296716Y-10098590D01*
X20431276Y-7631155D02*
X20461276Y-7661155D01*
X20461276Y-7631155D02*
X20431276Y-7661155D01*
X20571700Y-11821400D02*
X20601700Y-11851400D01*
X20601700Y-11821400D02*
X20571700Y-11851400D01*
X20571700Y-12278600D02*
X20601700Y-12308600D01*
X20601700Y-12278600D02*
X20571700Y-12308600D01*
X20571700Y-14463000D02*
X20601700Y-14493000D01*
X20601700Y-14463000D02*
X20571700Y-14493000D01*
X20572000Y-12560000D02*
X20602000Y-12590000D01*
X20602000Y-12560000D02*
X20572000Y-12590000D01*
X20643000Y-12380200D02*
X20673000Y-12410200D01*
X20673000Y-12380200D02*
X20643000Y-12410200D01*
X20662000Y-14549000D02*
X20692000Y-14579000D01*
X20692000Y-14549000D02*
X20662000Y-14579000D01*
X20673300Y-7631222D02*
X20703300Y-7661222D01*
X20703300Y-7631222D02*
X20673300Y-7661222D01*
X20774900Y-13243800D02*
X20804900Y-13273800D01*
X20804900Y-13243800D02*
X20774900Y-13273800D01*
X20774900Y-13320000D02*
X20804900Y-13350000D01*
X20804900Y-13320000D02*
X20774900Y-13350000D01*
X20774900Y-13396200D02*
X20804900Y-13426200D01*
X20804900Y-13396200D02*
X20774900Y-13426200D01*
X20774900Y-13472400D02*
X20804900Y-13502400D01*
X20804900Y-13472400D02*
X20774900Y-13502400D01*
X20774900Y-13548600D02*
X20804900Y-13578600D01*
X20804900Y-13548600D02*
X20774900Y-13578600D01*
X20774900Y-13624800D02*
X20804900Y-13654800D01*
X20804900Y-13624800D02*
X20774900Y-13654800D01*
X20774900Y-13701000D02*
X20804900Y-13731000D01*
X20804900Y-13701000D02*
X20774900Y-13731000D01*
X20774900Y-13777200D02*
X20804900Y-13807200D01*
X20804900Y-13777200D02*
X20774900Y-13807200D01*
X20819350Y-14585800D02*
X20849350Y-14615800D01*
X20849350Y-14585800D02*
X20819350Y-14615800D01*
X20978100Y-7681200D02*
X21008100Y-7711200D01*
X21008100Y-7681200D02*
X20978100Y-7711200D01*
X21050000Y-13127000D02*
X21080000Y-13157000D01*
X21080000Y-13127000D02*
X21050000Y-13157000D01*
X21073350Y-14585800D02*
X21103350Y-14615800D01*
X21103350Y-14585800D02*
X21073350Y-14615800D01*
X21105100Y-9764000D02*
X21135100Y-9794000D01*
X21135100Y-9764000D02*
X21105100Y-9794000D01*
X21181300Y-9814800D02*
X21211300Y-9844800D01*
X21211300Y-9814800D02*
X21181300Y-9844800D01*
X21184000Y-14374000D02*
X21214000Y-14404000D01*
X21214000Y-14374000D02*
X21184000Y-14404000D01*
X21208000Y-14557000D02*
X21238000Y-14587000D01*
X21238000Y-14557000D02*
X21208000Y-14587000D01*
X21250000Y-12954000D02*
X21280000Y-12984000D01*
X21280000Y-12954000D02*
X21250000Y-12984000D01*
X21326000Y-14585800D02*
X21356000Y-14615800D01*
X21356000Y-14585800D02*
X21326000Y-14615800D01*
X21349382Y-14348600D02*
X21379382Y-14378600D01*
X21379382Y-14348600D02*
X21349382Y-14378600D01*
X21384500Y-9484600D02*
X21414500Y-9514600D01*
X21414500Y-9484600D02*
X21384500Y-9514600D01*
X21423000Y-14356900D02*
X21453000Y-14386900D01*
X21453000Y-14356900D02*
X21423000Y-14386900D01*
X21435300Y-9560800D02*
X21465300Y-9590800D01*
X21465300Y-9560800D02*
X21435300Y-9590800D01*
X21575000Y-14585800D02*
X21605000Y-14615800D01*
X21605000Y-14585800D02*
X21575000Y-14615800D01*
X21622000Y-14372000D02*
X21652000Y-14402000D01*
X21652000Y-14372000D02*
X21622000Y-14402000D01*
X21778200Y-11021300D02*
X21808200Y-11051300D01*
X21808200Y-11021300D02*
X21778200Y-11051300D01*
X21831000Y-14545000D02*
X21861000Y-14575000D01*
X21861000Y-14545000D02*
X21831000Y-14575000D01*
X22032200Y-11021300D02*
X22062200Y-11051300D01*
X22062200Y-11021300D02*
X22032200Y-11051300D01*
X22034101Y-14717000D02*
X22064101Y-14747000D01*
X22064101Y-14717000D02*
X22034101Y-14747000D01*
X22095700Y-8169000D02*
X22125700Y-8199000D01*
X22125700Y-8169000D02*
X22095700Y-8199000D01*
X22133800Y-10119600D02*
X22163800Y-10149600D01*
X22163800Y-10119600D02*
X22133800Y-10149600D01*
X22133800Y-10348200D02*
X22163800Y-10378200D01*
X22163800Y-10348200D02*
X22133800Y-10378200D01*
X22133800Y-10576800D02*
X22163800Y-10606800D01*
X22163800Y-10576800D02*
X22133800Y-10606800D01*
X22250800Y-8165000D02*
X22280800Y-8195000D01*
X22280800Y-8165000D02*
X22250800Y-8195000D01*
X22260800Y-9967200D02*
X22290800Y-9997200D01*
X22290800Y-9967200D02*
X22260800Y-9997200D01*
X22260800Y-10348200D02*
X22290800Y-10378200D01*
X22290800Y-10348200D02*
X22260800Y-10378200D01*
X22260800Y-10703800D02*
X22290800Y-10733800D01*
X22290800Y-10703800D02*
X22260800Y-10733800D01*
X22305000Y-7322000D02*
X22335000Y-7352000D01*
X22335000Y-7322000D02*
X22305000Y-7352000D01*
X22483050Y-12951700D02*
X22513050Y-12981700D01*
X22513050Y-12951700D02*
X22483050Y-12981700D01*
X22489400Y-9967200D02*
X22519400Y-9997200D01*
X22519400Y-9967200D02*
X22489400Y-9997200D01*
X22489400Y-10703800D02*
X22519400Y-10733800D01*
X22519400Y-10703800D02*
X22489400Y-10733800D01*
X22552900Y-8059700D02*
X22582900Y-8089700D01*
X22582900Y-8059700D02*
X22552900Y-8089700D01*
X22559250Y-13732750D02*
X22589250Y-13762750D01*
X22589250Y-13732750D02*
X22559250Y-13762750D01*
X22591000Y-10526000D02*
X22621000Y-10556000D01*
X22621000Y-10526000D02*
X22591000Y-10556000D01*
X22603700Y-10119600D02*
X22633700Y-10149600D01*
X22633700Y-10119600D02*
X22603700Y-10149600D01*
X22692600Y-13726400D02*
X22722600Y-13756400D01*
X22722600Y-13726400D02*
X22692600Y-13756400D01*
X22718000Y-9967200D02*
X22748000Y-9997200D01*
X22748000Y-9967200D02*
X22718000Y-9997200D01*
X22718000Y-10703800D02*
X22748000Y-10733800D01*
X22748000Y-10703800D02*
X22718000Y-10733800D01*
X22819600Y-13726400D02*
X22849600Y-13756400D01*
X22849600Y-13726400D02*
X22819600Y-13756400D01*
X22832300Y-9129000D02*
X22862300Y-9159000D01*
X22862300Y-9129000D02*
X22832300Y-9159000D01*
X22832300Y-10119600D02*
X22862300Y-10149600D01*
X22862300Y-10119600D02*
X22832300Y-10149600D01*
X22832300Y-10348200D02*
X22862300Y-10378200D01*
X22862300Y-10348200D02*
X22832300Y-10378200D01*
X22837000Y-10576800D02*
X22867000Y-10606800D01*
X22867000Y-10576800D02*
X22837000Y-10606800D01*
X22923000Y-7326000D02*
X22953000Y-7356000D01*
X22953000Y-7326000D02*
X22923000Y-7356000D01*
X22946600Y-13726400D02*
X22976600Y-13756400D01*
X22976600Y-13726400D02*
X22946600Y-13756400D01*
X23012000Y-8452000D02*
X23042000Y-8482000D01*
X23042000Y-8452000D02*
X23012000Y-8482000D01*
X23073600Y-13726400D02*
X23103600Y-13756400D01*
X23103600Y-13726400D02*
X23073600Y-13756400D01*
X23086300Y-10030700D02*
X23116300Y-10060700D01*
X23116300Y-10030700D02*
X23086300Y-10060700D01*
X23086300Y-10233900D02*
X23116300Y-10263900D01*
X23116300Y-10233900D02*
X23086300Y-10263900D01*
X23086300Y-10462500D02*
X23116300Y-10492500D01*
X23116300Y-10462500D02*
X23086300Y-10492500D01*
X23086300Y-10665700D02*
X23116300Y-10695700D01*
X23116300Y-10665700D02*
X23086300Y-10695700D01*
X23200600Y-13726400D02*
X23230600Y-13756400D01*
X23230600Y-13726400D02*
X23200600Y-13756400D01*
X23213300Y-9027400D02*
X23243300Y-9057400D01*
X23243300Y-9027400D02*
X23213300Y-9057400D01*
X23270000Y-8457000D02*
X23300000Y-8487000D01*
X23300000Y-8457000D02*
X23270000Y-8487000D01*
X23327600Y-10119600D02*
X23357600Y-10149600D01*
X23357600Y-10119600D02*
X23327600Y-10149600D01*
X23327600Y-10348200D02*
X23357600Y-10378200D01*
X23357600Y-10348200D02*
X23327600Y-10378200D01*
X23327600Y-10576800D02*
X23357600Y-10606800D01*
X23357600Y-10576800D02*
X23327600Y-10606800D01*
X23327600Y-13726400D02*
X23357600Y-13756400D01*
X23357600Y-13726400D02*
X23327600Y-13756400D01*
X23441900Y-9027400D02*
X23471900Y-9057400D01*
X23471900Y-9027400D02*
X23441900Y-9057400D01*
X23454600Y-13726400D02*
X23484600Y-13756400D01*
X23484600Y-13726400D02*
X23454600Y-13756400D01*
X23492700Y-14717000D02*
X23522700Y-14747000D01*
X23522700Y-14717000D02*
X23492700Y-14747000D01*
X23530000Y-13554000D02*
X23560000Y-13584000D01*
X23560000Y-13554000D02*
X23530000Y-13584000D01*
X23530829Y-14539043D02*
X23560829Y-14569043D01*
X23560829Y-14539043D02*
X23530829Y-14569043D01*
X23543500Y-9967200D02*
X23573500Y-9997200D01*
X23573500Y-9967200D02*
X23543500Y-9997200D01*
X23543500Y-10348200D02*
X23573500Y-10378200D01*
X23573500Y-10348200D02*
X23543500Y-10378200D01*
X23613350Y-14463000D02*
X23643350Y-14493000D01*
X23643350Y-14463000D02*
X23613350Y-14493000D01*
X23613350Y-14717000D02*
X23643350Y-14747000D01*
X23643350Y-14717000D02*
X23613350Y-14747000D01*
X23657800Y-13554950D02*
X23687800Y-13584950D01*
X23687800Y-13554950D02*
X23657800Y-13584950D01*
X23772100Y-9967200D02*
X23802100Y-9997200D01*
X23802100Y-9967200D02*
X23772100Y-9997200D01*
X23772100Y-10576800D02*
X23802100Y-10606800D01*
X23802100Y-10576800D02*
X23772100Y-10606800D01*
X23899100Y-10119600D02*
X23929100Y-10149600D01*
X23929100Y-10119600D02*
X23899100Y-10149600D01*
X23975300Y-14717000D02*
X24005300Y-14747000D01*
X24005300Y-14717000D02*
X23975300Y-14747000D01*
X23976426Y-13742566D02*
X24006426Y-13772566D01*
X24006426Y-13742566D02*
X23976426Y-13772566D01*
X24000700Y-9967200D02*
X24030700Y-9997200D01*
X24030700Y-9967200D02*
X24000700Y-9997200D01*
X24004000Y-8839000D02*
X24034000Y-8869000D01*
X24034000Y-8839000D02*
X24004000Y-8869000D01*
X24026100Y-10932400D02*
X24056100Y-10962400D01*
X24056100Y-10932400D02*
X24026100Y-10962400D01*
X24026100Y-11110200D02*
X24056100Y-11140200D01*
X24056100Y-11110200D02*
X24026100Y-11140200D01*
X24026100Y-11288000D02*
X24056100Y-11318000D01*
X24056100Y-11288000D02*
X24026100Y-11318000D01*
X24026100Y-11491200D02*
X24056100Y-11521200D01*
X24056100Y-11491200D02*
X24026100Y-11521200D01*
X24038800Y-14463000D02*
X24068800Y-14493000D01*
X24068800Y-14463000D02*
X24038800Y-14493000D01*
X24165800Y-14539200D02*
X24195800Y-14569200D01*
X24195800Y-14539200D02*
X24165800Y-14569200D01*
X24216100Y-11301200D02*
X24246100Y-11331200D01*
X24246100Y-11301200D02*
X24216100Y-11331200D01*
X24223200Y-10926300D02*
X24253200Y-10956300D01*
X24253200Y-10926300D02*
X24223200Y-10956300D01*
X24299150Y-14463000D02*
X24329150Y-14493000D01*
X24329150Y-14463000D02*
X24299150Y-14493000D01*
X24380756Y-12801863D02*
X24410756Y-12831863D01*
X24410756Y-12801863D02*
X24380756Y-12831863D01*
X24457900Y-10011900D02*
X24487900Y-10041900D01*
X24487900Y-10011900D02*
X24457900Y-10041900D01*
X24457900Y-10119600D02*
X24487900Y-10149600D01*
X24487900Y-10119600D02*
X24457900Y-10149600D01*
X24457900Y-10488400D02*
X24487900Y-10518400D01*
X24487900Y-10488400D02*
X24457900Y-10518400D01*
X24466000Y-10577838D02*
X24496000Y-10607838D01*
X24496000Y-10577838D02*
X24466000Y-10607838D01*
X24675342Y-13727442D02*
X24705342Y-13757442D01*
X24705342Y-13727442D02*
X24675342Y-13757442D01*
X24915100Y-10246850D02*
X24945100Y-10276850D01*
X24945100Y-10246850D02*
X24915100Y-10276850D01*
X24915100Y-10348600D02*
X24945100Y-10378600D01*
X24945100Y-10348600D02*
X24915100Y-10378600D01*
X24991300Y-11034000D02*
X25021300Y-11064000D01*
X25021300Y-11034000D02*
X24991300Y-11064000D01*
X24991300Y-11389600D02*
X25021300Y-11419600D01*
X25021300Y-11389600D02*
X24991300Y-11419600D01*
X25062000Y-14122000D02*
X25092000Y-14152000D01*
X25092000Y-14122000D02*
X25062000Y-14152000D01*
X25062000Y-14456000D02*
X25092000Y-14486000D01*
X25092000Y-14456000D02*
X25062000Y-14486000D01*
X25283400Y-10691100D02*
X25313400Y-10721100D01*
X25313400Y-10691100D02*
X25283400Y-10721100D01*
X25315000Y-8476000D02*
X25345000Y-8506000D01*
X25345000Y-8476000D02*
X25315000Y-8506000D01*
X25479000Y-13516000D02*
X25509000Y-13546000D01*
X25509000Y-13516000D02*
X25479000Y-13546000D01*
X25776000Y-13512000D02*
X25806000Y-13542000D01*
X25806000Y-13512000D02*
X25776000Y-13542000D01*
X26158000Y-9285000D02*
X26188000Y-9315000D01*
X26188000Y-9285000D02*
X26158000Y-9315000D01*
X24205880Y-10015220D02*
G75*
G02*
X24165880Y-10015220I-20000J0D01*
G01*
X24165880Y-10015220D02*
G75*
G02*
X24205880Y-10015220I20000J0D01*
G01*
X24205880Y-10243820D02*
G75*
G02*
X24165880Y-10243820I-20000J0D01*
G01*
X24165880Y-10243820D02*
G75*
G02*
X24205880Y-10243820I20000J0D01*
G01*
X24205880Y-10472420D02*
G75*
G02*
X24165880Y-10472420I-20000J0D01*
G01*
X24165880Y-10472420D02*
G75*
G02*
X24205880Y-10472420I20000J0D01*
G01*
X24205880Y-10701020D02*
G75*
G02*
X24165880Y-10701020I-20000J0D01*
G01*
X24165880Y-10701020D02*
G75*
G02*
X24205880Y-10701020I20000J0D01*
G01*
X24721500Y-10020300D02*
G75*
G02*
X24681500Y-10020300I-20000J0D01*
G01*
X24681500Y-10020300D02*
G75*
G02*
X24721500Y-10020300I20000J0D01*
G01*
X24721500Y-10248900D02*
G75*
G02*
X24681500Y-10248900I-20000J0D01*
G01*
X24681500Y-10248900D02*
G75*
G02*
X24721500Y-10248900I20000J0D01*
G01*
X24721500Y-10477500D02*
G75*
G02*
X24681500Y-10477500I-20000J0D01*
G01*
X24681500Y-10477500D02*
G75*
G02*
X24721500Y-10477500I20000J0D01*
G01*
X24721500Y-10706100D02*
G75*
G02*
X24681500Y-10706100I-20000J0D01*
G01*
X24681500Y-10706100D02*
G75*
G02*
X24721500Y-10706100I20000J0D01*
G01*
X25166000Y-10033000D02*
G75*
G02*
X25126000Y-10033000I-20000J0D01*
G01*
X25126000Y-10033000D02*
G75*
G02*
X25166000Y-10033000I20000J0D01*
G01*
X25166000Y-10261600D02*
G75*
G02*
X25126000Y-10261600I-20000J0D01*
G01*
X25126000Y-10261600D02*
G75*
G02*
X25166000Y-10261600I20000J0D01*
G01*
X25166000Y-10490200D02*
G75*
G02*
X25126000Y-10490200I-20000J0D01*
G01*
X25126000Y-10490200D02*
G75*
G02*
X25166000Y-10490200I20000J0D01*
G01*
X25166000Y-10718800D02*
G75*
G02*
X25126000Y-10718800I-20000J0D01*
G01*
X25126000Y-10718800D02*
G75*
G02*
X25166000Y-10718800I20000J0D01*
G01*
X15261000Y-12902000D02*
X15261000Y-12982000D01*
X15221000Y-12942000D02*
X15301000Y-12942000D01*
X15749000Y-12902000D02*
X15749000Y-12982000D01*
X15709000Y-12942000D02*
X15789000Y-12942000D01*
X20815300Y-12634600D02*
X20815300Y-12714600D01*
X20775300Y-12674600D02*
X20855300Y-12674600D01*
X20815300Y-14158600D02*
X20815300Y-14238600D01*
X20775300Y-14198600D02*
X20855300Y-14198600D01*
X21069300Y-12634600D02*
X21069300Y-12714600D01*
X21029300Y-12674600D02*
X21109300Y-12674600D01*
X21069300Y-14158600D02*
X21069300Y-14238600D01*
X21029300Y-14198600D02*
X21109300Y-14198600D01*
X21323300Y-12634600D02*
X21323300Y-12714600D01*
X21283300Y-12674600D02*
X21363300Y-12674600D01*
X21323300Y-14158600D02*
X21323300Y-14238600D01*
X21283300Y-14198600D02*
X21363300Y-14198600D01*
X21577300Y-12634600D02*
X21577300Y-12714600D01*
X21537300Y-12674600D02*
X21617300Y-12674600D01*
X21577300Y-14158600D02*
X21577300Y-14238600D01*
X21537300Y-14198600D02*
X21617300Y-14198600D01*
X21831300Y-12634600D02*
X21831300Y-12714600D01*
X21791300Y-12674600D02*
X21871300Y-12674600D01*
X21831300Y-14158600D02*
X21831300Y-14238600D01*
X21791300Y-14198600D02*
X21871300Y-14198600D01*
X22085300Y-12634600D02*
X22085300Y-12714600D01*
X22045300Y-12674600D02*
X22125300Y-12674600D01*
X22085300Y-14158600D02*
X22085300Y-14238600D01*
X22045300Y-14198600D02*
X22125300Y-14198600D01*
X22339300Y-12634600D02*
X22339300Y-12714600D01*
X22299300Y-12674600D02*
X22379300Y-12674600D01*
X22339300Y-14158600D02*
X22339300Y-14238600D01*
X22299300Y-14198600D02*
X22379300Y-14198600D01*
X22593300Y-12634600D02*
X22593300Y-12714600D01*
X22553300Y-12674600D02*
X22633300Y-12674600D01*
X22593300Y-14158600D02*
X22593300Y-14238600D01*
X22553300Y-14198600D02*
X22633300Y-14198600D01*
X22847300Y-12634600D02*
X22847300Y-12714600D01*
X22807300Y-12674600D02*
X22887300Y-12674600D01*
X22847300Y-14158600D02*
X22847300Y-14238600D01*
X22807300Y-14198600D02*
X22887300Y-14198600D01*
X23101300Y-12634600D02*
X23101300Y-12714600D01*
X23061300Y-12674600D02*
X23141300Y-12674600D01*
X23101300Y-14158600D02*
X23101300Y-14238600D01*
X23061300Y-14198600D02*
X23141300Y-14198600D01*
X23355300Y-12634600D02*
X23355300Y-12714600D01*
X23315300Y-12674600D02*
X23395300Y-12674600D01*
X23355300Y-14158600D02*
X23355300Y-14238600D01*
X23315300Y-14198600D02*
X23395300Y-14198600D01*
X23609300Y-12634600D02*
X23609300Y-12714600D01*
X23569300Y-12674600D02*
X23649300Y-12674600D01*
X23609300Y-14158600D02*
X23609300Y-14238600D01*
X23569300Y-14198600D02*
X23649300Y-14198600D01*
X23863300Y-12634600D02*
X23863300Y-12714600D01*
X23823300Y-12674600D02*
X23903300Y-12674600D01*
X23863300Y-14158600D02*
X23863300Y-14238600D01*
X23823300Y-14198600D02*
X23903300Y-14198600D01*
X24117300Y-12634600D02*
X24117300Y-12714600D01*
X24077300Y-12674600D02*
X24157300Y-12674600D01*
X24117300Y-14158600D02*
X24117300Y-14238600D01*
X24077300Y-14198600D02*
X24157300Y-14198600D01*
X18615456Y-7858556D02*
X18615456Y-7787844D01*
X18544744Y-7787844D01*
X18544744Y-7858556D01*
X18615456Y-7858556D01*
X18615456Y-8112556D02*
X18615456Y-8041844D01*
X18544744Y-8041844D01*
X18544744Y-8112556D01*
X18615456Y-8112556D01*
X18869456Y-7858556D02*
X18869456Y-7787844D01*
X18798744Y-7787844D01*
X18798744Y-7858556D01*
X18869456Y-7858556D01*
X18869456Y-8112556D02*
X18869456Y-8041844D01*
X18798744Y-8041844D01*
X18798744Y-8112556D01*
X18869456Y-8112556D01*
X19123456Y-7858556D02*
X19123456Y-7787844D01*
X19052744Y-7787844D01*
X19052744Y-7858556D01*
X19123456Y-7858556D01*
X19123456Y-8112556D02*
X19123456Y-8041844D01*
X19052744Y-8041844D01*
X19052744Y-8112556D01*
X19123456Y-8112556D01*
X19377456Y-7858556D02*
X19377456Y-7787844D01*
X19306744Y-7787844D01*
X19306744Y-7858556D01*
X19377456Y-7858556D01*
X19377456Y-8112556D02*
X19377456Y-8041844D01*
X19306744Y-8041844D01*
X19306744Y-8112556D01*
X19377456Y-8112556D01*
X19631456Y-7858556D02*
X19631456Y-7787844D01*
X19560744Y-7787844D01*
X19560744Y-7858556D01*
X19631456Y-7858556D01*
X19631456Y-8112556D02*
X19631456Y-8041844D01*
X19560744Y-8041844D01*
X19560744Y-8112556D01*
X19631456Y-8112556D01*
X19885456Y-7858556D02*
X19885456Y-7787844D01*
X19814744Y-7787844D01*
X19814744Y-7858556D01*
X19885456Y-7858556D01*
X19885456Y-8112556D02*
X19885456Y-8041844D01*
X19814744Y-8041844D01*
X19814744Y-8112556D01*
X19885456Y-8112556D01*
X20139456Y-7858556D02*
X20139456Y-7787844D01*
X20068744Y-7787844D01*
X20068744Y-7858556D01*
X20139456Y-7858556D01*
X20139456Y-8112556D02*
X20139456Y-8041844D01*
X20068744Y-8041844D01*
X20068744Y-8112556D01*
X20139456Y-8112556D01*
X20393456Y-7858556D02*
X20393456Y-7787844D01*
X20322744Y-7787844D01*
X20322744Y-7858556D01*
X20393456Y-7858556D01*
X20393456Y-8112556D02*
X20393456Y-8041844D01*
X20322744Y-8041844D01*
X20322744Y-8112556D01*
X20393456Y-8112556D01*
X20647456Y-7858556D02*
X20647456Y-7787844D01*
X20576744Y-7787844D01*
X20576744Y-7858556D01*
X20647456Y-7858556D01*
X20647456Y-8112556D02*
X20647456Y-8041844D01*
X20576744Y-8041844D01*
X20576744Y-8112556D01*
X20647456Y-8112556D01*
X20901456Y-7858556D02*
X20901456Y-7787844D01*
X20830744Y-7787844D01*
X20830744Y-7858556D01*
X20901456Y-7858556D01*
X20901456Y-8112556D02*
X20901456Y-8041844D01*
X20830744Y-8041844D01*
X20830744Y-8112556D01*
X20901456Y-8112556D01*
X21155456Y-7858556D02*
X21155456Y-7787844D01*
X21084744Y-7787844D01*
X21084744Y-7858556D01*
X21155456Y-7858556D01*
X21155456Y-8112556D02*
X21155456Y-8041844D01*
X21084744Y-8041844D01*
X21084744Y-8112556D01*
X21155456Y-8112556D01*
X21409456Y-7858556D02*
X21409456Y-7787844D01*
X21338744Y-7787844D01*
X21338744Y-7858556D01*
X21409456Y-7858556D01*
X21409456Y-8112556D02*
X21409456Y-8041844D01*
X21338744Y-8041844D01*
X21338744Y-8112556D01*
X21409456Y-8112556D01*
X21663456Y-7858556D02*
X21663456Y-7787844D01*
X21592744Y-7787844D01*
X21592744Y-7858556D01*
X21663456Y-7858556D01*
X21663456Y-8112556D02*
X21663456Y-8041844D01*
X21592744Y-8041844D01*
X21592744Y-8112556D01*
X21663456Y-8112556D01*
X23619256Y-11922556D02*
X23619256Y-11851844D01*
X23548544Y-11851844D01*
X23548544Y-11922556D01*
X23619256Y-11922556D01*
X23619256Y-12176556D02*
X23619256Y-12105844D01*
X23548544Y-12105844D01*
X23548544Y-12176556D01*
X23619256Y-12176556D01*
X24259356Y-8524356D02*
X24259356Y-8453644D01*
X24188644Y-8453644D01*
X24188644Y-8524356D01*
X24259356Y-8524356D01*
X24259356Y-8778356D02*
X24259356Y-8707644D01*
X24188644Y-8707644D01*
X24188644Y-8778356D01*
X24259356Y-8778356D01*
X24259356Y-9032356D02*
X24259356Y-8961644D01*
X24188644Y-8961644D01*
X24188644Y-9032356D01*
X24259356Y-9032356D01*
X24513356Y-8524356D02*
X24513356Y-8453644D01*
X24442644Y-8453644D01*
X24442644Y-8524356D01*
X24513356Y-8524356D01*
X24513356Y-8778356D02*
X24513356Y-8707644D01*
X24442644Y-8707644D01*
X24442644Y-8778356D01*
X24513356Y-8778356D01*
X24513356Y-9032356D02*
X24513356Y-8961644D01*
X24442644Y-8961644D01*
X24442644Y-9032356D01*
X24513356Y-9032356D01*
X24880356Y-8527356D02*
X24880356Y-8456644D01*
X24809644Y-8456644D01*
X24809644Y-8527356D01*
X24880356Y-8527356D01*
X24880356Y-8781356D02*
X24880356Y-8710644D01*
X24809644Y-8710644D01*
X24809644Y-8781356D01*
X24880356Y-8781356D01*
X24880356Y-9035356D02*
X24880356Y-8964644D01*
X24809644Y-8964644D01*
X24809644Y-9035356D01*
X24880356Y-9035356D01*
X25134356Y-8527356D02*
X25134356Y-8456644D01*
X25063644Y-8456644D01*
X25063644Y-8527356D01*
X25134356Y-8527356D01*
X25134356Y-8781356D02*
X25134356Y-8710644D01*
X25063644Y-8710644D01*
X25063644Y-8781356D01*
X25134356Y-8781356D01*
X25134356Y-9035356D02*
X25134356Y-8964644D01*
X25063644Y-8964644D01*
X25063644Y-9035356D01*
X25134356Y-9035356D01*
X25440436Y-10170896D02*
X25440436Y-10100184D01*
X25369724Y-10100184D01*
X25369724Y-10170896D01*
X25440436Y-10170896D01*
X25440436Y-10399896D02*
X25440436Y-10329184D01*
X25369724Y-10329184D01*
X25369724Y-10399896D01*
X25440436Y-10399896D01*
X25440436Y-10628896D02*
X25440436Y-10558184D01*
X25369724Y-10558184D01*
X25369724Y-10628896D01*
X25440436Y-10628896D01*
X25440436Y-10857896D02*
X25440436Y-10787184D01*
X25369724Y-10787184D01*
X25369724Y-10857896D01*
X25440436Y-10857896D01*
X25440436Y-11086896D02*
X25440436Y-11016184D01*
X25369724Y-11016184D01*
X25369724Y-11086896D01*
X25440436Y-11086896D01*
X25694436Y-10056396D02*
X25694436Y-9985684D01*
X25623724Y-9985684D01*
X25623724Y-10056396D01*
X25694436Y-10056396D01*
X25694436Y-10285396D02*
X25694436Y-10214684D01*
X25623724Y-10214684D01*
X25623724Y-10285396D01*
X25694436Y-10285396D01*
X25694436Y-10514396D02*
X25694436Y-10443684D01*
X25623724Y-10443684D01*
X25623724Y-10514396D01*
X25694436Y-10514396D01*
X25694436Y-10743396D02*
X25694436Y-10672684D01*
X25623724Y-10672684D01*
X25623724Y-10743396D01*
X25694436Y-10743396D01*
X25694436Y-10972396D02*
X25694436Y-10901684D01*
X25623724Y-10901684D01*
X25623724Y-10972396D01*
X25694436Y-10972396D01*
X25948436Y-10170896D02*
X25948436Y-10100184D01*
X25877724Y-10100184D01*
X25877724Y-10170896D01*
X25948436Y-10170896D01*
X25948436Y-10399896D02*
X25948436Y-10329184D01*
X25877724Y-10329184D01*
X25877724Y-10399896D01*
X25948436Y-10399896D01*
X25948436Y-10628896D02*
X25948436Y-10558184D01*
X25877724Y-10558184D01*
X25877724Y-10628896D01*
X25948436Y-10628896D01*
X25948436Y-10857896D02*
X25948436Y-10787184D01*
X25877724Y-10787184D01*
X25877724Y-10857896D01*
X25948436Y-10857896D01*
X25948436Y-11086896D02*
X25948436Y-11016184D01*
X25877724Y-11016184D01*
X25877724Y-11086896D01*
X25948436Y-11086896D01*
D13*
X24928100Y-13011500D02*
X24978600Y-12961000D01*
X24928100Y-12910500D01*
X24877600Y-12961000D01*
X24928100Y-13011500D01*
X25438100Y-13131500D02*
X25488600Y-13081000D01*
X25438100Y-13030500D01*
X25387600Y-13081000D01*
X25438100Y-13131500D01*
D14*
X25495030Y-9157040D02*
X25815030Y-9477040D01*
X25815030Y-9157040D02*
X25495030Y-9477040D01*
X25815030Y-9317040D02*
G75*
G02*
X25495030Y-9317040I-160000J0D01*
G01*
X25495030Y-9317040D02*
G75*
G02*
X25815030Y-9317040I160000J0D01*
G01*
X25495030Y-11657040D02*
X25815030Y-11977040D01*
X25815030Y-11657040D02*
X25495030Y-11977040D01*
X25815030Y-11817040D02*
G75*
G02*
X25495030Y-11817040I-160000J0D01*
G01*
X25495030Y-11817040D02*
G75*
G02*
X25815030Y-11817040I160000J0D01*
G01*
D11*
X10253177Y-15945144D02*
X10253177Y-15745144D01*
X10253177Y-15745144D02*
X10300796Y-15745144D01*
X10300796Y-15745144D02*
X10329367Y-15754668D01*
X10329367Y-15754668D02*
X10348415Y-15773715D01*
X10348415Y-15773715D02*
X10357939Y-15792763D01*
X10357939Y-15792763D02*
X10367463Y-15830858D01*
X10367463Y-15830858D02*
X10367463Y-15859429D01*
X10367463Y-15859429D02*
X10357939Y-15897525D01*
X10357939Y-15897525D02*
X10348415Y-15916572D01*
X10348415Y-15916572D02*
X10329367Y-15935620D01*
X10329367Y-15935620D02*
X10300796Y-15945144D01*
X10300796Y-15945144D02*
X10253177Y-15945144D01*
X10453177Y-15945144D02*
X10453177Y-15811810D01*
X10453177Y-15849906D02*
X10462701Y-15830858D01*
X10462701Y-15830858D02*
X10472224Y-15821334D01*
X10472224Y-15821334D02*
X10491272Y-15811810D01*
X10491272Y-15811810D02*
X10510320Y-15811810D01*
X10576986Y-15945144D02*
X10576986Y-15811810D01*
X10576986Y-15745144D02*
X10567463Y-15754668D01*
X10567463Y-15754668D02*
X10576986Y-15764191D01*
X10576986Y-15764191D02*
X10586510Y-15754668D01*
X10586510Y-15754668D02*
X10576986Y-15745144D01*
X10576986Y-15745144D02*
X10576986Y-15764191D01*
X10700796Y-15945144D02*
X10681748Y-15935620D01*
X10681748Y-15935620D02*
X10672224Y-15916572D01*
X10672224Y-15916572D02*
X10672224Y-15745144D01*
X10805558Y-15945144D02*
X10786510Y-15935620D01*
X10786510Y-15935620D02*
X10776986Y-15916572D01*
X10776986Y-15916572D02*
X10776986Y-15745144D01*
X11034129Y-15945144D02*
X11034129Y-15745144D01*
X11034129Y-15745144D02*
X11100796Y-15888001D01*
X11100796Y-15888001D02*
X11167463Y-15745144D01*
X11167463Y-15745144D02*
X11167463Y-15945144D01*
X11348415Y-15945144D02*
X11348415Y-15840382D01*
X11348415Y-15840382D02*
X11338891Y-15821334D01*
X11338891Y-15821334D02*
X11319843Y-15811810D01*
X11319843Y-15811810D02*
X11281748Y-15811810D01*
X11281748Y-15811810D02*
X11262701Y-15821334D01*
X11348415Y-15935620D02*
X11329367Y-15945144D01*
X11329367Y-15945144D02*
X11281748Y-15945144D01*
X11281748Y-15945144D02*
X11262701Y-15935620D01*
X11262701Y-15935620D02*
X11253177Y-15916572D01*
X11253177Y-15916572D02*
X11253177Y-15897525D01*
X11253177Y-15897525D02*
X11262701Y-15878477D01*
X11262701Y-15878477D02*
X11281748Y-15868953D01*
X11281748Y-15868953D02*
X11329367Y-15868953D01*
X11329367Y-15868953D02*
X11348415Y-15859429D01*
X11443653Y-15811810D02*
X11443653Y-16011810D01*
X11443653Y-15821334D02*
X11462701Y-15811810D01*
X11462701Y-15811810D02*
X11500796Y-15811810D01*
X11500796Y-15811810D02*
X11519843Y-15821334D01*
X11519843Y-15821334D02*
X11529367Y-15830858D01*
X11529367Y-15830858D02*
X11538891Y-15849906D01*
X11538891Y-15849906D02*
X11538891Y-15907048D01*
X11538891Y-15907048D02*
X11529367Y-15926096D01*
X11529367Y-15926096D02*
X11519843Y-15935620D01*
X11519843Y-15935620D02*
X11500796Y-15945144D01*
X11500796Y-15945144D02*
X11462701Y-15945144D01*
X11462701Y-15945144D02*
X11443653Y-15935620D01*
X11624605Y-15926096D02*
X11634129Y-15935620D01*
X11634129Y-15935620D02*
X11624605Y-15945144D01*
X11624605Y-15945144D02*
X11615082Y-15935620D01*
X11615082Y-15935620D02*
X11624605Y-15926096D01*
X11624605Y-15926096D02*
X11624605Y-15945144D01*
X11624605Y-15821334D02*
X11634129Y-15830858D01*
X11634129Y-15830858D02*
X11624605Y-15840382D01*
X11624605Y-15840382D02*
X11615082Y-15830858D01*
X11615082Y-15830858D02*
X11624605Y-15821334D01*
X11624605Y-15821334D02*
X11624605Y-15840382D01*
D12*
X9962400Y-16258660D02*
X9992400Y-16288660D01*
X9992400Y-16258660D02*
X9962400Y-16288660D01*
D11*
X10291272Y-16165144D02*
X10310320Y-16165144D01*
X10310320Y-16165144D02*
X10329367Y-16174668D01*
X10329367Y-16174668D02*
X10338891Y-16184191D01*
X10338891Y-16184191D02*
X10348415Y-16203239D01*
X10348415Y-16203239D02*
X10357939Y-16241334D01*
X10357939Y-16241334D02*
X10357939Y-16288953D01*
X10357939Y-16288953D02*
X10348415Y-16327048D01*
X10348415Y-16327048D02*
X10338891Y-16346096D01*
X10338891Y-16346096D02*
X10329367Y-16355620D01*
X10329367Y-16355620D02*
X10310320Y-16365144D01*
X10310320Y-16365144D02*
X10291272Y-16365144D01*
X10291272Y-16365144D02*
X10272224Y-16355620D01*
X10272224Y-16355620D02*
X10262701Y-16346096D01*
X10262701Y-16346096D02*
X10253177Y-16327048D01*
X10253177Y-16327048D02*
X10243653Y-16288953D01*
X10243653Y-16288953D02*
X10243653Y-16241334D01*
X10243653Y-16241334D02*
X10253177Y-16203239D01*
X10253177Y-16203239D02*
X10262701Y-16184191D01*
X10262701Y-16184191D02*
X10272224Y-16174668D01*
X10272224Y-16174668D02*
X10291272Y-16165144D01*
X10443653Y-16346096D02*
X10453177Y-16355620D01*
X10453177Y-16355620D02*
X10443653Y-16365144D01*
X10443653Y-16365144D02*
X10434129Y-16355620D01*
X10434129Y-16355620D02*
X10443653Y-16346096D01*
X10443653Y-16346096D02*
X10443653Y-16365144D01*
X10519844Y-16165144D02*
X10643653Y-16165144D01*
X10643653Y-16165144D02*
X10576986Y-16241334D01*
X10576986Y-16241334D02*
X10605558Y-16241334D01*
X10605558Y-16241334D02*
X10624605Y-16250858D01*
X10624605Y-16250858D02*
X10634129Y-16260382D01*
X10634129Y-16260382D02*
X10643653Y-16279429D01*
X10643653Y-16279429D02*
X10643653Y-16327048D01*
X10643653Y-16327048D02*
X10634129Y-16346096D01*
X10634129Y-16346096D02*
X10624605Y-16355620D01*
X10624605Y-16355620D02*
X10605558Y-16365144D01*
X10605558Y-16365144D02*
X10548415Y-16365144D01*
X10548415Y-16365144D02*
X10529367Y-16355620D01*
X10529367Y-16355620D02*
X10519844Y-16346096D01*
X10767463Y-16165144D02*
X10786510Y-16165144D01*
X10786510Y-16165144D02*
X10805558Y-16174668D01*
X10805558Y-16174668D02*
X10815082Y-16184191D01*
X10815082Y-16184191D02*
X10824605Y-16203239D01*
X10824605Y-16203239D02*
X10834129Y-16241334D01*
X10834129Y-16241334D02*
X10834129Y-16288953D01*
X10834129Y-16288953D02*
X10824605Y-16327048D01*
X10824605Y-16327048D02*
X10815082Y-16346096D01*
X10815082Y-16346096D02*
X10805558Y-16355620D01*
X10805558Y-16355620D02*
X10786510Y-16365144D01*
X10786510Y-16365144D02*
X10767463Y-16365144D01*
X10767463Y-16365144D02*
X10748415Y-16355620D01*
X10748415Y-16355620D02*
X10738891Y-16346096D01*
X10738891Y-16346096D02*
X10729367Y-16327048D01*
X10729367Y-16327048D02*
X10719844Y-16288953D01*
X10719844Y-16288953D02*
X10719844Y-16241334D01*
X10719844Y-16241334D02*
X10729367Y-16203239D01*
X10729367Y-16203239D02*
X10738891Y-16184191D01*
X10738891Y-16184191D02*
X10748415Y-16174668D01*
X10748415Y-16174668D02*
X10767463Y-16165144D01*
X10957939Y-16165144D02*
X10976986Y-16165144D01*
X10976986Y-16165144D02*
X10996034Y-16174668D01*
X10996034Y-16174668D02*
X11005558Y-16184191D01*
X11005558Y-16184191D02*
X11015082Y-16203239D01*
X11015082Y-16203239D02*
X11024605Y-16241334D01*
X11024605Y-16241334D02*
X11024605Y-16288953D01*
X11024605Y-16288953D02*
X11015082Y-16327048D01*
X11015082Y-16327048D02*
X11005558Y-16346096D01*
X11005558Y-16346096D02*
X10996034Y-16355620D01*
X10996034Y-16355620D02*
X10976986Y-16365144D01*
X10976986Y-16365144D02*
X10957939Y-16365144D01*
X10957939Y-16365144D02*
X10938891Y-16355620D01*
X10938891Y-16355620D02*
X10929367Y-16346096D01*
X10929367Y-16346096D02*
X10919844Y-16327048D01*
X10919844Y-16327048D02*
X10910320Y-16288953D01*
X10910320Y-16288953D02*
X10910320Y-16241334D01*
X10910320Y-16241334D02*
X10919844Y-16203239D01*
X10919844Y-16203239D02*
X10929367Y-16184191D01*
X10929367Y-16184191D02*
X10938891Y-16174668D01*
X10938891Y-16174668D02*
X10957939Y-16165144D01*
X11110320Y-16365144D02*
X11110320Y-16231810D01*
X11110320Y-16250858D02*
X11119844Y-16241334D01*
X11119844Y-16241334D02*
X11138891Y-16231810D01*
X11138891Y-16231810D02*
X11167463Y-16231810D01*
X11167463Y-16231810D02*
X11186510Y-16241334D01*
X11186510Y-16241334D02*
X11196034Y-16260382D01*
X11196034Y-16260382D02*
X11196034Y-16365144D01*
X11196034Y-16260382D02*
X11205558Y-16241334D01*
X11205558Y-16241334D02*
X11224605Y-16231810D01*
X11224605Y-16231810D02*
X11253177Y-16231810D01*
X11253177Y-16231810D02*
X11272224Y-16241334D01*
X11272224Y-16241334D02*
X11281748Y-16260382D01*
X11281748Y-16260382D02*
X11281748Y-16365144D01*
X11376986Y-16365144D02*
X11376986Y-16231810D01*
X11376986Y-16250858D02*
X11386510Y-16241334D01*
X11386510Y-16241334D02*
X11405558Y-16231810D01*
X11405558Y-16231810D02*
X11434129Y-16231810D01*
X11434129Y-16231810D02*
X11453177Y-16241334D01*
X11453177Y-16241334D02*
X11462701Y-16260382D01*
X11462701Y-16260382D02*
X11462701Y-16365144D01*
X11462701Y-16260382D02*
X11472224Y-16241334D01*
X11472224Y-16241334D02*
X11491272Y-16231810D01*
X11491272Y-16231810D02*
X11519843Y-16231810D01*
X11519843Y-16231810D02*
X11538891Y-16241334D01*
X11538891Y-16241334D02*
X11548415Y-16260382D01*
X11548415Y-16260382D02*
X11548415Y-16365144D01*
X11938891Y-16155620D02*
X11767463Y-16412763D01*
X12196034Y-16165144D02*
X12215082Y-16165144D01*
X12215082Y-16165144D02*
X12234129Y-16174668D01*
X12234129Y-16174668D02*
X12243653Y-16184191D01*
X12243653Y-16184191D02*
X12253177Y-16203239D01*
X12253177Y-16203239D02*
X12262701Y-16241334D01*
X12262701Y-16241334D02*
X12262701Y-16288953D01*
X12262701Y-16288953D02*
X12253177Y-16327048D01*
X12253177Y-16327048D02*
X12243653Y-16346096D01*
X12243653Y-16346096D02*
X12234129Y-16355620D01*
X12234129Y-16355620D02*
X12215082Y-16365144D01*
X12215082Y-16365144D02*
X12196034Y-16365144D01*
X12196034Y-16365144D02*
X12176986Y-16355620D01*
X12176986Y-16355620D02*
X12167463Y-16346096D01*
X12167463Y-16346096D02*
X12157939Y-16327048D01*
X12157939Y-16327048D02*
X12148415Y-16288953D01*
X12148415Y-16288953D02*
X12148415Y-16241334D01*
X12148415Y-16241334D02*
X12157939Y-16203239D01*
X12157939Y-16203239D02*
X12167463Y-16184191D01*
X12167463Y-16184191D02*
X12176986Y-16174668D01*
X12176986Y-16174668D02*
X12196034Y-16165144D01*
X12348415Y-16346096D02*
X12357939Y-16355620D01*
X12357939Y-16355620D02*
X12348415Y-16365144D01*
X12348415Y-16365144D02*
X12338891Y-16355620D01*
X12338891Y-16355620D02*
X12348415Y-16346096D01*
X12348415Y-16346096D02*
X12348415Y-16365144D01*
X12481748Y-16165144D02*
X12500796Y-16165144D01*
X12500796Y-16165144D02*
X12519844Y-16174668D01*
X12519844Y-16174668D02*
X12529367Y-16184191D01*
X12529367Y-16184191D02*
X12538891Y-16203239D01*
X12538891Y-16203239D02*
X12548415Y-16241334D01*
X12548415Y-16241334D02*
X12548415Y-16288953D01*
X12548415Y-16288953D02*
X12538891Y-16327048D01*
X12538891Y-16327048D02*
X12529367Y-16346096D01*
X12529367Y-16346096D02*
X12519844Y-16355620D01*
X12519844Y-16355620D02*
X12500796Y-16365144D01*
X12500796Y-16365144D02*
X12481748Y-16365144D01*
X12481748Y-16365144D02*
X12462701Y-16355620D01*
X12462701Y-16355620D02*
X12453177Y-16346096D01*
X12453177Y-16346096D02*
X12443653Y-16327048D01*
X12443653Y-16327048D02*
X12434129Y-16288953D01*
X12434129Y-16288953D02*
X12434129Y-16241334D01*
X12434129Y-16241334D02*
X12443653Y-16203239D01*
X12443653Y-16203239D02*
X12453177Y-16184191D01*
X12453177Y-16184191D02*
X12462701Y-16174668D01*
X12462701Y-16174668D02*
X12481748Y-16165144D01*
X12738891Y-16365144D02*
X12624606Y-16365144D01*
X12681748Y-16365144D02*
X12681748Y-16165144D01*
X12681748Y-16165144D02*
X12662701Y-16193715D01*
X12662701Y-16193715D02*
X12643653Y-16212763D01*
X12643653Y-16212763D02*
X12624606Y-16222287D01*
X12929367Y-16365144D02*
X12815082Y-16365144D01*
X12872225Y-16365144D02*
X12872225Y-16165144D01*
X12872225Y-16165144D02*
X12853177Y-16193715D01*
X12853177Y-16193715D02*
X12834129Y-16212763D01*
X12834129Y-16212763D02*
X12815082Y-16222287D01*
X13043653Y-16250858D02*
X13024606Y-16241334D01*
X13024606Y-16241334D02*
X13015082Y-16231810D01*
X13015082Y-16231810D02*
X13005558Y-16212763D01*
X13005558Y-16212763D02*
X13005558Y-16203239D01*
X13005558Y-16203239D02*
X13015082Y-16184191D01*
X13015082Y-16184191D02*
X13024606Y-16174668D01*
X13024606Y-16174668D02*
X13043653Y-16165144D01*
X13043653Y-16165144D02*
X13081748Y-16165144D01*
X13081748Y-16165144D02*
X13100796Y-16174668D01*
X13100796Y-16174668D02*
X13110320Y-16184191D01*
X13110320Y-16184191D02*
X13119844Y-16203239D01*
X13119844Y-16203239D02*
X13119844Y-16212763D01*
X13119844Y-16212763D02*
X13110320Y-16231810D01*
X13110320Y-16231810D02*
X13100796Y-16241334D01*
X13100796Y-16241334D02*
X13081748Y-16250858D01*
X13081748Y-16250858D02*
X13043653Y-16250858D01*
X13043653Y-16250858D02*
X13024606Y-16260382D01*
X13024606Y-16260382D02*
X13015082Y-16269906D01*
X13015082Y-16269906D02*
X13005558Y-16288953D01*
X13005558Y-16288953D02*
X13005558Y-16327048D01*
X13005558Y-16327048D02*
X13015082Y-16346096D01*
X13015082Y-16346096D02*
X13024606Y-16355620D01*
X13024606Y-16355620D02*
X13043653Y-16365144D01*
X13043653Y-16365144D02*
X13081748Y-16365144D01*
X13081748Y-16365144D02*
X13100796Y-16355620D01*
X13100796Y-16355620D02*
X13110320Y-16346096D01*
X13110320Y-16346096D02*
X13119844Y-16327048D01*
X13119844Y-16327048D02*
X13119844Y-16288953D01*
X13119844Y-16288953D02*
X13110320Y-16269906D01*
X13110320Y-16269906D02*
X13100796Y-16260382D01*
X13100796Y-16260382D02*
X13081748Y-16250858D01*
X13196034Y-16165144D02*
X13196034Y-16203239D01*
X13272225Y-16165144D02*
X13272225Y-16203239D01*
X13567463Y-16441334D02*
X13557939Y-16431810D01*
X13557939Y-16431810D02*
X13538891Y-16403239D01*
X13538891Y-16403239D02*
X13529368Y-16384191D01*
X13529368Y-16384191D02*
X13519844Y-16355620D01*
X13519844Y-16355620D02*
X13510320Y-16308001D01*
X13510320Y-16308001D02*
X13510320Y-16269906D01*
X13510320Y-16269906D02*
X13519844Y-16222287D01*
X13519844Y-16222287D02*
X13529368Y-16193715D01*
X13529368Y-16193715D02*
X13538891Y-16174668D01*
X13538891Y-16174668D02*
X13557939Y-16146096D01*
X13557939Y-16146096D02*
X13567463Y-16136572D01*
X13624606Y-16165144D02*
X13748415Y-16165144D01*
X13748415Y-16165144D02*
X13681748Y-16241334D01*
X13681748Y-16241334D02*
X13710320Y-16241334D01*
X13710320Y-16241334D02*
X13729368Y-16250858D01*
X13729368Y-16250858D02*
X13738891Y-16260382D01*
X13738891Y-16260382D02*
X13748415Y-16279429D01*
X13748415Y-16279429D02*
X13748415Y-16327048D01*
X13748415Y-16327048D02*
X13738891Y-16346096D01*
X13738891Y-16346096D02*
X13729368Y-16355620D01*
X13729368Y-16355620D02*
X13710320Y-16365144D01*
X13710320Y-16365144D02*
X13653177Y-16365144D01*
X13653177Y-16365144D02*
X13634129Y-16355620D01*
X13634129Y-16355620D02*
X13624606Y-16346096D01*
X13824606Y-16184191D02*
X13834129Y-16174668D01*
X13834129Y-16174668D02*
X13853177Y-16165144D01*
X13853177Y-16165144D02*
X13900796Y-16165144D01*
X13900796Y-16165144D02*
X13919844Y-16174668D01*
X13919844Y-16174668D02*
X13929368Y-16184191D01*
X13929368Y-16184191D02*
X13938891Y-16203239D01*
X13938891Y-16203239D02*
X13938891Y-16222287D01*
X13938891Y-16222287D02*
X13929368Y-16250858D01*
X13929368Y-16250858D02*
X13815082Y-16365144D01*
X13815082Y-16365144D02*
X13938891Y-16365144D01*
X14129368Y-16365144D02*
X14015082Y-16365144D01*
X14072225Y-16365144D02*
X14072225Y-16165144D01*
X14072225Y-16165144D02*
X14053177Y-16193715D01*
X14053177Y-16193715D02*
X14034129Y-16212763D01*
X14034129Y-16212763D02*
X14015082Y-16222287D01*
X14367463Y-16365144D02*
X14367463Y-16165144D01*
X14453177Y-16365144D02*
X14453177Y-16260382D01*
X14453177Y-16260382D02*
X14443653Y-16241334D01*
X14443653Y-16241334D02*
X14424606Y-16231810D01*
X14424606Y-16231810D02*
X14396034Y-16231810D01*
X14396034Y-16231810D02*
X14376987Y-16241334D01*
X14376987Y-16241334D02*
X14367463Y-16250858D01*
X14576987Y-16365144D02*
X14557939Y-16355620D01*
X14557939Y-16355620D02*
X14548415Y-16346096D01*
X14548415Y-16346096D02*
X14538891Y-16327048D01*
X14538891Y-16327048D02*
X14538891Y-16269906D01*
X14538891Y-16269906D02*
X14548415Y-16250858D01*
X14548415Y-16250858D02*
X14557939Y-16241334D01*
X14557939Y-16241334D02*
X14576987Y-16231810D01*
X14576987Y-16231810D02*
X14605558Y-16231810D01*
X14605558Y-16231810D02*
X14624606Y-16241334D01*
X14624606Y-16241334D02*
X14634130Y-16250858D01*
X14634130Y-16250858D02*
X14643653Y-16269906D01*
X14643653Y-16269906D02*
X14643653Y-16327048D01*
X14643653Y-16327048D02*
X14634130Y-16346096D01*
X14634130Y-16346096D02*
X14624606Y-16355620D01*
X14624606Y-16355620D02*
X14605558Y-16365144D01*
X14605558Y-16365144D02*
X14576987Y-16365144D01*
X14757939Y-16365144D02*
X14738891Y-16355620D01*
X14738891Y-16355620D02*
X14729368Y-16336572D01*
X14729368Y-16336572D02*
X14729368Y-16165144D01*
X14910320Y-16355620D02*
X14891272Y-16365144D01*
X14891272Y-16365144D02*
X14853177Y-16365144D01*
X14853177Y-16365144D02*
X14834130Y-16355620D01*
X14834130Y-16355620D02*
X14824606Y-16336572D01*
X14824606Y-16336572D02*
X14824606Y-16260382D01*
X14824606Y-16260382D02*
X14834130Y-16241334D01*
X14834130Y-16241334D02*
X14853177Y-16231810D01*
X14853177Y-16231810D02*
X14891272Y-16231810D01*
X14891272Y-16231810D02*
X14910320Y-16241334D01*
X14910320Y-16241334D02*
X14919844Y-16260382D01*
X14919844Y-16260382D02*
X14919844Y-16279429D01*
X14919844Y-16279429D02*
X14824606Y-16298477D01*
X14996034Y-16355620D02*
X15015082Y-16365144D01*
X15015082Y-16365144D02*
X15053177Y-16365144D01*
X15053177Y-16365144D02*
X15072225Y-16355620D01*
X15072225Y-16355620D02*
X15081749Y-16336572D01*
X15081749Y-16336572D02*
X15081749Y-16327048D01*
X15081749Y-16327048D02*
X15072225Y-16308001D01*
X15072225Y-16308001D02*
X15053177Y-16298477D01*
X15053177Y-16298477D02*
X15024606Y-16298477D01*
X15024606Y-16298477D02*
X15005558Y-16288953D01*
X15005558Y-16288953D02*
X14996034Y-16269906D01*
X14996034Y-16269906D02*
X14996034Y-16260382D01*
X14996034Y-16260382D02*
X15005558Y-16241334D01*
X15005558Y-16241334D02*
X15024606Y-16231810D01*
X15024606Y-16231810D02*
X15053177Y-16231810D01*
X15053177Y-16231810D02*
X15072225Y-16241334D01*
X15148415Y-16441334D02*
X15157939Y-16431810D01*
X15157939Y-16431810D02*
X15176987Y-16403239D01*
X15176987Y-16403239D02*
X15186511Y-16384191D01*
X15186511Y-16384191D02*
X15196034Y-16355620D01*
X15196034Y-16355620D02*
X15205558Y-16308001D01*
X15205558Y-16308001D02*
X15205558Y-16269906D01*
X15205558Y-16269906D02*
X15196034Y-16222287D01*
X15196034Y-16222287D02*
X15186511Y-16193715D01*
X15186511Y-16193715D02*
X15176987Y-16174668D01*
X15176987Y-16174668D02*
X15157939Y-16146096D01*
X15157939Y-16146096D02*
X15148415Y-16136572D01*
D12*
X9992400Y-16537660D02*
G75*
G02*
X9952400Y-16537660I-20000J0D01*
G01*
X9952400Y-16537660D02*
G75*
G02*
X9992400Y-16537660I20000J0D01*
G01*
D11*
X10291272Y-16429144D02*
X10310320Y-16429144D01*
X10310320Y-16429144D02*
X10329367Y-16438668D01*
X10329367Y-16438668D02*
X10338891Y-16448191D01*
X10338891Y-16448191D02*
X10348415Y-16467239D01*
X10348415Y-16467239D02*
X10357939Y-16505334D01*
X10357939Y-16505334D02*
X10357939Y-16552953D01*
X10357939Y-16552953D02*
X10348415Y-16591048D01*
X10348415Y-16591048D02*
X10338891Y-16610096D01*
X10338891Y-16610096D02*
X10329367Y-16619620D01*
X10329367Y-16619620D02*
X10310320Y-16629144D01*
X10310320Y-16629144D02*
X10291272Y-16629144D01*
X10291272Y-16629144D02*
X10272224Y-16619620D01*
X10272224Y-16619620D02*
X10262701Y-16610096D01*
X10262701Y-16610096D02*
X10253177Y-16591048D01*
X10253177Y-16591048D02*
X10243653Y-16552953D01*
X10243653Y-16552953D02*
X10243653Y-16505334D01*
X10243653Y-16505334D02*
X10253177Y-16467239D01*
X10253177Y-16467239D02*
X10262701Y-16448191D01*
X10262701Y-16448191D02*
X10272224Y-16438668D01*
X10272224Y-16438668D02*
X10291272Y-16429144D01*
X10443653Y-16610096D02*
X10453177Y-16619620D01*
X10453177Y-16619620D02*
X10443653Y-16629144D01*
X10443653Y-16629144D02*
X10434129Y-16619620D01*
X10434129Y-16619620D02*
X10443653Y-16610096D01*
X10443653Y-16610096D02*
X10443653Y-16629144D01*
X10624605Y-16495810D02*
X10624605Y-16629144D01*
X10576986Y-16419620D02*
X10529367Y-16562477D01*
X10529367Y-16562477D02*
X10653177Y-16562477D01*
X10767463Y-16429144D02*
X10786510Y-16429144D01*
X10786510Y-16429144D02*
X10805558Y-16438668D01*
X10805558Y-16438668D02*
X10815082Y-16448191D01*
X10815082Y-16448191D02*
X10824605Y-16467239D01*
X10824605Y-16467239D02*
X10834129Y-16505334D01*
X10834129Y-16505334D02*
X10834129Y-16552953D01*
X10834129Y-16552953D02*
X10824605Y-16591048D01*
X10824605Y-16591048D02*
X10815082Y-16610096D01*
X10815082Y-16610096D02*
X10805558Y-16619620D01*
X10805558Y-16619620D02*
X10786510Y-16629144D01*
X10786510Y-16629144D02*
X10767463Y-16629144D01*
X10767463Y-16629144D02*
X10748415Y-16619620D01*
X10748415Y-16619620D02*
X10738891Y-16610096D01*
X10738891Y-16610096D02*
X10729367Y-16591048D01*
X10729367Y-16591048D02*
X10719844Y-16552953D01*
X10719844Y-16552953D02*
X10719844Y-16505334D01*
X10719844Y-16505334D02*
X10729367Y-16467239D01*
X10729367Y-16467239D02*
X10738891Y-16448191D01*
X10738891Y-16448191D02*
X10748415Y-16438668D01*
X10748415Y-16438668D02*
X10767463Y-16429144D01*
X10957939Y-16429144D02*
X10976986Y-16429144D01*
X10976986Y-16429144D02*
X10996034Y-16438668D01*
X10996034Y-16438668D02*
X11005558Y-16448191D01*
X11005558Y-16448191D02*
X11015082Y-16467239D01*
X11015082Y-16467239D02*
X11024605Y-16505334D01*
X11024605Y-16505334D02*
X11024605Y-16552953D01*
X11024605Y-16552953D02*
X11015082Y-16591048D01*
X11015082Y-16591048D02*
X11005558Y-16610096D01*
X11005558Y-16610096D02*
X10996034Y-16619620D01*
X10996034Y-16619620D02*
X10976986Y-16629144D01*
X10976986Y-16629144D02*
X10957939Y-16629144D01*
X10957939Y-16629144D02*
X10938891Y-16619620D01*
X10938891Y-16619620D02*
X10929367Y-16610096D01*
X10929367Y-16610096D02*
X10919844Y-16591048D01*
X10919844Y-16591048D02*
X10910320Y-16552953D01*
X10910320Y-16552953D02*
X10910320Y-16505334D01*
X10910320Y-16505334D02*
X10919844Y-16467239D01*
X10919844Y-16467239D02*
X10929367Y-16448191D01*
X10929367Y-16448191D02*
X10938891Y-16438668D01*
X10938891Y-16438668D02*
X10957939Y-16429144D01*
X11110320Y-16629144D02*
X11110320Y-16495810D01*
X11110320Y-16514858D02*
X11119844Y-16505334D01*
X11119844Y-16505334D02*
X11138891Y-16495810D01*
X11138891Y-16495810D02*
X11167463Y-16495810D01*
X11167463Y-16495810D02*
X11186510Y-16505334D01*
X11186510Y-16505334D02*
X11196034Y-16524382D01*
X11196034Y-16524382D02*
X11196034Y-16629144D01*
X11196034Y-16524382D02*
X11205558Y-16505334D01*
X11205558Y-16505334D02*
X11224605Y-16495810D01*
X11224605Y-16495810D02*
X11253177Y-16495810D01*
X11253177Y-16495810D02*
X11272224Y-16505334D01*
X11272224Y-16505334D02*
X11281748Y-16524382D01*
X11281748Y-16524382D02*
X11281748Y-16629144D01*
X11376986Y-16629144D02*
X11376986Y-16495810D01*
X11376986Y-16514858D02*
X11386510Y-16505334D01*
X11386510Y-16505334D02*
X11405558Y-16495810D01*
X11405558Y-16495810D02*
X11434129Y-16495810D01*
X11434129Y-16495810D02*
X11453177Y-16505334D01*
X11453177Y-16505334D02*
X11462701Y-16524382D01*
X11462701Y-16524382D02*
X11462701Y-16629144D01*
X11462701Y-16524382D02*
X11472224Y-16505334D01*
X11472224Y-16505334D02*
X11491272Y-16495810D01*
X11491272Y-16495810D02*
X11519843Y-16495810D01*
X11519843Y-16495810D02*
X11538891Y-16505334D01*
X11538891Y-16505334D02*
X11548415Y-16524382D01*
X11548415Y-16524382D02*
X11548415Y-16629144D01*
X11938891Y-16419620D02*
X11767463Y-16676763D01*
X12196034Y-16429144D02*
X12215082Y-16429144D01*
X12215082Y-16429144D02*
X12234129Y-16438668D01*
X12234129Y-16438668D02*
X12243653Y-16448191D01*
X12243653Y-16448191D02*
X12253177Y-16467239D01*
X12253177Y-16467239D02*
X12262701Y-16505334D01*
X12262701Y-16505334D02*
X12262701Y-16552953D01*
X12262701Y-16552953D02*
X12253177Y-16591048D01*
X12253177Y-16591048D02*
X12243653Y-16610096D01*
X12243653Y-16610096D02*
X12234129Y-16619620D01*
X12234129Y-16619620D02*
X12215082Y-16629144D01*
X12215082Y-16629144D02*
X12196034Y-16629144D01*
X12196034Y-16629144D02*
X12176986Y-16619620D01*
X12176986Y-16619620D02*
X12167463Y-16610096D01*
X12167463Y-16610096D02*
X12157939Y-16591048D01*
X12157939Y-16591048D02*
X12148415Y-16552953D01*
X12148415Y-16552953D02*
X12148415Y-16505334D01*
X12148415Y-16505334D02*
X12157939Y-16467239D01*
X12157939Y-16467239D02*
X12167463Y-16448191D01*
X12167463Y-16448191D02*
X12176986Y-16438668D01*
X12176986Y-16438668D02*
X12196034Y-16429144D01*
X12348415Y-16610096D02*
X12357939Y-16619620D01*
X12357939Y-16619620D02*
X12348415Y-16629144D01*
X12348415Y-16629144D02*
X12338891Y-16619620D01*
X12338891Y-16619620D02*
X12348415Y-16610096D01*
X12348415Y-16610096D02*
X12348415Y-16629144D01*
X12481748Y-16429144D02*
X12500796Y-16429144D01*
X12500796Y-16429144D02*
X12519844Y-16438668D01*
X12519844Y-16438668D02*
X12529367Y-16448191D01*
X12529367Y-16448191D02*
X12538891Y-16467239D01*
X12538891Y-16467239D02*
X12548415Y-16505334D01*
X12548415Y-16505334D02*
X12548415Y-16552953D01*
X12548415Y-16552953D02*
X12538891Y-16591048D01*
X12538891Y-16591048D02*
X12529367Y-16610096D01*
X12529367Y-16610096D02*
X12519844Y-16619620D01*
X12519844Y-16619620D02*
X12500796Y-16629144D01*
X12500796Y-16629144D02*
X12481748Y-16629144D01*
X12481748Y-16629144D02*
X12462701Y-16619620D01*
X12462701Y-16619620D02*
X12453177Y-16610096D01*
X12453177Y-16610096D02*
X12443653Y-16591048D01*
X12443653Y-16591048D02*
X12434129Y-16552953D01*
X12434129Y-16552953D02*
X12434129Y-16505334D01*
X12434129Y-16505334D02*
X12443653Y-16467239D01*
X12443653Y-16467239D02*
X12453177Y-16448191D01*
X12453177Y-16448191D02*
X12462701Y-16438668D01*
X12462701Y-16438668D02*
X12481748Y-16429144D01*
X12738891Y-16629144D02*
X12624606Y-16629144D01*
X12681748Y-16629144D02*
X12681748Y-16429144D01*
X12681748Y-16429144D02*
X12662701Y-16457715D01*
X12662701Y-16457715D02*
X12643653Y-16476763D01*
X12643653Y-16476763D02*
X12624606Y-16486287D01*
X12919844Y-16429144D02*
X12824606Y-16429144D01*
X12824606Y-16429144D02*
X12815082Y-16524382D01*
X12815082Y-16524382D02*
X12824606Y-16514858D01*
X12824606Y-16514858D02*
X12843653Y-16505334D01*
X12843653Y-16505334D02*
X12891272Y-16505334D01*
X12891272Y-16505334D02*
X12910320Y-16514858D01*
X12910320Y-16514858D02*
X12919844Y-16524382D01*
X12919844Y-16524382D02*
X12929367Y-16543429D01*
X12929367Y-16543429D02*
X12929367Y-16591048D01*
X12929367Y-16591048D02*
X12919844Y-16610096D01*
X12919844Y-16610096D02*
X12910320Y-16619620D01*
X12910320Y-16619620D02*
X12891272Y-16629144D01*
X12891272Y-16629144D02*
X12843653Y-16629144D01*
X12843653Y-16629144D02*
X12824606Y-16619620D01*
X12824606Y-16619620D02*
X12815082Y-16610096D01*
X12996034Y-16429144D02*
X13129367Y-16429144D01*
X13129367Y-16429144D02*
X13043653Y-16629144D01*
X13196034Y-16429144D02*
X13196034Y-16467239D01*
X13272225Y-16429144D02*
X13272225Y-16467239D01*
X13567463Y-16705334D02*
X13557939Y-16695810D01*
X13557939Y-16695810D02*
X13538891Y-16667239D01*
X13538891Y-16667239D02*
X13529368Y-16648191D01*
X13529368Y-16648191D02*
X13519844Y-16619620D01*
X13519844Y-16619620D02*
X13510320Y-16572001D01*
X13510320Y-16572001D02*
X13510320Y-16533906D01*
X13510320Y-16533906D02*
X13519844Y-16486287D01*
X13519844Y-16486287D02*
X13529368Y-16457715D01*
X13529368Y-16457715D02*
X13538891Y-16438668D01*
X13538891Y-16438668D02*
X13557939Y-16410096D01*
X13557939Y-16410096D02*
X13567463Y-16400572D01*
X13748415Y-16629144D02*
X13634129Y-16629144D01*
X13691272Y-16629144D02*
X13691272Y-16429144D01*
X13691272Y-16429144D02*
X13672225Y-16457715D01*
X13672225Y-16457715D02*
X13653177Y-16476763D01*
X13653177Y-16476763D02*
X13634129Y-16486287D01*
X13824606Y-16448191D02*
X13834129Y-16438668D01*
X13834129Y-16438668D02*
X13853177Y-16429144D01*
X13853177Y-16429144D02*
X13900796Y-16429144D01*
X13900796Y-16429144D02*
X13919844Y-16438668D01*
X13919844Y-16438668D02*
X13929368Y-16448191D01*
X13929368Y-16448191D02*
X13938891Y-16467239D01*
X13938891Y-16467239D02*
X13938891Y-16486287D01*
X13938891Y-16486287D02*
X13929368Y-16514858D01*
X13929368Y-16514858D02*
X13815082Y-16629144D01*
X13815082Y-16629144D02*
X13938891Y-16629144D01*
X14176987Y-16629144D02*
X14176987Y-16429144D01*
X14262701Y-16629144D02*
X14262701Y-16524382D01*
X14262701Y-16524382D02*
X14253177Y-16505334D01*
X14253177Y-16505334D02*
X14234130Y-16495810D01*
X14234130Y-16495810D02*
X14205558Y-16495810D01*
X14205558Y-16495810D02*
X14186510Y-16505334D01*
X14186510Y-16505334D02*
X14176987Y-16514858D01*
X14386510Y-16629144D02*
X14367463Y-16619620D01*
X14367463Y-16619620D02*
X14357939Y-16610096D01*
X14357939Y-16610096D02*
X14348415Y-16591048D01*
X14348415Y-16591048D02*
X14348415Y-16533906D01*
X14348415Y-16533906D02*
X14357939Y-16514858D01*
X14357939Y-16514858D02*
X14367463Y-16505334D01*
X14367463Y-16505334D02*
X14386510Y-16495810D01*
X14386510Y-16495810D02*
X14415082Y-16495810D01*
X14415082Y-16495810D02*
X14434130Y-16505334D01*
X14434130Y-16505334D02*
X14443653Y-16514858D01*
X14443653Y-16514858D02*
X14453177Y-16533906D01*
X14453177Y-16533906D02*
X14453177Y-16591048D01*
X14453177Y-16591048D02*
X14443653Y-16610096D01*
X14443653Y-16610096D02*
X14434130Y-16619620D01*
X14434130Y-16619620D02*
X14415082Y-16629144D01*
X14415082Y-16629144D02*
X14386510Y-16629144D01*
X14567463Y-16629144D02*
X14548415Y-16619620D01*
X14548415Y-16619620D02*
X14538891Y-16600572D01*
X14538891Y-16600572D02*
X14538891Y-16429144D01*
X14719844Y-16619620D02*
X14700796Y-16629144D01*
X14700796Y-16629144D02*
X14662701Y-16629144D01*
X14662701Y-16629144D02*
X14643653Y-16619620D01*
X14643653Y-16619620D02*
X14634130Y-16600572D01*
X14634130Y-16600572D02*
X14634130Y-16524382D01*
X14634130Y-16524382D02*
X14643653Y-16505334D01*
X14643653Y-16505334D02*
X14662701Y-16495810D01*
X14662701Y-16495810D02*
X14700796Y-16495810D01*
X14700796Y-16495810D02*
X14719844Y-16505334D01*
X14719844Y-16505334D02*
X14729368Y-16524382D01*
X14729368Y-16524382D02*
X14729368Y-16543429D01*
X14729368Y-16543429D02*
X14634130Y-16562477D01*
X14805558Y-16619620D02*
X14824606Y-16629144D01*
X14824606Y-16629144D02*
X14862701Y-16629144D01*
X14862701Y-16629144D02*
X14881749Y-16619620D01*
X14881749Y-16619620D02*
X14891272Y-16600572D01*
X14891272Y-16600572D02*
X14891272Y-16591048D01*
X14891272Y-16591048D02*
X14881749Y-16572001D01*
X14881749Y-16572001D02*
X14862701Y-16562477D01*
X14862701Y-16562477D02*
X14834130Y-16562477D01*
X14834130Y-16562477D02*
X14815082Y-16552953D01*
X14815082Y-16552953D02*
X14805558Y-16533906D01*
X14805558Y-16533906D02*
X14805558Y-16524382D01*
X14805558Y-16524382D02*
X14815082Y-16505334D01*
X14815082Y-16505334D02*
X14834130Y-16495810D01*
X14834130Y-16495810D02*
X14862701Y-16495810D01*
X14862701Y-16495810D02*
X14881749Y-16505334D01*
X14957939Y-16705334D02*
X14967463Y-16695810D01*
X14967463Y-16695810D02*
X14986511Y-16667239D01*
X14986511Y-16667239D02*
X14996034Y-16648191D01*
X14996034Y-16648191D02*
X15005558Y-16619620D01*
X15005558Y-16619620D02*
X15015082Y-16572001D01*
X15015082Y-16572001D02*
X15015082Y-16533906D01*
X15015082Y-16533906D02*
X15005558Y-16486287D01*
X15005558Y-16486287D02*
X14996034Y-16457715D01*
X14996034Y-16457715D02*
X14986511Y-16438668D01*
X14986511Y-16438668D02*
X14967463Y-16410096D01*
X14967463Y-16410096D02*
X14957939Y-16400572D01*
D12*
X9952400Y-16761660D02*
X9952400Y-16841660D01*
X9912400Y-16801660D02*
X9992400Y-16801660D01*
D11*
X10291272Y-16693144D02*
X10310320Y-16693144D01*
X10310320Y-16693144D02*
X10329367Y-16702668D01*
X10329367Y-16702668D02*
X10338891Y-16712191D01*
X10338891Y-16712191D02*
X10348415Y-16731239D01*
X10348415Y-16731239D02*
X10357939Y-16769334D01*
X10357939Y-16769334D02*
X10357939Y-16816953D01*
X10357939Y-16816953D02*
X10348415Y-16855049D01*
X10348415Y-16855049D02*
X10338891Y-16874096D01*
X10338891Y-16874096D02*
X10329367Y-16883620D01*
X10329367Y-16883620D02*
X10310320Y-16893144D01*
X10310320Y-16893144D02*
X10291272Y-16893144D01*
X10291272Y-16893144D02*
X10272224Y-16883620D01*
X10272224Y-16883620D02*
X10262701Y-16874096D01*
X10262701Y-16874096D02*
X10253177Y-16855049D01*
X10253177Y-16855049D02*
X10243653Y-16816953D01*
X10243653Y-16816953D02*
X10243653Y-16769334D01*
X10243653Y-16769334D02*
X10253177Y-16731239D01*
X10253177Y-16731239D02*
X10262701Y-16712191D01*
X10262701Y-16712191D02*
X10272224Y-16702668D01*
X10272224Y-16702668D02*
X10291272Y-16693144D01*
X10443653Y-16874096D02*
X10453177Y-16883620D01*
X10453177Y-16883620D02*
X10443653Y-16893144D01*
X10443653Y-16893144D02*
X10434129Y-16883620D01*
X10434129Y-16883620D02*
X10443653Y-16874096D01*
X10443653Y-16874096D02*
X10443653Y-16893144D01*
X10567463Y-16778858D02*
X10548415Y-16769334D01*
X10548415Y-16769334D02*
X10538891Y-16759810D01*
X10538891Y-16759810D02*
X10529367Y-16740763D01*
X10529367Y-16740763D02*
X10529367Y-16731239D01*
X10529367Y-16731239D02*
X10538891Y-16712191D01*
X10538891Y-16712191D02*
X10548415Y-16702668D01*
X10548415Y-16702668D02*
X10567463Y-16693144D01*
X10567463Y-16693144D02*
X10605558Y-16693144D01*
X10605558Y-16693144D02*
X10624605Y-16702668D01*
X10624605Y-16702668D02*
X10634129Y-16712191D01*
X10634129Y-16712191D02*
X10643653Y-16731239D01*
X10643653Y-16731239D02*
X10643653Y-16740763D01*
X10643653Y-16740763D02*
X10634129Y-16759810D01*
X10634129Y-16759810D02*
X10624605Y-16769334D01*
X10624605Y-16769334D02*
X10605558Y-16778858D01*
X10605558Y-16778858D02*
X10567463Y-16778858D01*
X10567463Y-16778858D02*
X10548415Y-16788382D01*
X10548415Y-16788382D02*
X10538891Y-16797906D01*
X10538891Y-16797906D02*
X10529367Y-16816953D01*
X10529367Y-16816953D02*
X10529367Y-16855049D01*
X10529367Y-16855049D02*
X10538891Y-16874096D01*
X10538891Y-16874096D02*
X10548415Y-16883620D01*
X10548415Y-16883620D02*
X10567463Y-16893144D01*
X10567463Y-16893144D02*
X10605558Y-16893144D01*
X10605558Y-16893144D02*
X10624605Y-16883620D01*
X10624605Y-16883620D02*
X10634129Y-16874096D01*
X10634129Y-16874096D02*
X10643653Y-16855049D01*
X10643653Y-16855049D02*
X10643653Y-16816953D01*
X10643653Y-16816953D02*
X10634129Y-16797906D01*
X10634129Y-16797906D02*
X10624605Y-16788382D01*
X10624605Y-16788382D02*
X10605558Y-16778858D01*
X10767463Y-16693144D02*
X10786510Y-16693144D01*
X10786510Y-16693144D02*
X10805558Y-16702668D01*
X10805558Y-16702668D02*
X10815082Y-16712191D01*
X10815082Y-16712191D02*
X10824605Y-16731239D01*
X10824605Y-16731239D02*
X10834129Y-16769334D01*
X10834129Y-16769334D02*
X10834129Y-16816953D01*
X10834129Y-16816953D02*
X10824605Y-16855049D01*
X10824605Y-16855049D02*
X10815082Y-16874096D01*
X10815082Y-16874096D02*
X10805558Y-16883620D01*
X10805558Y-16883620D02*
X10786510Y-16893144D01*
X10786510Y-16893144D02*
X10767463Y-16893144D01*
X10767463Y-16893144D02*
X10748415Y-16883620D01*
X10748415Y-16883620D02*
X10738891Y-16874096D01*
X10738891Y-16874096D02*
X10729367Y-16855049D01*
X10729367Y-16855049D02*
X10719844Y-16816953D01*
X10719844Y-16816953D02*
X10719844Y-16769334D01*
X10719844Y-16769334D02*
X10729367Y-16731239D01*
X10729367Y-16731239D02*
X10738891Y-16712191D01*
X10738891Y-16712191D02*
X10748415Y-16702668D01*
X10748415Y-16702668D02*
X10767463Y-16693144D01*
X10957939Y-16693144D02*
X10976986Y-16693144D01*
X10976986Y-16693144D02*
X10996034Y-16702668D01*
X10996034Y-16702668D02*
X11005558Y-16712191D01*
X11005558Y-16712191D02*
X11015082Y-16731239D01*
X11015082Y-16731239D02*
X11024605Y-16769334D01*
X11024605Y-16769334D02*
X11024605Y-16816953D01*
X11024605Y-16816953D02*
X11015082Y-16855049D01*
X11015082Y-16855049D02*
X11005558Y-16874096D01*
X11005558Y-16874096D02*
X10996034Y-16883620D01*
X10996034Y-16883620D02*
X10976986Y-16893144D01*
X10976986Y-16893144D02*
X10957939Y-16893144D01*
X10957939Y-16893144D02*
X10938891Y-16883620D01*
X10938891Y-16883620D02*
X10929367Y-16874096D01*
X10929367Y-16874096D02*
X10919844Y-16855049D01*
X10919844Y-16855049D02*
X10910320Y-16816953D01*
X10910320Y-16816953D02*
X10910320Y-16769334D01*
X10910320Y-16769334D02*
X10919844Y-16731239D01*
X10919844Y-16731239D02*
X10929367Y-16712191D01*
X10929367Y-16712191D02*
X10938891Y-16702668D01*
X10938891Y-16702668D02*
X10957939Y-16693144D01*
X11110320Y-16893144D02*
X11110320Y-16759810D01*
X11110320Y-16778858D02*
X11119844Y-16769334D01*
X11119844Y-16769334D02*
X11138891Y-16759810D01*
X11138891Y-16759810D02*
X11167463Y-16759810D01*
X11167463Y-16759810D02*
X11186510Y-16769334D01*
X11186510Y-16769334D02*
X11196034Y-16788382D01*
X11196034Y-16788382D02*
X11196034Y-16893144D01*
X11196034Y-16788382D02*
X11205558Y-16769334D01*
X11205558Y-16769334D02*
X11224605Y-16759810D01*
X11224605Y-16759810D02*
X11253177Y-16759810D01*
X11253177Y-16759810D02*
X11272224Y-16769334D01*
X11272224Y-16769334D02*
X11281748Y-16788382D01*
X11281748Y-16788382D02*
X11281748Y-16893144D01*
X11376986Y-16893144D02*
X11376986Y-16759810D01*
X11376986Y-16778858D02*
X11386510Y-16769334D01*
X11386510Y-16769334D02*
X11405558Y-16759810D01*
X11405558Y-16759810D02*
X11434129Y-16759810D01*
X11434129Y-16759810D02*
X11453177Y-16769334D01*
X11453177Y-16769334D02*
X11462701Y-16788382D01*
X11462701Y-16788382D02*
X11462701Y-16893144D01*
X11462701Y-16788382D02*
X11472224Y-16769334D01*
X11472224Y-16769334D02*
X11491272Y-16759810D01*
X11491272Y-16759810D02*
X11519843Y-16759810D01*
X11519843Y-16759810D02*
X11538891Y-16769334D01*
X11538891Y-16769334D02*
X11548415Y-16788382D01*
X11548415Y-16788382D02*
X11548415Y-16893144D01*
X11938891Y-16683620D02*
X11767463Y-16940763D01*
X12196034Y-16693144D02*
X12215082Y-16693144D01*
X12215082Y-16693144D02*
X12234129Y-16702668D01*
X12234129Y-16702668D02*
X12243653Y-16712191D01*
X12243653Y-16712191D02*
X12253177Y-16731239D01*
X12253177Y-16731239D02*
X12262701Y-16769334D01*
X12262701Y-16769334D02*
X12262701Y-16816953D01*
X12262701Y-16816953D02*
X12253177Y-16855049D01*
X12253177Y-16855049D02*
X12243653Y-16874096D01*
X12243653Y-16874096D02*
X12234129Y-16883620D01*
X12234129Y-16883620D02*
X12215082Y-16893144D01*
X12215082Y-16893144D02*
X12196034Y-16893144D01*
X12196034Y-16893144D02*
X12176986Y-16883620D01*
X12176986Y-16883620D02*
X12167463Y-16874096D01*
X12167463Y-16874096D02*
X12157939Y-16855049D01*
X12157939Y-16855049D02*
X12148415Y-16816953D01*
X12148415Y-16816953D02*
X12148415Y-16769334D01*
X12148415Y-16769334D02*
X12157939Y-16731239D01*
X12157939Y-16731239D02*
X12167463Y-16712191D01*
X12167463Y-16712191D02*
X12176986Y-16702668D01*
X12176986Y-16702668D02*
X12196034Y-16693144D01*
X12348415Y-16874096D02*
X12357939Y-16883620D01*
X12357939Y-16883620D02*
X12348415Y-16893144D01*
X12348415Y-16893144D02*
X12338891Y-16883620D01*
X12338891Y-16883620D02*
X12348415Y-16874096D01*
X12348415Y-16874096D02*
X12348415Y-16893144D01*
X12481748Y-16693144D02*
X12500796Y-16693144D01*
X12500796Y-16693144D02*
X12519844Y-16702668D01*
X12519844Y-16702668D02*
X12529367Y-16712191D01*
X12529367Y-16712191D02*
X12538891Y-16731239D01*
X12538891Y-16731239D02*
X12548415Y-16769334D01*
X12548415Y-16769334D02*
X12548415Y-16816953D01*
X12548415Y-16816953D02*
X12538891Y-16855049D01*
X12538891Y-16855049D02*
X12529367Y-16874096D01*
X12529367Y-16874096D02*
X12519844Y-16883620D01*
X12519844Y-16883620D02*
X12500796Y-16893144D01*
X12500796Y-16893144D02*
X12481748Y-16893144D01*
X12481748Y-16893144D02*
X12462701Y-16883620D01*
X12462701Y-16883620D02*
X12453177Y-16874096D01*
X12453177Y-16874096D02*
X12443653Y-16855049D01*
X12443653Y-16855049D02*
X12434129Y-16816953D01*
X12434129Y-16816953D02*
X12434129Y-16769334D01*
X12434129Y-16769334D02*
X12443653Y-16731239D01*
X12443653Y-16731239D02*
X12453177Y-16712191D01*
X12453177Y-16712191D02*
X12462701Y-16702668D01*
X12462701Y-16702668D02*
X12481748Y-16693144D01*
X12615082Y-16693144D02*
X12738891Y-16693144D01*
X12738891Y-16693144D02*
X12672225Y-16769334D01*
X12672225Y-16769334D02*
X12700796Y-16769334D01*
X12700796Y-16769334D02*
X12719844Y-16778858D01*
X12719844Y-16778858D02*
X12729367Y-16788382D01*
X12729367Y-16788382D02*
X12738891Y-16807430D01*
X12738891Y-16807430D02*
X12738891Y-16855049D01*
X12738891Y-16855049D02*
X12729367Y-16874096D01*
X12729367Y-16874096D02*
X12719844Y-16883620D01*
X12719844Y-16883620D02*
X12700796Y-16893144D01*
X12700796Y-16893144D02*
X12643653Y-16893144D01*
X12643653Y-16893144D02*
X12624606Y-16883620D01*
X12624606Y-16883620D02*
X12615082Y-16874096D01*
X12929367Y-16893144D02*
X12815082Y-16893144D01*
X12872225Y-16893144D02*
X12872225Y-16693144D01*
X12872225Y-16693144D02*
X12853177Y-16721715D01*
X12853177Y-16721715D02*
X12834129Y-16740763D01*
X12834129Y-16740763D02*
X12815082Y-16750287D01*
X13110320Y-16693144D02*
X13015082Y-16693144D01*
X13015082Y-16693144D02*
X13005558Y-16788382D01*
X13005558Y-16788382D02*
X13015082Y-16778858D01*
X13015082Y-16778858D02*
X13034129Y-16769334D01*
X13034129Y-16769334D02*
X13081748Y-16769334D01*
X13081748Y-16769334D02*
X13100796Y-16778858D01*
X13100796Y-16778858D02*
X13110320Y-16788382D01*
X13110320Y-16788382D02*
X13119844Y-16807430D01*
X13119844Y-16807430D02*
X13119844Y-16855049D01*
X13119844Y-16855049D02*
X13110320Y-16874096D01*
X13110320Y-16874096D02*
X13100796Y-16883620D01*
X13100796Y-16883620D02*
X13081748Y-16893144D01*
X13081748Y-16893144D02*
X13034129Y-16893144D01*
X13034129Y-16893144D02*
X13015082Y-16883620D01*
X13015082Y-16883620D02*
X13005558Y-16874096D01*
X13196034Y-16693144D02*
X13196034Y-16731239D01*
X13272225Y-16693144D02*
X13272225Y-16731239D01*
X13567463Y-16969334D02*
X13557939Y-16959810D01*
X13557939Y-16959810D02*
X13538891Y-16931239D01*
X13538891Y-16931239D02*
X13529368Y-16912191D01*
X13529368Y-16912191D02*
X13519844Y-16883620D01*
X13519844Y-16883620D02*
X13510320Y-16836001D01*
X13510320Y-16836001D02*
X13510320Y-16797906D01*
X13510320Y-16797906D02*
X13519844Y-16750287D01*
X13519844Y-16750287D02*
X13529368Y-16721715D01*
X13529368Y-16721715D02*
X13538891Y-16702668D01*
X13538891Y-16702668D02*
X13557939Y-16674096D01*
X13557939Y-16674096D02*
X13567463Y-16664572D01*
X13624606Y-16693144D02*
X13748415Y-16693144D01*
X13748415Y-16693144D02*
X13681748Y-16769334D01*
X13681748Y-16769334D02*
X13710320Y-16769334D01*
X13710320Y-16769334D02*
X13729368Y-16778858D01*
X13729368Y-16778858D02*
X13738891Y-16788382D01*
X13738891Y-16788382D02*
X13748415Y-16807430D01*
X13748415Y-16807430D02*
X13748415Y-16855049D01*
X13748415Y-16855049D02*
X13738891Y-16874096D01*
X13738891Y-16874096D02*
X13729368Y-16883620D01*
X13729368Y-16883620D02*
X13710320Y-16893144D01*
X13710320Y-16893144D02*
X13653177Y-16893144D01*
X13653177Y-16893144D02*
X13634129Y-16883620D01*
X13634129Y-16883620D02*
X13624606Y-16874096D01*
X13872225Y-16693144D02*
X13891272Y-16693144D01*
X13891272Y-16693144D02*
X13910320Y-16702668D01*
X13910320Y-16702668D02*
X13919844Y-16712191D01*
X13919844Y-16712191D02*
X13929368Y-16731239D01*
X13929368Y-16731239D02*
X13938891Y-16769334D01*
X13938891Y-16769334D02*
X13938891Y-16816953D01*
X13938891Y-16816953D02*
X13929368Y-16855049D01*
X13929368Y-16855049D02*
X13919844Y-16874096D01*
X13919844Y-16874096D02*
X13910320Y-16883620D01*
X13910320Y-16883620D02*
X13891272Y-16893144D01*
X13891272Y-16893144D02*
X13872225Y-16893144D01*
X13872225Y-16893144D02*
X13853177Y-16883620D01*
X13853177Y-16883620D02*
X13843653Y-16874096D01*
X13843653Y-16874096D02*
X13834129Y-16855049D01*
X13834129Y-16855049D02*
X13824606Y-16816953D01*
X13824606Y-16816953D02*
X13824606Y-16769334D01*
X13824606Y-16769334D02*
X13834129Y-16731239D01*
X13834129Y-16731239D02*
X13843653Y-16712191D01*
X13843653Y-16712191D02*
X13853177Y-16702668D01*
X13853177Y-16702668D02*
X13872225Y-16693144D01*
X14176987Y-16893144D02*
X14176987Y-16693144D01*
X14262701Y-16893144D02*
X14262701Y-16788382D01*
X14262701Y-16788382D02*
X14253177Y-16769334D01*
X14253177Y-16769334D02*
X14234130Y-16759810D01*
X14234130Y-16759810D02*
X14205558Y-16759810D01*
X14205558Y-16759810D02*
X14186510Y-16769334D01*
X14186510Y-16769334D02*
X14176987Y-16778858D01*
X14386510Y-16893144D02*
X14367463Y-16883620D01*
X14367463Y-16883620D02*
X14357939Y-16874096D01*
X14357939Y-16874096D02*
X14348415Y-16855049D01*
X14348415Y-16855049D02*
X14348415Y-16797906D01*
X14348415Y-16797906D02*
X14357939Y-16778858D01*
X14357939Y-16778858D02*
X14367463Y-16769334D01*
X14367463Y-16769334D02*
X14386510Y-16759810D01*
X14386510Y-16759810D02*
X14415082Y-16759810D01*
X14415082Y-16759810D02*
X14434130Y-16769334D01*
X14434130Y-16769334D02*
X14443653Y-16778858D01*
X14443653Y-16778858D02*
X14453177Y-16797906D01*
X14453177Y-16797906D02*
X14453177Y-16855049D01*
X14453177Y-16855049D02*
X14443653Y-16874096D01*
X14443653Y-16874096D02*
X14434130Y-16883620D01*
X14434130Y-16883620D02*
X14415082Y-16893144D01*
X14415082Y-16893144D02*
X14386510Y-16893144D01*
X14567463Y-16893144D02*
X14548415Y-16883620D01*
X14548415Y-16883620D02*
X14538891Y-16864572D01*
X14538891Y-16864572D02*
X14538891Y-16693144D01*
X14719844Y-16883620D02*
X14700796Y-16893144D01*
X14700796Y-16893144D02*
X14662701Y-16893144D01*
X14662701Y-16893144D02*
X14643653Y-16883620D01*
X14643653Y-16883620D02*
X14634130Y-16864572D01*
X14634130Y-16864572D02*
X14634130Y-16788382D01*
X14634130Y-16788382D02*
X14643653Y-16769334D01*
X14643653Y-16769334D02*
X14662701Y-16759810D01*
X14662701Y-16759810D02*
X14700796Y-16759810D01*
X14700796Y-16759810D02*
X14719844Y-16769334D01*
X14719844Y-16769334D02*
X14729368Y-16788382D01*
X14729368Y-16788382D02*
X14729368Y-16807430D01*
X14729368Y-16807430D02*
X14634130Y-16826477D01*
X14805558Y-16883620D02*
X14824606Y-16893144D01*
X14824606Y-16893144D02*
X14862701Y-16893144D01*
X14862701Y-16893144D02*
X14881749Y-16883620D01*
X14881749Y-16883620D02*
X14891272Y-16864572D01*
X14891272Y-16864572D02*
X14891272Y-16855049D01*
X14891272Y-16855049D02*
X14881749Y-16836001D01*
X14881749Y-16836001D02*
X14862701Y-16826477D01*
X14862701Y-16826477D02*
X14834130Y-16826477D01*
X14834130Y-16826477D02*
X14815082Y-16816953D01*
X14815082Y-16816953D02*
X14805558Y-16797906D01*
X14805558Y-16797906D02*
X14805558Y-16788382D01*
X14805558Y-16788382D02*
X14815082Y-16769334D01*
X14815082Y-16769334D02*
X14834130Y-16759810D01*
X14834130Y-16759810D02*
X14862701Y-16759810D01*
X14862701Y-16759810D02*
X14881749Y-16769334D01*
X14957939Y-16969334D02*
X14967463Y-16959810D01*
X14967463Y-16959810D02*
X14986511Y-16931239D01*
X14986511Y-16931239D02*
X14996034Y-16912191D01*
X14996034Y-16912191D02*
X15005558Y-16883620D01*
X15005558Y-16883620D02*
X15015082Y-16836001D01*
X15015082Y-16836001D02*
X15015082Y-16797906D01*
X15015082Y-16797906D02*
X15005558Y-16750287D01*
X15005558Y-16750287D02*
X14996034Y-16721715D01*
X14996034Y-16721715D02*
X14986511Y-16702668D01*
X14986511Y-16702668D02*
X14967463Y-16674096D01*
X14967463Y-16674096D02*
X14957939Y-16664572D01*
D12*
X9977756Y-17101016D02*
X9977756Y-17030304D01*
X9907044Y-17030304D01*
X9907044Y-17101016D01*
X9977756Y-17101016D01*
D11*
X10357939Y-17157144D02*
X10243653Y-17157144D01*
X10300796Y-17157144D02*
X10300796Y-16957144D01*
X10300796Y-16957144D02*
X10281748Y-16985715D01*
X10281748Y-16985715D02*
X10262701Y-17004763D01*
X10262701Y-17004763D02*
X10243653Y-17014287D01*
X10443653Y-17138096D02*
X10453177Y-17147620D01*
X10453177Y-17147620D02*
X10443653Y-17157144D01*
X10443653Y-17157144D02*
X10434129Y-17147620D01*
X10434129Y-17147620D02*
X10443653Y-17138096D01*
X10443653Y-17138096D02*
X10443653Y-17157144D01*
X10576986Y-16957144D02*
X10596034Y-16957144D01*
X10596034Y-16957144D02*
X10615082Y-16966668D01*
X10615082Y-16966668D02*
X10624605Y-16976191D01*
X10624605Y-16976191D02*
X10634129Y-16995239D01*
X10634129Y-16995239D02*
X10643653Y-17033334D01*
X10643653Y-17033334D02*
X10643653Y-17080953D01*
X10643653Y-17080953D02*
X10634129Y-17119049D01*
X10634129Y-17119049D02*
X10624605Y-17138096D01*
X10624605Y-17138096D02*
X10615082Y-17147620D01*
X10615082Y-17147620D02*
X10596034Y-17157144D01*
X10596034Y-17157144D02*
X10576986Y-17157144D01*
X10576986Y-17157144D02*
X10557939Y-17147620D01*
X10557939Y-17147620D02*
X10548415Y-17138096D01*
X10548415Y-17138096D02*
X10538891Y-17119049D01*
X10538891Y-17119049D02*
X10529367Y-17080953D01*
X10529367Y-17080953D02*
X10529367Y-17033334D01*
X10529367Y-17033334D02*
X10538891Y-16995239D01*
X10538891Y-16995239D02*
X10548415Y-16976191D01*
X10548415Y-16976191D02*
X10557939Y-16966668D01*
X10557939Y-16966668D02*
X10576986Y-16957144D01*
X10767463Y-16957144D02*
X10786510Y-16957144D01*
X10786510Y-16957144D02*
X10805558Y-16966668D01*
X10805558Y-16966668D02*
X10815082Y-16976191D01*
X10815082Y-16976191D02*
X10824605Y-16995239D01*
X10824605Y-16995239D02*
X10834129Y-17033334D01*
X10834129Y-17033334D02*
X10834129Y-17080953D01*
X10834129Y-17080953D02*
X10824605Y-17119049D01*
X10824605Y-17119049D02*
X10815082Y-17138096D01*
X10815082Y-17138096D02*
X10805558Y-17147620D01*
X10805558Y-17147620D02*
X10786510Y-17157144D01*
X10786510Y-17157144D02*
X10767463Y-17157144D01*
X10767463Y-17157144D02*
X10748415Y-17147620D01*
X10748415Y-17147620D02*
X10738891Y-17138096D01*
X10738891Y-17138096D02*
X10729367Y-17119049D01*
X10729367Y-17119049D02*
X10719844Y-17080953D01*
X10719844Y-17080953D02*
X10719844Y-17033334D01*
X10719844Y-17033334D02*
X10729367Y-16995239D01*
X10729367Y-16995239D02*
X10738891Y-16976191D01*
X10738891Y-16976191D02*
X10748415Y-16966668D01*
X10748415Y-16966668D02*
X10767463Y-16957144D01*
X10957939Y-16957144D02*
X10976986Y-16957144D01*
X10976986Y-16957144D02*
X10996034Y-16966668D01*
X10996034Y-16966668D02*
X11005558Y-16976191D01*
X11005558Y-16976191D02*
X11015082Y-16995239D01*
X11015082Y-16995239D02*
X11024605Y-17033334D01*
X11024605Y-17033334D02*
X11024605Y-17080953D01*
X11024605Y-17080953D02*
X11015082Y-17119049D01*
X11015082Y-17119049D02*
X11005558Y-17138096D01*
X11005558Y-17138096D02*
X10996034Y-17147620D01*
X10996034Y-17147620D02*
X10976986Y-17157144D01*
X10976986Y-17157144D02*
X10957939Y-17157144D01*
X10957939Y-17157144D02*
X10938891Y-17147620D01*
X10938891Y-17147620D02*
X10929367Y-17138096D01*
X10929367Y-17138096D02*
X10919844Y-17119049D01*
X10919844Y-17119049D02*
X10910320Y-17080953D01*
X10910320Y-17080953D02*
X10910320Y-17033334D01*
X10910320Y-17033334D02*
X10919844Y-16995239D01*
X10919844Y-16995239D02*
X10929367Y-16976191D01*
X10929367Y-16976191D02*
X10938891Y-16966668D01*
X10938891Y-16966668D02*
X10957939Y-16957144D01*
X11110320Y-17157144D02*
X11110320Y-17023810D01*
X11110320Y-17042858D02*
X11119844Y-17033334D01*
X11119844Y-17033334D02*
X11138891Y-17023810D01*
X11138891Y-17023810D02*
X11167463Y-17023810D01*
X11167463Y-17023810D02*
X11186510Y-17033334D01*
X11186510Y-17033334D02*
X11196034Y-17052382D01*
X11196034Y-17052382D02*
X11196034Y-17157144D01*
X11196034Y-17052382D02*
X11205558Y-17033334D01*
X11205558Y-17033334D02*
X11224605Y-17023810D01*
X11224605Y-17023810D02*
X11253177Y-17023810D01*
X11253177Y-17023810D02*
X11272224Y-17033334D01*
X11272224Y-17033334D02*
X11281748Y-17052382D01*
X11281748Y-17052382D02*
X11281748Y-17157144D01*
X11376986Y-17157144D02*
X11376986Y-17023810D01*
X11376986Y-17042858D02*
X11386510Y-17033334D01*
X11386510Y-17033334D02*
X11405558Y-17023810D01*
X11405558Y-17023810D02*
X11434129Y-17023810D01*
X11434129Y-17023810D02*
X11453177Y-17033334D01*
X11453177Y-17033334D02*
X11462701Y-17052382D01*
X11462701Y-17052382D02*
X11462701Y-17157144D01*
X11462701Y-17052382D02*
X11472224Y-17033334D01*
X11472224Y-17033334D02*
X11491272Y-17023810D01*
X11491272Y-17023810D02*
X11519843Y-17023810D01*
X11519843Y-17023810D02*
X11538891Y-17033334D01*
X11538891Y-17033334D02*
X11548415Y-17052382D01*
X11548415Y-17052382D02*
X11548415Y-17157144D01*
X11938891Y-16947620D02*
X11767463Y-17204763D01*
X12196034Y-16957144D02*
X12215082Y-16957144D01*
X12215082Y-16957144D02*
X12234129Y-16966668D01*
X12234129Y-16966668D02*
X12243653Y-16976191D01*
X12243653Y-16976191D02*
X12253177Y-16995239D01*
X12253177Y-16995239D02*
X12262701Y-17033334D01*
X12262701Y-17033334D02*
X12262701Y-17080953D01*
X12262701Y-17080953D02*
X12253177Y-17119049D01*
X12253177Y-17119049D02*
X12243653Y-17138096D01*
X12243653Y-17138096D02*
X12234129Y-17147620D01*
X12234129Y-17147620D02*
X12215082Y-17157144D01*
X12215082Y-17157144D02*
X12196034Y-17157144D01*
X12196034Y-17157144D02*
X12176986Y-17147620D01*
X12176986Y-17147620D02*
X12167463Y-17138096D01*
X12167463Y-17138096D02*
X12157939Y-17119049D01*
X12157939Y-17119049D02*
X12148415Y-17080953D01*
X12148415Y-17080953D02*
X12148415Y-17033334D01*
X12148415Y-17033334D02*
X12157939Y-16995239D01*
X12157939Y-16995239D02*
X12167463Y-16976191D01*
X12167463Y-16976191D02*
X12176986Y-16966668D01*
X12176986Y-16966668D02*
X12196034Y-16957144D01*
X12348415Y-17138096D02*
X12357939Y-17147620D01*
X12357939Y-17147620D02*
X12348415Y-17157144D01*
X12348415Y-17157144D02*
X12338891Y-17147620D01*
X12338891Y-17147620D02*
X12348415Y-17138096D01*
X12348415Y-17138096D02*
X12348415Y-17157144D01*
X12481748Y-16957144D02*
X12500796Y-16957144D01*
X12500796Y-16957144D02*
X12519844Y-16966668D01*
X12519844Y-16966668D02*
X12529367Y-16976191D01*
X12529367Y-16976191D02*
X12538891Y-16995239D01*
X12538891Y-16995239D02*
X12548415Y-17033334D01*
X12548415Y-17033334D02*
X12548415Y-17080953D01*
X12548415Y-17080953D02*
X12538891Y-17119049D01*
X12538891Y-17119049D02*
X12529367Y-17138096D01*
X12529367Y-17138096D02*
X12519844Y-17147620D01*
X12519844Y-17147620D02*
X12500796Y-17157144D01*
X12500796Y-17157144D02*
X12481748Y-17157144D01*
X12481748Y-17157144D02*
X12462701Y-17147620D01*
X12462701Y-17147620D02*
X12453177Y-17138096D01*
X12453177Y-17138096D02*
X12443653Y-17119049D01*
X12443653Y-17119049D02*
X12434129Y-17080953D01*
X12434129Y-17080953D02*
X12434129Y-17033334D01*
X12434129Y-17033334D02*
X12443653Y-16995239D01*
X12443653Y-16995239D02*
X12453177Y-16976191D01*
X12453177Y-16976191D02*
X12462701Y-16966668D01*
X12462701Y-16966668D02*
X12481748Y-16957144D01*
X12615082Y-16957144D02*
X12738891Y-16957144D01*
X12738891Y-16957144D02*
X12672225Y-17033334D01*
X12672225Y-17033334D02*
X12700796Y-17033334D01*
X12700796Y-17033334D02*
X12719844Y-17042858D01*
X12719844Y-17042858D02*
X12729367Y-17052382D01*
X12729367Y-17052382D02*
X12738891Y-17071430D01*
X12738891Y-17071430D02*
X12738891Y-17119049D01*
X12738891Y-17119049D02*
X12729367Y-17138096D01*
X12729367Y-17138096D02*
X12719844Y-17147620D01*
X12719844Y-17147620D02*
X12700796Y-17157144D01*
X12700796Y-17157144D02*
X12643653Y-17157144D01*
X12643653Y-17157144D02*
X12624606Y-17147620D01*
X12624606Y-17147620D02*
X12615082Y-17138096D01*
X12834129Y-17157144D02*
X12872225Y-17157144D01*
X12872225Y-17157144D02*
X12891272Y-17147620D01*
X12891272Y-17147620D02*
X12900796Y-17138096D01*
X12900796Y-17138096D02*
X12919844Y-17109525D01*
X12919844Y-17109525D02*
X12929367Y-17071430D01*
X12929367Y-17071430D02*
X12929367Y-16995239D01*
X12929367Y-16995239D02*
X12919844Y-16976191D01*
X12919844Y-16976191D02*
X12910320Y-16966668D01*
X12910320Y-16966668D02*
X12891272Y-16957144D01*
X12891272Y-16957144D02*
X12853177Y-16957144D01*
X12853177Y-16957144D02*
X12834129Y-16966668D01*
X12834129Y-16966668D02*
X12824606Y-16976191D01*
X12824606Y-16976191D02*
X12815082Y-16995239D01*
X12815082Y-16995239D02*
X12815082Y-17042858D01*
X12815082Y-17042858D02*
X12824606Y-17061906D01*
X12824606Y-17061906D02*
X12834129Y-17071430D01*
X12834129Y-17071430D02*
X12853177Y-17080953D01*
X12853177Y-17080953D02*
X12891272Y-17080953D01*
X12891272Y-17080953D02*
X12910320Y-17071430D01*
X12910320Y-17071430D02*
X12919844Y-17061906D01*
X12919844Y-17061906D02*
X12929367Y-17042858D01*
X13100796Y-17023810D02*
X13100796Y-17157144D01*
X13053177Y-16947620D02*
X13005558Y-17090477D01*
X13005558Y-17090477D02*
X13129367Y-17090477D01*
X13196034Y-16957144D02*
X13196034Y-16995239D01*
X13272225Y-16957144D02*
X13272225Y-16995239D01*
X13567463Y-17233334D02*
X13557939Y-17223810D01*
X13557939Y-17223810D02*
X13538891Y-17195239D01*
X13538891Y-17195239D02*
X13529368Y-17176191D01*
X13529368Y-17176191D02*
X13519844Y-17147620D01*
X13519844Y-17147620D02*
X13510320Y-17100001D01*
X13510320Y-17100001D02*
X13510320Y-17061906D01*
X13510320Y-17061906D02*
X13519844Y-17014287D01*
X13519844Y-17014287D02*
X13529368Y-16985715D01*
X13529368Y-16985715D02*
X13538891Y-16966668D01*
X13538891Y-16966668D02*
X13557939Y-16938096D01*
X13557939Y-16938096D02*
X13567463Y-16928572D01*
X13738891Y-16957144D02*
X13643653Y-16957144D01*
X13643653Y-16957144D02*
X13634129Y-17052382D01*
X13634129Y-17052382D02*
X13643653Y-17042858D01*
X13643653Y-17042858D02*
X13662701Y-17033334D01*
X13662701Y-17033334D02*
X13710320Y-17033334D01*
X13710320Y-17033334D02*
X13729368Y-17042858D01*
X13729368Y-17042858D02*
X13738891Y-17052382D01*
X13738891Y-17052382D02*
X13748415Y-17071430D01*
X13748415Y-17071430D02*
X13748415Y-17119049D01*
X13748415Y-17119049D02*
X13738891Y-17138096D01*
X13738891Y-17138096D02*
X13729368Y-17147620D01*
X13729368Y-17147620D02*
X13710320Y-17157144D01*
X13710320Y-17157144D02*
X13662701Y-17157144D01*
X13662701Y-17157144D02*
X13643653Y-17147620D01*
X13643653Y-17147620D02*
X13634129Y-17138096D01*
X13929368Y-16957144D02*
X13834129Y-16957144D01*
X13834129Y-16957144D02*
X13824606Y-17052382D01*
X13824606Y-17052382D02*
X13834129Y-17042858D01*
X13834129Y-17042858D02*
X13853177Y-17033334D01*
X13853177Y-17033334D02*
X13900796Y-17033334D01*
X13900796Y-17033334D02*
X13919844Y-17042858D01*
X13919844Y-17042858D02*
X13929368Y-17052382D01*
X13929368Y-17052382D02*
X13938891Y-17071430D01*
X13938891Y-17071430D02*
X13938891Y-17119049D01*
X13938891Y-17119049D02*
X13929368Y-17138096D01*
X13929368Y-17138096D02*
X13919844Y-17147620D01*
X13919844Y-17147620D02*
X13900796Y-17157144D01*
X13900796Y-17157144D02*
X13853177Y-17157144D01*
X13853177Y-17157144D02*
X13834129Y-17147620D01*
X13834129Y-17147620D02*
X13824606Y-17138096D01*
X14176987Y-17157144D02*
X14176987Y-16957144D01*
X14262701Y-17157144D02*
X14262701Y-17052382D01*
X14262701Y-17052382D02*
X14253177Y-17033334D01*
X14253177Y-17033334D02*
X14234130Y-17023810D01*
X14234130Y-17023810D02*
X14205558Y-17023810D01*
X14205558Y-17023810D02*
X14186510Y-17033334D01*
X14186510Y-17033334D02*
X14176987Y-17042858D01*
X14386510Y-17157144D02*
X14367463Y-17147620D01*
X14367463Y-17147620D02*
X14357939Y-17138096D01*
X14357939Y-17138096D02*
X14348415Y-17119049D01*
X14348415Y-17119049D02*
X14348415Y-17061906D01*
X14348415Y-17061906D02*
X14357939Y-17042858D01*
X14357939Y-17042858D02*
X14367463Y-17033334D01*
X14367463Y-17033334D02*
X14386510Y-17023810D01*
X14386510Y-17023810D02*
X14415082Y-17023810D01*
X14415082Y-17023810D02*
X14434130Y-17033334D01*
X14434130Y-17033334D02*
X14443653Y-17042858D01*
X14443653Y-17042858D02*
X14453177Y-17061906D01*
X14453177Y-17061906D02*
X14453177Y-17119049D01*
X14453177Y-17119049D02*
X14443653Y-17138096D01*
X14443653Y-17138096D02*
X14434130Y-17147620D01*
X14434130Y-17147620D02*
X14415082Y-17157144D01*
X14415082Y-17157144D02*
X14386510Y-17157144D01*
X14567463Y-17157144D02*
X14548415Y-17147620D01*
X14548415Y-17147620D02*
X14538891Y-17128572D01*
X14538891Y-17128572D02*
X14538891Y-16957144D01*
X14719844Y-17147620D02*
X14700796Y-17157144D01*
X14700796Y-17157144D02*
X14662701Y-17157144D01*
X14662701Y-17157144D02*
X14643653Y-17147620D01*
X14643653Y-17147620D02*
X14634130Y-17128572D01*
X14634130Y-17128572D02*
X14634130Y-17052382D01*
X14634130Y-17052382D02*
X14643653Y-17033334D01*
X14643653Y-17033334D02*
X14662701Y-17023810D01*
X14662701Y-17023810D02*
X14700796Y-17023810D01*
X14700796Y-17023810D02*
X14719844Y-17033334D01*
X14719844Y-17033334D02*
X14729368Y-17052382D01*
X14729368Y-17052382D02*
X14729368Y-17071430D01*
X14729368Y-17071430D02*
X14634130Y-17090477D01*
X14805558Y-17147620D02*
X14824606Y-17157144D01*
X14824606Y-17157144D02*
X14862701Y-17157144D01*
X14862701Y-17157144D02*
X14881749Y-17147620D01*
X14881749Y-17147620D02*
X14891272Y-17128572D01*
X14891272Y-17128572D02*
X14891272Y-17119049D01*
X14891272Y-17119049D02*
X14881749Y-17100001D01*
X14881749Y-17100001D02*
X14862701Y-17090477D01*
X14862701Y-17090477D02*
X14834130Y-17090477D01*
X14834130Y-17090477D02*
X14815082Y-17080953D01*
X14815082Y-17080953D02*
X14805558Y-17061906D01*
X14805558Y-17061906D02*
X14805558Y-17052382D01*
X14805558Y-17052382D02*
X14815082Y-17033334D01*
X14815082Y-17033334D02*
X14834130Y-17023810D01*
X14834130Y-17023810D02*
X14862701Y-17023810D01*
X14862701Y-17023810D02*
X14881749Y-17033334D01*
X14957939Y-17233334D02*
X14967463Y-17223810D01*
X14967463Y-17223810D02*
X14986511Y-17195239D01*
X14986511Y-17195239D02*
X14996034Y-17176191D01*
X14996034Y-17176191D02*
X15005558Y-17147620D01*
X15005558Y-17147620D02*
X15015082Y-17100001D01*
X15015082Y-17100001D02*
X15015082Y-17061906D01*
X15015082Y-17061906D02*
X15005558Y-17014287D01*
X15005558Y-17014287D02*
X14996034Y-16985715D01*
X14996034Y-16985715D02*
X14986511Y-16966668D01*
X14986511Y-16966668D02*
X14967463Y-16938096D01*
X14967463Y-16938096D02*
X14957939Y-16928572D01*
D13*
X9941900Y-17380160D02*
X9992400Y-17329660D01*
X9941900Y-17279160D01*
X9891400Y-17329660D01*
X9941900Y-17380160D01*
D11*
X10357939Y-17421144D02*
X10243653Y-17421144D01*
X10300796Y-17421144D02*
X10300796Y-17221144D01*
X10300796Y-17221144D02*
X10281748Y-17249715D01*
X10281748Y-17249715D02*
X10262701Y-17268763D01*
X10262701Y-17268763D02*
X10243653Y-17278287D01*
X10443653Y-17402096D02*
X10453177Y-17411620D01*
X10453177Y-17411620D02*
X10443653Y-17421144D01*
X10443653Y-17421144D02*
X10434129Y-17411620D01*
X10434129Y-17411620D02*
X10443653Y-17402096D01*
X10443653Y-17402096D02*
X10443653Y-17421144D01*
X10576986Y-17221144D02*
X10596034Y-17221144D01*
X10596034Y-17221144D02*
X10615082Y-17230668D01*
X10615082Y-17230668D02*
X10624605Y-17240191D01*
X10624605Y-17240191D02*
X10634129Y-17259239D01*
X10634129Y-17259239D02*
X10643653Y-17297334D01*
X10643653Y-17297334D02*
X10643653Y-17344953D01*
X10643653Y-17344953D02*
X10634129Y-17383049D01*
X10634129Y-17383049D02*
X10624605Y-17402096D01*
X10624605Y-17402096D02*
X10615082Y-17411620D01*
X10615082Y-17411620D02*
X10596034Y-17421144D01*
X10596034Y-17421144D02*
X10576986Y-17421144D01*
X10576986Y-17421144D02*
X10557939Y-17411620D01*
X10557939Y-17411620D02*
X10548415Y-17402096D01*
X10548415Y-17402096D02*
X10538891Y-17383049D01*
X10538891Y-17383049D02*
X10529367Y-17344953D01*
X10529367Y-17344953D02*
X10529367Y-17297334D01*
X10529367Y-17297334D02*
X10538891Y-17259239D01*
X10538891Y-17259239D02*
X10548415Y-17240191D01*
X10548415Y-17240191D02*
X10557939Y-17230668D01*
X10557939Y-17230668D02*
X10576986Y-17221144D01*
X10834129Y-17421144D02*
X10719844Y-17421144D01*
X10776986Y-17421144D02*
X10776986Y-17221144D01*
X10776986Y-17221144D02*
X10757939Y-17249715D01*
X10757939Y-17249715D02*
X10738891Y-17268763D01*
X10738891Y-17268763D02*
X10719844Y-17278287D01*
X10957939Y-17221144D02*
X10976986Y-17221144D01*
X10976986Y-17221144D02*
X10996034Y-17230668D01*
X10996034Y-17230668D02*
X11005558Y-17240191D01*
X11005558Y-17240191D02*
X11015082Y-17259239D01*
X11015082Y-17259239D02*
X11024605Y-17297334D01*
X11024605Y-17297334D02*
X11024605Y-17344953D01*
X11024605Y-17344953D02*
X11015082Y-17383049D01*
X11015082Y-17383049D02*
X11005558Y-17402096D01*
X11005558Y-17402096D02*
X10996034Y-17411620D01*
X10996034Y-17411620D02*
X10976986Y-17421144D01*
X10976986Y-17421144D02*
X10957939Y-17421144D01*
X10957939Y-17421144D02*
X10938891Y-17411620D01*
X10938891Y-17411620D02*
X10929367Y-17402096D01*
X10929367Y-17402096D02*
X10919844Y-17383049D01*
X10919844Y-17383049D02*
X10910320Y-17344953D01*
X10910320Y-17344953D02*
X10910320Y-17297334D01*
X10910320Y-17297334D02*
X10919844Y-17259239D01*
X10919844Y-17259239D02*
X10929367Y-17240191D01*
X10929367Y-17240191D02*
X10938891Y-17230668D01*
X10938891Y-17230668D02*
X10957939Y-17221144D01*
X11110320Y-17421144D02*
X11110320Y-17287810D01*
X11110320Y-17306858D02*
X11119844Y-17297334D01*
X11119844Y-17297334D02*
X11138891Y-17287810D01*
X11138891Y-17287810D02*
X11167463Y-17287810D01*
X11167463Y-17287810D02*
X11186510Y-17297334D01*
X11186510Y-17297334D02*
X11196034Y-17316382D01*
X11196034Y-17316382D02*
X11196034Y-17421144D01*
X11196034Y-17316382D02*
X11205558Y-17297334D01*
X11205558Y-17297334D02*
X11224605Y-17287810D01*
X11224605Y-17287810D02*
X11253177Y-17287810D01*
X11253177Y-17287810D02*
X11272224Y-17297334D01*
X11272224Y-17297334D02*
X11281748Y-17316382D01*
X11281748Y-17316382D02*
X11281748Y-17421144D01*
X11376986Y-17421144D02*
X11376986Y-17287810D01*
X11376986Y-17306858D02*
X11386510Y-17297334D01*
X11386510Y-17297334D02*
X11405558Y-17287810D01*
X11405558Y-17287810D02*
X11434129Y-17287810D01*
X11434129Y-17287810D02*
X11453177Y-17297334D01*
X11453177Y-17297334D02*
X11462701Y-17316382D01*
X11462701Y-17316382D02*
X11462701Y-17421144D01*
X11462701Y-17316382D02*
X11472224Y-17297334D01*
X11472224Y-17297334D02*
X11491272Y-17287810D01*
X11491272Y-17287810D02*
X11519843Y-17287810D01*
X11519843Y-17287810D02*
X11538891Y-17297334D01*
X11538891Y-17297334D02*
X11548415Y-17316382D01*
X11548415Y-17316382D02*
X11548415Y-17421144D01*
X11938891Y-17211620D02*
X11767463Y-17468763D01*
X12196034Y-17221144D02*
X12215082Y-17221144D01*
X12215082Y-17221144D02*
X12234129Y-17230668D01*
X12234129Y-17230668D02*
X12243653Y-17240191D01*
X12243653Y-17240191D02*
X12253177Y-17259239D01*
X12253177Y-17259239D02*
X12262701Y-17297334D01*
X12262701Y-17297334D02*
X12262701Y-17344953D01*
X12262701Y-17344953D02*
X12253177Y-17383049D01*
X12253177Y-17383049D02*
X12243653Y-17402096D01*
X12243653Y-17402096D02*
X12234129Y-17411620D01*
X12234129Y-17411620D02*
X12215082Y-17421144D01*
X12215082Y-17421144D02*
X12196034Y-17421144D01*
X12196034Y-17421144D02*
X12176986Y-17411620D01*
X12176986Y-17411620D02*
X12167463Y-17402096D01*
X12167463Y-17402096D02*
X12157939Y-17383049D01*
X12157939Y-17383049D02*
X12148415Y-17344953D01*
X12148415Y-17344953D02*
X12148415Y-17297334D01*
X12148415Y-17297334D02*
X12157939Y-17259239D01*
X12157939Y-17259239D02*
X12167463Y-17240191D01*
X12167463Y-17240191D02*
X12176986Y-17230668D01*
X12176986Y-17230668D02*
X12196034Y-17221144D01*
X12348415Y-17402096D02*
X12357939Y-17411620D01*
X12357939Y-17411620D02*
X12348415Y-17421144D01*
X12348415Y-17421144D02*
X12338891Y-17411620D01*
X12338891Y-17411620D02*
X12348415Y-17402096D01*
X12348415Y-17402096D02*
X12348415Y-17421144D01*
X12481748Y-17221144D02*
X12500796Y-17221144D01*
X12500796Y-17221144D02*
X12519844Y-17230668D01*
X12519844Y-17230668D02*
X12529367Y-17240191D01*
X12529367Y-17240191D02*
X12538891Y-17259239D01*
X12538891Y-17259239D02*
X12548415Y-17297334D01*
X12548415Y-17297334D02*
X12548415Y-17344953D01*
X12548415Y-17344953D02*
X12538891Y-17383049D01*
X12538891Y-17383049D02*
X12529367Y-17402096D01*
X12529367Y-17402096D02*
X12519844Y-17411620D01*
X12519844Y-17411620D02*
X12500796Y-17421144D01*
X12500796Y-17421144D02*
X12481748Y-17421144D01*
X12481748Y-17421144D02*
X12462701Y-17411620D01*
X12462701Y-17411620D02*
X12453177Y-17402096D01*
X12453177Y-17402096D02*
X12443653Y-17383049D01*
X12443653Y-17383049D02*
X12434129Y-17344953D01*
X12434129Y-17344953D02*
X12434129Y-17297334D01*
X12434129Y-17297334D02*
X12443653Y-17259239D01*
X12443653Y-17259239D02*
X12453177Y-17240191D01*
X12453177Y-17240191D02*
X12462701Y-17230668D01*
X12462701Y-17230668D02*
X12481748Y-17221144D01*
X12615082Y-17221144D02*
X12738891Y-17221144D01*
X12738891Y-17221144D02*
X12672225Y-17297334D01*
X12672225Y-17297334D02*
X12700796Y-17297334D01*
X12700796Y-17297334D02*
X12719844Y-17306858D01*
X12719844Y-17306858D02*
X12729367Y-17316382D01*
X12729367Y-17316382D02*
X12738891Y-17335430D01*
X12738891Y-17335430D02*
X12738891Y-17383049D01*
X12738891Y-17383049D02*
X12729367Y-17402096D01*
X12729367Y-17402096D02*
X12719844Y-17411620D01*
X12719844Y-17411620D02*
X12700796Y-17421144D01*
X12700796Y-17421144D02*
X12643653Y-17421144D01*
X12643653Y-17421144D02*
X12624606Y-17411620D01*
X12624606Y-17411620D02*
X12615082Y-17402096D01*
X12834129Y-17421144D02*
X12872225Y-17421144D01*
X12872225Y-17421144D02*
X12891272Y-17411620D01*
X12891272Y-17411620D02*
X12900796Y-17402096D01*
X12900796Y-17402096D02*
X12919844Y-17373525D01*
X12919844Y-17373525D02*
X12929367Y-17335430D01*
X12929367Y-17335430D02*
X12929367Y-17259239D01*
X12929367Y-17259239D02*
X12919844Y-17240191D01*
X12919844Y-17240191D02*
X12910320Y-17230668D01*
X12910320Y-17230668D02*
X12891272Y-17221144D01*
X12891272Y-17221144D02*
X12853177Y-17221144D01*
X12853177Y-17221144D02*
X12834129Y-17230668D01*
X12834129Y-17230668D02*
X12824606Y-17240191D01*
X12824606Y-17240191D02*
X12815082Y-17259239D01*
X12815082Y-17259239D02*
X12815082Y-17306858D01*
X12815082Y-17306858D02*
X12824606Y-17325906D01*
X12824606Y-17325906D02*
X12834129Y-17335430D01*
X12834129Y-17335430D02*
X12853177Y-17344953D01*
X12853177Y-17344953D02*
X12891272Y-17344953D01*
X12891272Y-17344953D02*
X12910320Y-17335430D01*
X12910320Y-17335430D02*
X12919844Y-17325906D01*
X12919844Y-17325906D02*
X12929367Y-17306858D01*
X13043653Y-17306858D02*
X13024606Y-17297334D01*
X13024606Y-17297334D02*
X13015082Y-17287810D01*
X13015082Y-17287810D02*
X13005558Y-17268763D01*
X13005558Y-17268763D02*
X13005558Y-17259239D01*
X13005558Y-17259239D02*
X13015082Y-17240191D01*
X13015082Y-17240191D02*
X13024606Y-17230668D01*
X13024606Y-17230668D02*
X13043653Y-17221144D01*
X13043653Y-17221144D02*
X13081748Y-17221144D01*
X13081748Y-17221144D02*
X13100796Y-17230668D01*
X13100796Y-17230668D02*
X13110320Y-17240191D01*
X13110320Y-17240191D02*
X13119844Y-17259239D01*
X13119844Y-17259239D02*
X13119844Y-17268763D01*
X13119844Y-17268763D02*
X13110320Y-17287810D01*
X13110320Y-17287810D02*
X13100796Y-17297334D01*
X13100796Y-17297334D02*
X13081748Y-17306858D01*
X13081748Y-17306858D02*
X13043653Y-17306858D01*
X13043653Y-17306858D02*
X13024606Y-17316382D01*
X13024606Y-17316382D02*
X13015082Y-17325906D01*
X13015082Y-17325906D02*
X13005558Y-17344953D01*
X13005558Y-17344953D02*
X13005558Y-17383049D01*
X13005558Y-17383049D02*
X13015082Y-17402096D01*
X13015082Y-17402096D02*
X13024606Y-17411620D01*
X13024606Y-17411620D02*
X13043653Y-17421144D01*
X13043653Y-17421144D02*
X13081748Y-17421144D01*
X13081748Y-17421144D02*
X13100796Y-17411620D01*
X13100796Y-17411620D02*
X13110320Y-17402096D01*
X13110320Y-17402096D02*
X13119844Y-17383049D01*
X13119844Y-17383049D02*
X13119844Y-17344953D01*
X13119844Y-17344953D02*
X13110320Y-17325906D01*
X13110320Y-17325906D02*
X13100796Y-17316382D01*
X13100796Y-17316382D02*
X13081748Y-17306858D01*
X13196034Y-17221144D02*
X13196034Y-17259239D01*
X13272225Y-17221144D02*
X13272225Y-17259239D01*
X13567463Y-17497334D02*
X13557939Y-17487810D01*
X13557939Y-17487810D02*
X13538891Y-17459239D01*
X13538891Y-17459239D02*
X13529368Y-17440191D01*
X13529368Y-17440191D02*
X13519844Y-17411620D01*
X13519844Y-17411620D02*
X13510320Y-17364001D01*
X13510320Y-17364001D02*
X13510320Y-17325906D01*
X13510320Y-17325906D02*
X13519844Y-17278287D01*
X13519844Y-17278287D02*
X13529368Y-17249715D01*
X13529368Y-17249715D02*
X13538891Y-17230668D01*
X13538891Y-17230668D02*
X13557939Y-17202096D01*
X13557939Y-17202096D02*
X13567463Y-17192572D01*
X13634129Y-17240191D02*
X13643653Y-17230668D01*
X13643653Y-17230668D02*
X13662701Y-17221144D01*
X13662701Y-17221144D02*
X13710320Y-17221144D01*
X13710320Y-17221144D02*
X13729368Y-17230668D01*
X13729368Y-17230668D02*
X13738891Y-17240191D01*
X13738891Y-17240191D02*
X13748415Y-17259239D01*
X13748415Y-17259239D02*
X13748415Y-17278287D01*
X13748415Y-17278287D02*
X13738891Y-17306858D01*
X13738891Y-17306858D02*
X13624606Y-17421144D01*
X13624606Y-17421144D02*
X13748415Y-17421144D01*
X13986510Y-17421144D02*
X13986510Y-17221144D01*
X14072225Y-17421144D02*
X14072225Y-17316382D01*
X14072225Y-17316382D02*
X14062701Y-17297334D01*
X14062701Y-17297334D02*
X14043653Y-17287810D01*
X14043653Y-17287810D02*
X14015082Y-17287810D01*
X14015082Y-17287810D02*
X13996034Y-17297334D01*
X13996034Y-17297334D02*
X13986510Y-17306858D01*
X14196034Y-17421144D02*
X14176987Y-17411620D01*
X14176987Y-17411620D02*
X14167463Y-17402096D01*
X14167463Y-17402096D02*
X14157939Y-17383049D01*
X14157939Y-17383049D02*
X14157939Y-17325906D01*
X14157939Y-17325906D02*
X14167463Y-17306858D01*
X14167463Y-17306858D02*
X14176987Y-17297334D01*
X14176987Y-17297334D02*
X14196034Y-17287810D01*
X14196034Y-17287810D02*
X14224606Y-17287810D01*
X14224606Y-17287810D02*
X14243653Y-17297334D01*
X14243653Y-17297334D02*
X14253177Y-17306858D01*
X14253177Y-17306858D02*
X14262701Y-17325906D01*
X14262701Y-17325906D02*
X14262701Y-17383049D01*
X14262701Y-17383049D02*
X14253177Y-17402096D01*
X14253177Y-17402096D02*
X14243653Y-17411620D01*
X14243653Y-17411620D02*
X14224606Y-17421144D01*
X14224606Y-17421144D02*
X14196034Y-17421144D01*
X14376987Y-17421144D02*
X14357939Y-17411620D01*
X14357939Y-17411620D02*
X14348415Y-17392572D01*
X14348415Y-17392572D02*
X14348415Y-17221144D01*
X14529368Y-17411620D02*
X14510320Y-17421144D01*
X14510320Y-17421144D02*
X14472225Y-17421144D01*
X14472225Y-17421144D02*
X14453177Y-17411620D01*
X14453177Y-17411620D02*
X14443653Y-17392572D01*
X14443653Y-17392572D02*
X14443653Y-17316382D01*
X14443653Y-17316382D02*
X14453177Y-17297334D01*
X14453177Y-17297334D02*
X14472225Y-17287810D01*
X14472225Y-17287810D02*
X14510320Y-17287810D01*
X14510320Y-17287810D02*
X14529368Y-17297334D01*
X14529368Y-17297334D02*
X14538891Y-17316382D01*
X14538891Y-17316382D02*
X14538891Y-17335430D01*
X14538891Y-17335430D02*
X14443653Y-17354477D01*
X14615082Y-17411620D02*
X14634130Y-17421144D01*
X14634130Y-17421144D02*
X14672225Y-17421144D01*
X14672225Y-17421144D02*
X14691272Y-17411620D01*
X14691272Y-17411620D02*
X14700796Y-17392572D01*
X14700796Y-17392572D02*
X14700796Y-17383049D01*
X14700796Y-17383049D02*
X14691272Y-17364001D01*
X14691272Y-17364001D02*
X14672225Y-17354477D01*
X14672225Y-17354477D02*
X14643653Y-17354477D01*
X14643653Y-17354477D02*
X14624606Y-17344953D01*
X14624606Y-17344953D02*
X14615082Y-17325906D01*
X14615082Y-17325906D02*
X14615082Y-17316382D01*
X14615082Y-17316382D02*
X14624606Y-17297334D01*
X14624606Y-17297334D02*
X14643653Y-17287810D01*
X14643653Y-17287810D02*
X14672225Y-17287810D01*
X14672225Y-17287810D02*
X14691272Y-17297334D01*
X14767463Y-17497334D02*
X14776987Y-17487810D01*
X14776987Y-17487810D02*
X14796034Y-17459239D01*
X14796034Y-17459239D02*
X14805558Y-17440191D01*
X14805558Y-17440191D02*
X14815082Y-17411620D01*
X14815082Y-17411620D02*
X14824606Y-17364001D01*
X14824606Y-17364001D02*
X14824606Y-17325906D01*
X14824606Y-17325906D02*
X14815082Y-17278287D01*
X14815082Y-17278287D02*
X14805558Y-17249715D01*
X14805558Y-17249715D02*
X14796034Y-17230668D01*
X14796034Y-17230668D02*
X14776987Y-17202096D01*
X14776987Y-17202096D02*
X14767463Y-17192572D01*
X9792400Y-17493660D02*
X9992400Y-17693660D01*
X9992400Y-17493660D02*
X9792400Y-17693660D01*
X9992400Y-17593660D02*
G75*
G02*
X9792400Y-17593660I-100000J0D01*
G01*
X9792400Y-17593660D02*
G75*
G02*
X9992400Y-17593660I100000J0D01*
G01*
X10234129Y-17485144D02*
X10357939Y-17485144D01*
X10357939Y-17485144D02*
X10291272Y-17561334D01*
X10291272Y-17561334D02*
X10319844Y-17561334D01*
X10319844Y-17561334D02*
X10338891Y-17570858D01*
X10338891Y-17570858D02*
X10348415Y-17580382D01*
X10348415Y-17580382D02*
X10357939Y-17599430D01*
X10357939Y-17599430D02*
X10357939Y-17647049D01*
X10357939Y-17647049D02*
X10348415Y-17666096D01*
X10348415Y-17666096D02*
X10338891Y-17675620D01*
X10338891Y-17675620D02*
X10319844Y-17685144D01*
X10319844Y-17685144D02*
X10262701Y-17685144D01*
X10262701Y-17685144D02*
X10243653Y-17675620D01*
X10243653Y-17675620D02*
X10234129Y-17666096D01*
X10443653Y-17666096D02*
X10453177Y-17675620D01*
X10453177Y-17675620D02*
X10443653Y-17685144D01*
X10443653Y-17685144D02*
X10434129Y-17675620D01*
X10434129Y-17675620D02*
X10443653Y-17666096D01*
X10443653Y-17666096D02*
X10443653Y-17685144D01*
X10529367Y-17504191D02*
X10538891Y-17494668D01*
X10538891Y-17494668D02*
X10557939Y-17485144D01*
X10557939Y-17485144D02*
X10605558Y-17485144D01*
X10605558Y-17485144D02*
X10624605Y-17494668D01*
X10624605Y-17494668D02*
X10634129Y-17504191D01*
X10634129Y-17504191D02*
X10643653Y-17523239D01*
X10643653Y-17523239D02*
X10643653Y-17542287D01*
X10643653Y-17542287D02*
X10634129Y-17570858D01*
X10634129Y-17570858D02*
X10519844Y-17685144D01*
X10519844Y-17685144D02*
X10643653Y-17685144D01*
X10767463Y-17485144D02*
X10786510Y-17485144D01*
X10786510Y-17485144D02*
X10805558Y-17494668D01*
X10805558Y-17494668D02*
X10815082Y-17504191D01*
X10815082Y-17504191D02*
X10824605Y-17523239D01*
X10824605Y-17523239D02*
X10834129Y-17561334D01*
X10834129Y-17561334D02*
X10834129Y-17608953D01*
X10834129Y-17608953D02*
X10824605Y-17647049D01*
X10824605Y-17647049D02*
X10815082Y-17666096D01*
X10815082Y-17666096D02*
X10805558Y-17675620D01*
X10805558Y-17675620D02*
X10786510Y-17685144D01*
X10786510Y-17685144D02*
X10767463Y-17685144D01*
X10767463Y-17685144D02*
X10748415Y-17675620D01*
X10748415Y-17675620D02*
X10738891Y-17666096D01*
X10738891Y-17666096D02*
X10729367Y-17647049D01*
X10729367Y-17647049D02*
X10719844Y-17608953D01*
X10719844Y-17608953D02*
X10719844Y-17561334D01*
X10719844Y-17561334D02*
X10729367Y-17523239D01*
X10729367Y-17523239D02*
X10738891Y-17504191D01*
X10738891Y-17504191D02*
X10748415Y-17494668D01*
X10748415Y-17494668D02*
X10767463Y-17485144D01*
X10957939Y-17485144D02*
X10976986Y-17485144D01*
X10976986Y-17485144D02*
X10996034Y-17494668D01*
X10996034Y-17494668D02*
X11005558Y-17504191D01*
X11005558Y-17504191D02*
X11015082Y-17523239D01*
X11015082Y-17523239D02*
X11024605Y-17561334D01*
X11024605Y-17561334D02*
X11024605Y-17608953D01*
X11024605Y-17608953D02*
X11015082Y-17647049D01*
X11015082Y-17647049D02*
X11005558Y-17666096D01*
X11005558Y-17666096D02*
X10996034Y-17675620D01*
X10996034Y-17675620D02*
X10976986Y-17685144D01*
X10976986Y-17685144D02*
X10957939Y-17685144D01*
X10957939Y-17685144D02*
X10938891Y-17675620D01*
X10938891Y-17675620D02*
X10929367Y-17666096D01*
X10929367Y-17666096D02*
X10919844Y-17647049D01*
X10919844Y-17647049D02*
X10910320Y-17608953D01*
X10910320Y-17608953D02*
X10910320Y-17561334D01*
X10910320Y-17561334D02*
X10919844Y-17523239D01*
X10919844Y-17523239D02*
X10929367Y-17504191D01*
X10929367Y-17504191D02*
X10938891Y-17494668D01*
X10938891Y-17494668D02*
X10957939Y-17485144D01*
X11110320Y-17685144D02*
X11110320Y-17551810D01*
X11110320Y-17570858D02*
X11119844Y-17561334D01*
X11119844Y-17561334D02*
X11138891Y-17551810D01*
X11138891Y-17551810D02*
X11167463Y-17551810D01*
X11167463Y-17551810D02*
X11186510Y-17561334D01*
X11186510Y-17561334D02*
X11196034Y-17580382D01*
X11196034Y-17580382D02*
X11196034Y-17685144D01*
X11196034Y-17580382D02*
X11205558Y-17561334D01*
X11205558Y-17561334D02*
X11224605Y-17551810D01*
X11224605Y-17551810D02*
X11253177Y-17551810D01*
X11253177Y-17551810D02*
X11272224Y-17561334D01*
X11272224Y-17561334D02*
X11281748Y-17580382D01*
X11281748Y-17580382D02*
X11281748Y-17685144D01*
X11376986Y-17685144D02*
X11376986Y-17551810D01*
X11376986Y-17570858D02*
X11386510Y-17561334D01*
X11386510Y-17561334D02*
X11405558Y-17551810D01*
X11405558Y-17551810D02*
X11434129Y-17551810D01*
X11434129Y-17551810D02*
X11453177Y-17561334D01*
X11453177Y-17561334D02*
X11462701Y-17580382D01*
X11462701Y-17580382D02*
X11462701Y-17685144D01*
X11462701Y-17580382D02*
X11472224Y-17561334D01*
X11472224Y-17561334D02*
X11491272Y-17551810D01*
X11491272Y-17551810D02*
X11519843Y-17551810D01*
X11519843Y-17551810D02*
X11538891Y-17561334D01*
X11538891Y-17561334D02*
X11548415Y-17580382D01*
X11548415Y-17580382D02*
X11548415Y-17685144D01*
X11938891Y-17475620D02*
X11767463Y-17732763D01*
X12196034Y-17485144D02*
X12215082Y-17485144D01*
X12215082Y-17485144D02*
X12234129Y-17494668D01*
X12234129Y-17494668D02*
X12243653Y-17504191D01*
X12243653Y-17504191D02*
X12253177Y-17523239D01*
X12253177Y-17523239D02*
X12262701Y-17561334D01*
X12262701Y-17561334D02*
X12262701Y-17608953D01*
X12262701Y-17608953D02*
X12253177Y-17647049D01*
X12253177Y-17647049D02*
X12243653Y-17666096D01*
X12243653Y-17666096D02*
X12234129Y-17675620D01*
X12234129Y-17675620D02*
X12215082Y-17685144D01*
X12215082Y-17685144D02*
X12196034Y-17685144D01*
X12196034Y-17685144D02*
X12176986Y-17675620D01*
X12176986Y-17675620D02*
X12167463Y-17666096D01*
X12167463Y-17666096D02*
X12157939Y-17647049D01*
X12157939Y-17647049D02*
X12148415Y-17608953D01*
X12148415Y-17608953D02*
X12148415Y-17561334D01*
X12148415Y-17561334D02*
X12157939Y-17523239D01*
X12157939Y-17523239D02*
X12167463Y-17504191D01*
X12167463Y-17504191D02*
X12176986Y-17494668D01*
X12176986Y-17494668D02*
X12196034Y-17485144D01*
X12348415Y-17666096D02*
X12357939Y-17675620D01*
X12357939Y-17675620D02*
X12348415Y-17685144D01*
X12348415Y-17685144D02*
X12338891Y-17675620D01*
X12338891Y-17675620D02*
X12348415Y-17666096D01*
X12348415Y-17666096D02*
X12348415Y-17685144D01*
X12548415Y-17685144D02*
X12434129Y-17685144D01*
X12491272Y-17685144D02*
X12491272Y-17485144D01*
X12491272Y-17485144D02*
X12472225Y-17513715D01*
X12472225Y-17513715D02*
X12453177Y-17532763D01*
X12453177Y-17532763D02*
X12434129Y-17542287D01*
X12624606Y-17504191D02*
X12634129Y-17494668D01*
X12634129Y-17494668D02*
X12653177Y-17485144D01*
X12653177Y-17485144D02*
X12700796Y-17485144D01*
X12700796Y-17485144D02*
X12719844Y-17494668D01*
X12719844Y-17494668D02*
X12729367Y-17504191D01*
X12729367Y-17504191D02*
X12738891Y-17523239D01*
X12738891Y-17523239D02*
X12738891Y-17542287D01*
X12738891Y-17542287D02*
X12729367Y-17570858D01*
X12729367Y-17570858D02*
X12615082Y-17685144D01*
X12615082Y-17685144D02*
X12738891Y-17685144D01*
X12910320Y-17485144D02*
X12872225Y-17485144D01*
X12872225Y-17485144D02*
X12853177Y-17494668D01*
X12853177Y-17494668D02*
X12843653Y-17504191D01*
X12843653Y-17504191D02*
X12824606Y-17532763D01*
X12824606Y-17532763D02*
X12815082Y-17570858D01*
X12815082Y-17570858D02*
X12815082Y-17647049D01*
X12815082Y-17647049D02*
X12824606Y-17666096D01*
X12824606Y-17666096D02*
X12834129Y-17675620D01*
X12834129Y-17675620D02*
X12853177Y-17685144D01*
X12853177Y-17685144D02*
X12891272Y-17685144D01*
X12891272Y-17685144D02*
X12910320Y-17675620D01*
X12910320Y-17675620D02*
X12919844Y-17666096D01*
X12919844Y-17666096D02*
X12929367Y-17647049D01*
X12929367Y-17647049D02*
X12929367Y-17599430D01*
X12929367Y-17599430D02*
X12919844Y-17580382D01*
X12919844Y-17580382D02*
X12910320Y-17570858D01*
X12910320Y-17570858D02*
X12891272Y-17561334D01*
X12891272Y-17561334D02*
X12853177Y-17561334D01*
X12853177Y-17561334D02*
X12834129Y-17570858D01*
X12834129Y-17570858D02*
X12824606Y-17580382D01*
X12824606Y-17580382D02*
X12815082Y-17599430D01*
X13053177Y-17485144D02*
X13072225Y-17485144D01*
X13072225Y-17485144D02*
X13091272Y-17494668D01*
X13091272Y-17494668D02*
X13100796Y-17504191D01*
X13100796Y-17504191D02*
X13110320Y-17523239D01*
X13110320Y-17523239D02*
X13119844Y-17561334D01*
X13119844Y-17561334D02*
X13119844Y-17608953D01*
X13119844Y-17608953D02*
X13110320Y-17647049D01*
X13110320Y-17647049D02*
X13100796Y-17666096D01*
X13100796Y-17666096D02*
X13091272Y-17675620D01*
X13091272Y-17675620D02*
X13072225Y-17685144D01*
X13072225Y-17685144D02*
X13053177Y-17685144D01*
X13053177Y-17685144D02*
X13034129Y-17675620D01*
X13034129Y-17675620D02*
X13024606Y-17666096D01*
X13024606Y-17666096D02*
X13015082Y-17647049D01*
X13015082Y-17647049D02*
X13005558Y-17608953D01*
X13005558Y-17608953D02*
X13005558Y-17561334D01*
X13005558Y-17561334D02*
X13015082Y-17523239D01*
X13015082Y-17523239D02*
X13024606Y-17504191D01*
X13024606Y-17504191D02*
X13034129Y-17494668D01*
X13034129Y-17494668D02*
X13053177Y-17485144D01*
X13196034Y-17485144D02*
X13196034Y-17523239D01*
X13272225Y-17485144D02*
X13272225Y-17523239D01*
X13567463Y-17761334D02*
X13557939Y-17751810D01*
X13557939Y-17751810D02*
X13538891Y-17723239D01*
X13538891Y-17723239D02*
X13529368Y-17704191D01*
X13529368Y-17704191D02*
X13519844Y-17675620D01*
X13519844Y-17675620D02*
X13510320Y-17628001D01*
X13510320Y-17628001D02*
X13510320Y-17589906D01*
X13510320Y-17589906D02*
X13519844Y-17542287D01*
X13519844Y-17542287D02*
X13529368Y-17513715D01*
X13529368Y-17513715D02*
X13538891Y-17494668D01*
X13538891Y-17494668D02*
X13557939Y-17466096D01*
X13557939Y-17466096D02*
X13567463Y-17456572D01*
X13634129Y-17504191D02*
X13643653Y-17494668D01*
X13643653Y-17494668D02*
X13662701Y-17485144D01*
X13662701Y-17485144D02*
X13710320Y-17485144D01*
X13710320Y-17485144D02*
X13729368Y-17494668D01*
X13729368Y-17494668D02*
X13738891Y-17504191D01*
X13738891Y-17504191D02*
X13748415Y-17523239D01*
X13748415Y-17523239D02*
X13748415Y-17542287D01*
X13748415Y-17542287D02*
X13738891Y-17570858D01*
X13738891Y-17570858D02*
X13624606Y-17685144D01*
X13624606Y-17685144D02*
X13748415Y-17685144D01*
X13986510Y-17685144D02*
X13986510Y-17485144D01*
X14072225Y-17685144D02*
X14072225Y-17580382D01*
X14072225Y-17580382D02*
X14062701Y-17561334D01*
X14062701Y-17561334D02*
X14043653Y-17551810D01*
X14043653Y-17551810D02*
X14015082Y-17551810D01*
X14015082Y-17551810D02*
X13996034Y-17561334D01*
X13996034Y-17561334D02*
X13986510Y-17570858D01*
X14196034Y-17685144D02*
X14176987Y-17675620D01*
X14176987Y-17675620D02*
X14167463Y-17666096D01*
X14167463Y-17666096D02*
X14157939Y-17647049D01*
X14157939Y-17647049D02*
X14157939Y-17589906D01*
X14157939Y-17589906D02*
X14167463Y-17570858D01*
X14167463Y-17570858D02*
X14176987Y-17561334D01*
X14176987Y-17561334D02*
X14196034Y-17551810D01*
X14196034Y-17551810D02*
X14224606Y-17551810D01*
X14224606Y-17551810D02*
X14243653Y-17561334D01*
X14243653Y-17561334D02*
X14253177Y-17570858D01*
X14253177Y-17570858D02*
X14262701Y-17589906D01*
X14262701Y-17589906D02*
X14262701Y-17647049D01*
X14262701Y-17647049D02*
X14253177Y-17666096D01*
X14253177Y-17666096D02*
X14243653Y-17675620D01*
X14243653Y-17675620D02*
X14224606Y-17685144D01*
X14224606Y-17685144D02*
X14196034Y-17685144D01*
X14376987Y-17685144D02*
X14357939Y-17675620D01*
X14357939Y-17675620D02*
X14348415Y-17656572D01*
X14348415Y-17656572D02*
X14348415Y-17485144D01*
X14529368Y-17675620D02*
X14510320Y-17685144D01*
X14510320Y-17685144D02*
X14472225Y-17685144D01*
X14472225Y-17685144D02*
X14453177Y-17675620D01*
X14453177Y-17675620D02*
X14443653Y-17656572D01*
X14443653Y-17656572D02*
X14443653Y-17580382D01*
X14443653Y-17580382D02*
X14453177Y-17561334D01*
X14453177Y-17561334D02*
X14472225Y-17551810D01*
X14472225Y-17551810D02*
X14510320Y-17551810D01*
X14510320Y-17551810D02*
X14529368Y-17561334D01*
X14529368Y-17561334D02*
X14538891Y-17580382D01*
X14538891Y-17580382D02*
X14538891Y-17599430D01*
X14538891Y-17599430D02*
X14443653Y-17618477D01*
X14615082Y-17675620D02*
X14634130Y-17685144D01*
X14634130Y-17685144D02*
X14672225Y-17685144D01*
X14672225Y-17685144D02*
X14691272Y-17675620D01*
X14691272Y-17675620D02*
X14700796Y-17656572D01*
X14700796Y-17656572D02*
X14700796Y-17647049D01*
X14700796Y-17647049D02*
X14691272Y-17628001D01*
X14691272Y-17628001D02*
X14672225Y-17618477D01*
X14672225Y-17618477D02*
X14643653Y-17618477D01*
X14643653Y-17618477D02*
X14624606Y-17608953D01*
X14624606Y-17608953D02*
X14615082Y-17589906D01*
X14615082Y-17589906D02*
X14615082Y-17580382D01*
X14615082Y-17580382D02*
X14624606Y-17561334D01*
X14624606Y-17561334D02*
X14643653Y-17551810D01*
X14643653Y-17551810D02*
X14672225Y-17551810D01*
X14672225Y-17551810D02*
X14691272Y-17561334D01*
X14767463Y-17761334D02*
X14776987Y-17751810D01*
X14776987Y-17751810D02*
X14796034Y-17723239D01*
X14796034Y-17723239D02*
X14805558Y-17704191D01*
X14805558Y-17704191D02*
X14815082Y-17675620D01*
X14815082Y-17675620D02*
X14824606Y-17628001D01*
X14824606Y-17628001D02*
X14824606Y-17589906D01*
X14824606Y-17589906D02*
X14815082Y-17542287D01*
X14815082Y-17542287D02*
X14805558Y-17513715D01*
X14805558Y-17513715D02*
X14796034Y-17494668D01*
X14796034Y-17494668D02*
X14776987Y-17466096D01*
X14776987Y-17466096D02*
X14767463Y-17456572D01*
M02*
